<svg id="svg" version="1.1" xmlns="http://www.w3.org/2000/svg" xmlns:xlink="http://www.w3.org/1999/xlink" width="400" height="408.64864864864865" viewBox="0, 0, 400,408.64864864864865"><g id="svgg"><path id="path0" d="M185.405 23.467 C 80.015 31.518,3.886 128.517,21.120 232.793 C 33.275 306.343,90.377 365.331,163.604 379.983 C 274.865 402.245,379.096 316.758,379.096 203.243 C 379.096 98.643,289.533 15.514,185.405 23.467 M208.108 37.845 C 309.436 43.814,381.963 138.393,361.055 237.297 C 342.309 325.979,255.363 383.429,166.667 365.741 C 76.429 347.746,17.794 259.015,36.783 169.189 C 53.680 89.253,126.971 33.066,208.108 37.845 " stroke="none" fill="#fcf4f4" fill-rule="evenodd"></path><path id="path1" d="M191.171 124.686 C 159.501 128.133,142.092 157.286,156.849 182.160 C 158.790 185.432,164.834 192.180,167.370 193.907 C 168.975 195.000,169.054 194.813,166.087 196.937 C 141.172 214.774,137.963 251.105,159.485 271.680 C 172.594 284.213,193.343 290.591,219.029 289.983 C 229.596 289.733,241.936 287.882,243.202 286.356 C 243.493 286.005,252.613 262.928,252.613 262.542 C 252.613 262.483,251.184 262.729,249.437 263.087 C 235.493 265.947,213.889 265.768,200.721 262.684 C 171.598 255.863,160.181 234.849,176.649 218.380 C 185.441 209.588,201.855 202.711,228.755 196.549 L 233.016 195.573 234.710 180.973 C 235.641 172.943,236.361 166.335,236.310 166.287 C 236.042 166.039,206.738 174.964,196.089 178.537 L 190.195 180.514 187.980 179.761 C 170.337 173.766,167.246 159.715,181.982 152.489 C 190.715 148.206,208.954 147.930,220.785 151.902 C 222.287 152.406,223.607 152.730,223.716 152.620 C 223.881 152.456,222.935 140.587,222.082 132.113 L 221.869 129.991 219.313 128.811 C 212.189 125.522,199.961 123.729,191.171 124.686 " stroke="none" fill="#fcfcfc" fill-rule="evenodd"></path><path id="path2" d="" stroke="none" fill="#100f4f4" fill-rule="evenodd"></path><path id="path3" d="" stroke="none" fill="#fcf4fc" fill-rule="evenodd"></path><path id="path4" d="" stroke="none" fill="#100f4f4" fill-rule="evenodd"></path></g></svg>