<svg fill="#fff" height="1056pt" preserveAspectRatio="xMidYMid meet" viewBox="0 0 1132 1056" width="1132pt" xmlns="http://www.w3.org/2000/svg"><g transform="matrix(.1 0 0 -.1 0 1056)"><path d="m5355 10409c-1790-118-3382-1189-4170-2804-260-534-413-1071-482-1695-24-217-24-763 0-980 22-199 60-429 98-600 330-1478 1327-2738 2694-3405 534-260 1071-413 1695-482 217-24 763-24 980 0 624 69 1161 222 1695 482 1373 670 2381 1949 2700 3428 81 377 109 647 109 1067 0 358-11 498-59 797-260 1604-1288 2986-2750 3698-781 380-1650 551-2510 494zm630-399c640-47 1196-200 1760-484 455-230 827-498 1185-856s626-730 856-1185c162-322 270-608 354-940 211-834 181-1727-85-2545-489-1499-1722-2653-3250-3040-827-210-1719-181-2530 80-429 138-894 372-1258 631-1054 753-1743 1906-1902 3184-69 558-35 1119 101 1672 152 623 461 1248 867 1756 575 718 1331 1240 2203 1520 534 172 1151 247 1699 207z"/><path d="m4437 7776c-67-24-113-62-138-113l-24-48-3-2320c-2-1604 1-2335 8-2370 15-70 48-115 111-150l54-30 1269-3c1417-3 1296-9 1338 71 19 36 23 61 26 177 5 166-7 227-52 275l-33 35h-1027-1026v905 905h869c865 0 868 0 895 21 54 43 61 70 61 244 0 147-2 163-23 202-41 78 21 73-942 73h-860v790 790h1009c995 0 1009 0 1034 20 47 37 62 99 62 260s-15 223-62 260c-25 20-38 20-1267 20-1018-1-1248-3-1279-14z"/></g></svg>