<?xml version="1.0"?>
<svg fill="#fff" xmlns="http://www.w3.org/2000/svg" id="Layer_1" data-name="Layer 1" viewBox="0 0 512 512" width="512" height="512"><title>Packed items</title><polygon points="392.03 239.391 320 197.805 320 280.978 392.03 239.391"/><polygon points="263 487.081 399 408.562 399 251.51 263 330.03 263 487.081"/><polygon points="178 272.894 178 205.889 119.972 239.391 178 272.894"/><polygon points="113 408.562 249 487.081 249 330.03 113 251.51 113 408.562"/><polygon points="263 313.864 306 289.061 306 189.722 263 164.919 263 313.864"/><polygon points="192 280.977 249 313.864 249 164.919 192 197.806 192 280.977"/><path d="M360.081,76H312.96A6.794,6.794,0,0,0,306,82.8V189.722l14,8.083V90h40.081c-.21-3-.333-4.639-.333-7S359.871,78,360.081,76Z"/><path d="M439.879,66.992a7,7,0,0,1-6.262.079L417.318,59H404v5h10.526A7.626,7.626,0,0,1,422,71.239V107h30V71.239A7.183,7.183,0,0,1,458.971,64H470V59H456.179Z"/><path d="M436.748,5.9c-40.1,0-73.117,31.1-76.667,70.1H367V90h-6.919A77,77,0,1,0,436.748,5.9ZM484,71.239A7.021,7.021,0,0,1,476.748,78H466v35.906A7.106,7.106,0,0,1,458.971,121H414.526c-3.866,0-6.526-3.228-6.526-7.094V78H396.748A6.588,6.588,0,0,1,390,71.239V51.684A6.525,6.525,0,0,1,396.748,45h22.223a6.87,6.87,0,0,1,3.131.581l14.646,7.245,14.648-7.2a6.881,6.881,0,0,1,3.13-.621h22.222c3.866,0,7.252,2.817,7.252,6.684Z"/><path d="M80.124,130.356a1,1,0,0,0-1.414,0l-9.9,9.9a1,1,0,0,0,0,1.413L81.438,154.3,92.75,142.983Z"/><path d="M185.038,136H157.916c-3.55-39-36.57-70.1-76.667-70.1A77.013,77.013,0,1,0,157.916,150H178v55.889l14-8.083V142.795A6.8,6.8,0,0,0,185.038,136Zm-61.072,33.952-15.558,15.559a11.016,11.016,0,0,1-15.555,0l0,0L58.91,151.568a15.008,15.008,0,0,1-.251-20.934L46.048,118.023l9.9-9.9,12.6,12.6.265-.265a15.019,15.019,0,0,1,21.213,0l33.941,33.94A11.017,11.017,0,0,1,123.966,169.952Z"/><rect x="93.641" y="156.615" width="15.999" height="13.142" transform="translate(-85.619 119.661) rotate(-44.998)"/></svg>
