<svg fill="#fff" height="512pt" viewBox="0 -4 512.00001 512" width="512pt" xmlns="http://www.w3.org/2000/svg"><path d="m498.074219 197.222656-108.953125-188.691406c-4.714844-8.160156-15.152344-10.953125-23.316406-6.238281-.003907 0-.003907 0-.007813.003906l-337.109375 194.609375h-11.621094c-9.425781 0-17.066406 7.640625-17.066406 17.066406v273.066406c0 9.425782 7.640625 17.066407 17.066406 17.066407h477.867188c9.425781 0 17.066406-7.640625 17.066406-17.066407v-273.066406c-.011719-8.203125-5.859375-15.242187-13.925781-16.75zm-295.125-.316406 206.410156-119.152344 18.613281 32.230469-150.535156 86.921875zm233.566406-72.140625 41.667969 72.140625h-166.613282zm-62.210937-107.691406 26.515624 45.902343-232.015624 133.929688h-105.980469zm-357.238282 469.964843v-273.066406h477.867188v273.066406zm0 0"/><path d="m426.667969 367.574219c-10.738281.015625-21.191407 3.433593-29.867188 9.753906-22.890625-16.601563-54.90625-11.503906-71.507812 11.382813-16.601563 22.890624-11.503907 54.90625 11.386719 71.507812 17.929687 13.007812 42.191406 13.007812 60.121093 0 22.914063 16.53125 54.886719 11.355469 71.417969-11.558594 16.527344-22.914062 11.351562-54.890625-11.5625-71.417968-8.730469-6.296876-19.222656-9.683594-29.988281-9.667969zm-93.867188 51.199219c.03125-18.886719 15.367188-34.167969 34.25-34.132813 8.851563.015625 17.355469 3.460937 23.714844 9.617187 13.539063 13.261719 13.761719 34.984376.5 48.519532-.148437.15625-.300781.308594-.457031.460937-13.539063 13.160157-35.179688 12.847657-48.339844-.6875-6.1875-6.371093-9.65625-14.898437-9.667969-23.777343zm93.867188 34.132812c-6.234375.019531-12.355469-1.667969-17.699219-4.878906.042969-.085938.089844-.171875.144531-.25 1.277344-1.882813 2.433594-3.847656 3.457031-5.878906.238282-.476563.453126-.945313.675782-1.425782.910156-1.910156 1.695312-3.875 2.351562-5.886718.070313-.203126.15625-.390626.214844-.589844.667969-2.175782 1.1875-4.398438 1.554688-6.644532.085937-.539062.160156-1.085937.238281-1.621093.703125-4.609375.703125-9.296875 0-13.902344-.078125-.546875-.152344-1.09375-.246094-1.636719-.363281-2.242187-.878906-4.453125-1.539063-6.625-.066406-.21875-.167968-.441406-.238281-.664062-.652343-1.960938-1.421875-3.882813-2.304687-5.753906-.246094-.527344-.484375-1.046876-.742188-1.558594-1.015625-1.996094-2.15625-3.925782-3.414062-5.777344-.058594-.09375-.101563-.199219-.160156-.292969 16.15625-9.710937 37.125-4.492187 46.839843 11.664063 9.714844 16.15625 4.492188 37.128906-11.660156 46.84375-5.277344 3.171875-11.316406 4.859375-17.472656 4.878906zm0 0"/><path d="m51.199219 367.574219h17.066406v17.066406h-17.066406zm0 0"/><path d="m85.332031 367.574219h17.066407v17.066406h-17.066407zm0 0"/><path d="m119.464844 367.574219h17.066406v17.066406h-17.066406zm0 0"/><path d="m153.601562 367.574219h17.066407v17.066406h-17.066407zm0 0"/><path d="m187.734375 367.574219h17.066406v17.066406h-17.066406zm0 0"/><path d="m221.867188 367.574219h17.066406v17.066406h-17.066406zm0 0"/><path d="m256 367.574219h17.066406v17.066406h-17.066406zm0 0"/><path d="m290.132812 367.574219h17.066407v17.066406h-17.066407zm0 0"/><path d="m51.199219 418.773438h238.933593v17.066406h-238.933593zm0 0"/><path d="m68.265625 316.371094h51.203125c9.425781 0 17.066406-7.640625 17.066406-17.066406v-34.132813c0-9.425781-7.640625-17.066406-17.066406-17.066406h-51.203125c-9.425781 0-17.066406 7.640625-17.066406 17.066406v34.132813c0 9.425781 7.640625 17.066406 17.066406 17.066406zm0-51.199219h51.203125v34.132813h-51.203125zm0 0"/><path d="m187.734375 299.304688h256c9.425781 0 17.066406-7.640626 17.066406-17.066407v-17.066406c0-9.425781-7.640625-17.066406-17.066406-17.066406h-256c-9.425781 0-17.066406 7.640625-17.066406 17.066406v17.066406c0 9.425781 7.640625 17.066407 17.066406 17.066407zm0-34.132813h256v17.066406h-256zm0 0"/></svg>