<?xml version="1.0" encoding="iso-8859-1"?>
<!-- Generator: Adobe Illustrator 19.0.0, SVG Export Plug-In . SVG Version: 6.00 Build 0)  -->
<svg fill="#fff"  version="1.1" id="Capa_1" xmlns="http://www.w3.org/2000/svg" xmlns:xlink="http://www.w3.org/1999/xlink" x="0px" y="0px"
	 viewBox="0 0 491.312 491.312" style="enable-background:new 0 0 491.312 491.312;" xml:space="preserve">
<g>
	<g>
		<path d="M245.656,133.656c-61.76,0-112,50.24-112,112s50.24,112,112,112s112-50.24,112-112S307.416,133.656,245.656,133.656z
			 M318.888,307.584l-22.32-22.328l-11.312,11.312l22.328,22.328c-14.816,12.552-33.464,20.656-53.928,22.36v-31.6h-16v31.592
			c-20.464-1.704-39.104-9.808-53.928-22.36l22.328-22.328l-11.312-11.312l-22.32,22.328c-12.552-14.816-20.656-33.464-22.36-53.928
			h31.592v-16h-31.592c1.704-20.464,9.808-39.104,22.36-53.928l22.32,22.328l11.312-11.312l-22.328-22.328
			c14.816-12.552,33.464-20.656,53.928-22.36v31.608h16v-31.592c20.464,1.704,39.104,9.808,53.928,22.36l-22.328,22.328
			l11.312,11.312l22.32-22.328c12.552,14.816,20.656,33.464,22.36,53.928h-31.592v16h31.591
			C339.542,274.125,331.438,292.762,318.888,307.584z"/>
	</g>
</g>
<g>
	<g>
		<path d="M245.656,213.656c-17.648,0-32,14.352-32,32s14.352,32,32,32s32-14.352,32-32S263.304,213.656,245.656,213.656z
			 M245.656,261.656c-8.824,0-16-7.176-16-16c0-8.824,7.176-16,16-16c8.824,0,16,7.176,16,16
			C261.656,254.48,254.48,261.656,245.656,261.656z"/>
	</g>
</g>
<g>
	<g>
		<path d="M435.312,91.312c1.504-1.496,2.344-3.536,2.344-5.656v-40h48v-16h-56c-4.424,0-8,3.584-8,8v44.688L384,120
			c-1.504,1.496-2.344,3.536-2.344,5.656v21.368c-10.12-6.608-20.8-12.88-32-18.544v-23.512l21.656-21.656
			c1.504-1.496,2.344-3.536,2.344-5.656v-48h-16v44.688L336,96c-1.504,1.496-2.344,3.536-2.344,5.656v19.368
			c-10.32-4.448-21-8.296-32-11.376v-36.68l21.656-21.656c1.504-1.496,2.344-3.536,2.344-5.656v-40h-16v36.688L288,64
			c-1.504,1.496-2.344,3.536-2.344,5.656v36.152c-10.44-2.112-21.112-3.448-32-3.904V5.656h-16v96.248
			c-8.12,0.336-16.128,1.168-24,2.448V85.656c0-2.12-0.84-4.16-2.344-5.656l-29.656-29.656V5.656h-16v48
			c0,2.12,0.84,4.16,2.344,5.656l29.656,29.656v18.552c-10.976,2.648-21.656,6.104-32,10.168V77.656c0-4.416-3.576-8-8-8h-24v-32
			c0-2.12-0.84-4.16-2.344-5.656l-32-32L88,11.312l29.656,29.656v36.688c0,4.416,3.576,8,8,8h24v38.96
			c-11.152,5.224-21.84,11.072-32,17.328v-32.288c0-2.12-0.84-4.16-2.344-5.656L69.656,58.344V5.656h-16v56
			c0,2.12,0.84,4.16,2.344,5.656l45.656,45.656v39.424c-11.544,7.976-22.256,16.288-32,24.512v-43.248c0-4.416-3.576-8-8-8h-56v16
			h48v49.408C25.92,216.768,9,238.576,7.296,240.8c-2.184,2.864-2.184,6.84,0,9.712c1.528,2,15.392,19.872,38.36,42.16v48.984h-40
			v16h48c4.424,0,8-3.584,8-8v-42.16c9.624,8.512,20.328,17.264,32,25.76v29.088L56,400c-1.504,1.496-2.344,3.536-2.344,5.656v40
			h-48v16h56c4.424,0,8-3.584,8-8v-44.688l37.656-37.656c1.504-1.496,2.344-3.536,2.344-5.656v-21.368
			c10.12,6.608,20.8,12.88,32,18.544v23.512L120,408c-1.504,1.496-2.344,3.536-2.344,5.656v48h16v-44.688l21.656-21.656
			c1.504-1.496,2.344-3.536,2.344-5.656v-19.368c10.32,4.448,21,8.296,32,11.376v36.68L168,440
			c-1.504,1.496-2.344,3.536-2.344,5.656v40h16v-36.688l21.656-21.656c1.504-1.496,2.344-3.536,2.344-5.656v-36.152
			c10.44,2.112,21.112,3.448,32,3.904v96.248h16v-96.248c8.12-0.336,16.128-1.168,24-2.448v18.696c0,2.12,0.84,4.16,2.344,5.656
			l29.656,29.656v44.688h16v-48c0-2.12-0.84-4.16-2.344-5.656l-29.656-29.656v-18.552c10.976-2.648,21.656-6.104,32-10.168v40.032
			c0,4.416,3.576,8,8,8h24v32c0,2.12,0.84,4.16,2.344,5.656l32,32L403.312,480l-29.656-29.656v-36.688c0-4.416-3.576-8-8-8h-24
			v-38.96c11.152-5.224,21.84-11.072,32-17.328v32.288c0,2.12,0.84,4.16,2.344,5.656l45.656,45.656v52.688h16v-56
			c0-2.12-0.84-4.16-2.344-5.656l-45.656-45.656V338.92c11.544-7.976,22.256-16.288,32-24.512v43.248c0,4.416,3.576,8,8,8h56v-16
			h-48v-49.408c27.736-25.704,44.656-47.512,46.36-49.736c2.184-2.864,2.184-6.84,0-9.712c-1.528-2-15.392-19.872-38.36-42.16
			v-48.984h40v-16h-48c-4.424,0-8,3.584-8,8v42.16c-9.624-8.512-20.328-17.264-32-25.76v-29.088L435.312,91.312z M467.376,245.656
			c-19.872,23.944-112.536,128-221.72,128c-109.072,0-201.832-104.072-221.72-128c19.872-23.944,112.536-128,221.72-128
			C354.728,117.656,447.488,221.728,467.376,245.656z"/>
	</g>
</g>
<g>
</g>
<g>
</g>
<g>
</g>
<g>
</g>
<g>
</g>
<g>
</g>
<g>
</g>
<g>
</g>
<g>
</g>
<g>
</g>
<g>
</g>
<g>
</g>
<g>
</g>
<g>
</g>
<g>
</g>
</svg>
