<svg fill="#fff" xmlns="http://www.w3.org/2000/svg" height="700pt" version="1.1" viewBox="-6 0 699 700" width="700pt">
<g id="surface1">
<path d="M 179.164062 183.835938 L 157.824219 162.5 L 113 162.5 L 113 262.5 L 238 262.5 L 238 187.5 L 188 187.5 C 184.683594 187.5 181.507812 186.179688 179.164062 183.835938 Z M 179.164062 183.835938 "  />
<path d="M 238 525 C 238 559.515625 210.015625 587.5 175.5 587.5 C 140.984375 587.5 113 559.515625 113 525 C 113 490.484375 140.984375 462.5 175.5 462.5 C 210.015625 462.5 238 490.484375 238 525 Z M 238 525 "  />
<path d="M 579.164062 383.835938 L 557.824219 362.5 L 513 362.5 L 513 462.5 L 638 462.5 L 638 387.5 L 588 387.5 C 584.683594 387.5 581.507812 386.179688 579.164062 383.835938 Z M 579.164062 383.835938 "  />
<path d="M 379.164062 183.835938 L 357.824219 162.5 L 313 162.5 L 313 262.5 L 438 262.5 L 438 187.5 L 388 187.5 C 384.683594 187.5 381.507812 186.179688 379.164062 183.835938 Z M 379.164062 183.835938 "  />
<path d="M 663 0 L 88 0 C 74.191406 0 63 11.191406 63 25 L 63 355.464844 C 67.839844 352.367188 74.179688 353.027344 78.277344 357.0625 L 101.625 380.414062 C 109.308594 376.488281 117.292969 373.1875 125.5 370.539062 L 125.5 337.5 C 125.5 330.59375 131.09375 325 138 325 L 213 325 C 219.90625 325 225.5 330.59375 225.5 337.5 L 225.5 370.539062 C 233.707031 373.1875 241.691406 376.488281 249.375 380.414062 L 272.722656 357.0625 C 277.605469 352.1875 285.515625 352.1875 290.398438 357.0625 L 343.4375 410.101562 C 348.3125 414.984375 348.3125 422.894531 343.4375 427.777344 L 320.085938 451.125 C 324.011719 458.808594 327.3125 466.792969 329.960938 475 L 363 475 C 369.90625 475 375.5 480.59375 375.5 487.5 L 375.5 550 L 663 550 C 676.808594 550 688 538.808594 688 525 L 688 25 C 688 11.191406 676.808594 0 663 0 Z M 188 25 L 213 25 L 213 50 L 188 50 Z M 138 25 L 163 25 L 163 50 L 138 50 Z M 88 25 L 113 25 L 113 50 L 88 50 Z M 263 275 C 263 281.90625 257.40625 287.5 250.5 287.5 L 100.5 287.5 C 93.59375 287.5 88 281.90625 88 275 L 88 150 C 88 143.09375 93.59375 137.5 100.5 137.5 L 163 137.5 C 166.316406 137.5 169.492188 138.820312 171.835938 141.164062 L 193.175781 162.5 L 250.5 162.5 C 257.40625 162.5 263 168.09375 263 175 Z M 463 475 C 463 481.90625 457.40625 487.5 450.5 487.5 L 400.5 487.5 L 400.5 462.5 L 438 462.5 L 438 387.5 L 388 387.5 C 384.683594 387.5 381.507812 386.179688 379.164062 383.835938 L 357.824219 362.5 L 325.5 362.5 L 325.5 337.5 L 363 337.5 C 366.316406 337.5 369.492188 338.820312 371.835938 341.164062 L 393.175781 362.5 L 450.5 362.5 C 457.40625 362.5 463 368.09375 463 375 Z M 463 275 C 463 281.90625 457.40625 287.5 450.5 287.5 L 300.5 287.5 C 293.59375 287.5 288 281.90625 288 275 L 288 150 C 288 143.09375 293.59375 137.5 300.5 137.5 L 363 137.5 C 366.316406 137.5 369.492188 138.820312 371.835938 141.164062 L 393.175781 162.5 L 450.5 162.5 C 457.40625 162.5 463 168.09375 463 175 Z M 663 475 C 663 481.90625 657.40625 487.5 650.5 487.5 L 500.5 487.5 C 493.59375 487.5 488 481.90625 488 475 L 488 350 C 488 343.09375 493.59375 337.5 500.5 337.5 L 563 337.5 C 566.316406 337.5 569.492188 338.820312 571.835938 341.164062 L 593.175781 362.5 L 650.5 362.5 C 657.40625 362.5 663 368.09375 663 375 Z M 663 275 C 663 281.90625 657.40625 287.5 650.5 287.5 L 500.5 287.5 C 493.59375 287.5 488 281.90625 488 275 L 488 150 C 488 143.09375 493.59375 137.5 500.5 137.5 L 563 137.5 C 566.316406 137.5 569.492188 138.820312 571.835938 141.164062 L 593.175781 162.5 L 650.5 162.5 C 657.40625 162.5 663 168.09375 663 175 Z M 663 100 L 88 100 L 88 75 L 663 75 Z M 663 100 "  />
<path d="M 308.476562 490.625 C 305.28125 478.21875 300.359375 466.3125 293.851562 455.273438 C 290.953125 450.367188 291.75 444.117188 295.773438 440.085938 L 316.925781 418.941406 L 281.558594 383.574219 L 260.414062 404.726562 C 256.382812 408.75 250.132812 409.546875 245.226562 406.648438 C 234.1875 400.140625 222.28125 395.21875 209.875 392.023438 C 204.359375 390.601562 200.5 385.625 200.5 379.925781 L 200.5 350 L 150.5 350 L 150.5 379.925781 C 150.5 385.625 146.640625 390.601562 141.125 392.023438 C 128.71875 395.21875 116.8125 400.140625 105.773438 406.648438 C 100.867188 409.546875 94.617188 408.75 90.585938 404.726562 L 69.441406 383.574219 L 34.074219 418.941406 L 55.226562 440.085938 C 59.25 444.117188 60.046875 450.367188 57.148438 455.273438 C 50.636719 466.3125 45.714844 478.210938 42.523438 490.625 C 41.101562 496.140625 36.125 500 30.425781 500 L 0.5 500 L 0.5 550 L 30.425781 550 C 36.125 550 41.101562 553.859375 42.523438 559.375 C 45.71875 571.78125 50.640625 583.6875 57.148438 594.726562 C 60.046875 599.632812 59.25 605.882812 55.226562 609.914062 L 34.074219 631.058594 L 69.441406 666.425781 L 90.585938 645.273438 C 94.617188 641.25 100.867188 640.453125 105.773438 643.351562 C 116.8125 649.859375 128.71875 654.78125 141.125 657.976562 C 146.640625 659.398438 150.5 664.375 150.5 670.074219 L 150.5 700 L 200.5 700 L 200.5 670.074219 C 200.5 664.375 204.359375 659.398438 209.875 657.976562 C 222.28125 654.78125 234.1875 649.859375 245.226562 643.351562 C 250.132812 640.453125 256.382812 641.25 260.414062 645.273438 L 281.558594 666.425781 L 316.925781 631.058594 L 295.773438 609.914062 C 291.75 605.882812 290.953125 599.632812 293.851562 594.726562 C 300.359375 583.6875 305.28125 571.78125 308.476562 559.375 C 309.898438 553.859375 314.875 550 320.574219 550 L 350.5 550 L 350.5 500 L 320.574219 500 C 314.875 500 309.898438 496.140625 308.476562 490.625 Z M 175.5 612.5 C 127.171875 612.5 88 573.328125 88 525 C 88 476.671875 127.171875 437.5 175.5 437.5 C 223.828125 437.5 263 476.671875 263 525 C 262.945312 573.300781 223.800781 612.445312 175.5 612.5 Z M 175.5 612.5 " />
<path d="M 579.164062 183.835938 L 557.824219 162.5 L 513 162.5 L 513 262.5 L 638 262.5 L 638 187.5 L 588 187.5 C 584.683594 187.5 581.507812 186.179688 579.164062 183.835938 Z M 579.164062 183.835938 "  />
</g>
</svg>