


<svg fill="#fff" height="448pt" viewBox="-32 0 448 448" width="448pt" xmlns="http://www.w3.org/2000/svg"><path d="m24 0c-13.601562 0-24 10.398438-24 24v48h48v-48c0-13.601562-10.398438-24-24-24zm0 0"/><path d="m360 400h-232v24c0 8.800781-3.199219 16.800781-8 24h240c13.601562 0 24-10.398438 24-24v-24zm0 0"/><path d="m199.199219 133.601562.800781.796876.800781-.796876c24.800781-16 39.199219-44 39.199219-73.601562v-14.398438l-40-13.601562-40 13.601562v15.199219c0 29.597657 14.398438 56.800781 39.199219 72.800781zm8.800781-70.402343 16 1.601562c-1.601562 18.398438-12 35.199219-27.199219 45.597657l-8.800781-13.597657c11.199219-7.199219 18.398438-20 20-33.601562zm0 0"/><path d="m344 24c0-13.601562-10.398438-24-24-24h-264c5.601562 7.199219 8 15.199219 8 24v400c0 13.601562 10.398438 24 24 24s24-10.398438 24-24v-40h232zm-200 10.398438 56-18.398438 56 18.398438v26.402343c0 34.398438-17.601562 67.199219-46.398438 86.398438l-9.601562 6.402343-9.601562-6.402343c-28.796876-19.199219-46.398438-52-46.398438-86.398438zm0 133.601562h112v16h-112zm-64 40h72v16h-72zm0 32h168v16h-168zm0 32h72v16h-72zm0 32h32v16h-32zm128 48h-128v-16h128zm120 0h-104v-16h104zm0-32h-200v-16h200zm0-32h-160v-16h160zm0-32h-64v-16h64zm0-32h-160v-16h160zm0 0"/></svg>