<?xml version="1.0" encoding="iso-8859-1"?>
<!-- Generator: Adobe Illustrator 19.0.0, SVG Export Plug-In . SVG Version: 6.00 Build 0)  -->
<svg fill="#fff" version="1.1" id="Layer_1" xmlns="http://www.w3.org/2000/svg" xmlns:xlink="http://www.w3.org/1999/xlink" x="0px" y="0px"
	 viewBox="0 0 511.999 511.999" style="enable-background:new 0 0 511.999 511.999;" xml:space="preserve">
<g>
	<g>
		<path d="M447.357,214.3c-6.843,0-12.396,5.553-12.396,12.396c0,6.855,5.553,12.396,12.396,12.396
			c6.855,0,12.396-5.541,12.396-12.396C459.752,219.852,454.211,214.3,447.357,214.3z"/>
	</g>
</g>
<g>
	<g>
		<path d="M402.161,146.159c-45.794,0-85.125,28.172-101.591,68.093c-11.158-11.905-27.005-19.364-44.57-19.364
			s-33.412,7.46-44.57,19.364c-16.466-39.921-55.797-68.093-101.591-68.093C49.274,146.159,0,195.432,0,256
			s49.274,109.84,109.839,109.84c60.566,0,109.84-49.274,109.84-109.84c0-20.027,16.293-36.32,36.32-36.32s36.32,16.293,36.32,36.32
			c0,60.567,49.274,109.84,109.84,109.84c60.565,0,109.839-49.274,109.839-109.84S462.726,146.159,402.161,146.159z
			 M109.839,341.048c-46.895,0-85.047-38.152-85.047-85.048s38.152-85.048,85.047-85.048c46.896,0,85.048,38.152,85.048,85.048
			S156.735,341.048,109.839,341.048z M402.161,341.048c-46.896,0-85.048-38.152-85.048-85.048s38.152-85.048,85.048-85.048
			c46.895,0,85.047,38.152,85.047,85.048S449.056,341.048,402.161,341.048z"/>
	</g>
</g>
<g>
	<g>
		<path d="M449.451,251.603c-6.748-1.158-13.156,3.375-14.314,10.123c-2.758,16.075-16.627,27.743-32.978,27.743
			c-6.845,0-12.396,5.551-12.396,12.396s5.551,12.396,12.396,12.396c28.462,0,52.607-20.331,57.413-48.344
			C460.732,259.168,456.199,252.761,449.451,251.603z"/>
	</g>
</g>
<g>
</g>
<g>
</g>
<g>
</g>
<g>
</g>
<g>
</g>
<g>
</g>
<g>
</g>
<g>
</g>
<g>
</g>
<g>
</g>
<g>
</g>
<g>
</g>
<g>
</g>
<g>
</g>
<g>
</g>
</svg>
