<svg fill="#fff" id="Capa_1" enable-background="new 0 0 512 512" height="512" viewBox="0 0 512 512" width="512" xmlns="http://www.w3.org/2000/svg"><path id="XMLID_670_" d="m462.797 354.447c-7.789 0-15.094 2.087-21.405 5.716l-63.018-52.465c9.297-15.298 15.468-32.693 17.641-51.291h20.484c6.106 16.365 21.898 28.054 40.374 28.054 23.752 0 43.076-19.313 43.076-43.054s-19.324-43.054-43.076-43.054c-18.476 0-34.268 11.688-40.374 28.054h-20.497c-2.764-23.462-11.902-44.998-25.632-62.828l80.615-80.548c5.466 2.513 11.539 3.926 17.939 3.926 23.752 0 43.076-19.313 43.076-43.054s-19.324-43.054-43.076-43.054-43.076 19.314-43.076 43.055c0 6.392 1.411 12.457 3.922 17.916l-80.344 80.279c-18.314-14.854-40.796-24.755-65.394-27.65v-21.64c16.378-6.101 28.076-21.887 28.076-40.357 0-23.74-19.324-43.054-43.076-43.054s-43.076 19.313-43.076 43.054c0 18.47 11.698 34.256 28.076 40.357v21.628c-26.685 3.122-50.884 14.488-69.978 31.479l-41.599-34.633c2.153-5.119 3.346-10.738 3.346-16.63 0-23.74-19.324-43.054-43.076-43.054s-43.077 19.315-43.077 43.055 19.324 43.054 43.076 43.054c6.882 0 13.388-1.63 19.164-4.511l42.215 35.146c-11.783 16.85-19.612 36.655-22.134 58.064h-40.856c-6.106-16.365-21.898-28.054-40.374-28.054-23.752 0-43.076 19.313-43.076 43.054s19.324 43.054 43.076 43.054c18.476 0 34.268-11.688 40.374-28.054h40.842c2.876 24.602 12.758 47.091 27.596 65.416l-107.647 107.559c-5.691-2.776-12.08-4.339-18.828-4.339-23.752 0-43.076 19.313-43.076 43.054s19.324 43.055 43.076 43.055 43.076-19.314 43.076-43.055c0-6.043-1.258-11.797-3.516-17.021l108.38-108.29c17.873 13.786 39.477 22.954 63.016 25.708v27.88c-16.378 6.101-28.076 21.887-28.076 40.356 0 23.74 19.324 43.054 43.076 43.054s43.076-19.313 43.076-43.054c0-18.47-11.698-34.255-28.076-40.356v-27.89c29.516-3.474 55.988-17.035 75.864-37.136l62.28 51.85c-1.583 4.478-2.453 9.29-2.453 14.303 0 23.74 19.324 43.054 43.076 43.054s43.076-19.313 43.076-43.054-19.325-43.054-43.078-43.054zm-280.666-67.831h21.004c2.556 12.972 6.221 25.079 10.9 35.841-13.371-9.1-24.378-21.423-31.904-35.841zm173.71-90.301h-21.004c-2.556-12.972-6.221-25.078-10.9-35.841 13.371 9.101 24.378 21.424 31.904 35.841zm-71.855-44.229c3.706 4.09 7.289 9.534 10.508 16.124 3.976 8.143 7.22 17.695 9.638 28.105h-20.146zm-30 0v44.23h-20.146c2.419-10.411 5.662-19.963 9.638-28.105 3.218-6.591 6.802-12.036 10.508-16.125zm0 74.229v30.301h-24.594c-.357-4.993-.541-10.058-.541-15.15s.185-10.157.541-15.15h24.594zm0 104.531c-3.706-4.09-7.289-9.534-10.508-16.125-3.976-8.142-7.22-17.694-9.638-28.104h20.146zm-54.655-74.23h-27.079c-.771-4.939-1.173-9.999-1.173-15.15s.403-10.211 1.173-15.15h27.079c-.307 4.996-.48 10.048-.48 15.15s.173 10.155.48 15.15zm84.655 74.23v-44.229h20.146c-2.419 10.411-5.662 19.962-9.638 28.104-3.219 6.591-6.803 12.035-10.508 16.125zm0-74.23v-30.301h24.594c.357 4.993.541 10.058.541 15.15s-.185 10.157-.541 15.15h-24.594zm54.655-30.301h27.079c.771 4.939 1.173 9.999 1.173 15.15s-.403 10.211-1.173 15.15h-27.079c.307-4.996.48-10.048.48-15.15s-.173-10.154-.48-15.15zm118.233 2.039c7.21 0 13.076 5.855 13.076 13.054s-5.866 13.054-13.076 13.054-13.076-5.855-13.076-13.054 5.865-13.054 13.076-13.054zm12.05-197.505c7.21 0 13.076 5.856 13.076 13.055s-5.866 13.054-13.076 13.054-13.076-5.855-13.076-13.054 5.865-13.055 13.076-13.055zm-199.893 8.549c7.21 0 13.076 5.855 13.076 13.054s-5.866 13.055-13.076 13.055-13.076-5.856-13.076-13.055 5.866-13.054 13.076-13.054zm-54.996 121.076c-4.679 10.763-8.344 22.869-10.9 35.841h-21.004c7.525-14.417 18.533-26.74 31.904-35.841zm-111.311-52.766c-7.21 0-13.076-5.855-13.076-13.054s5.866-13.054 13.076-13.054 13.076 5.856 13.076 13.054-5.865 13.054-13.076 13.054zm-41.985 146.753c-7.21 0-13.076-5.855-13.076-13.054s5.866-13.054 13.076-13.054 13.076 5.855 13.076 13.054-5.865 13.054-13.076 13.054zm-17.663 226.69c-7.21 0-13.076-5.856-13.076-13.055s5.866-13.054 13.076-13.054 13.076 5.855 13.076 13.054-5.865 13.055-13.076 13.055zm225.955-31.367c-7.21 0-13.076-5.855-13.076-13.054s5.866-13.054 13.076-13.054 13.076 5.855 13.076 13.054-5.865 13.054-13.076 13.054zm54.905-127.326c4.679-10.763 8.344-22.869 10.9-35.841h21.004c-7.525 14.417-18.533 26.74-31.904 35.841zm138.861 88.097c-7.21 0-13.076-5.855-13.076-13.054s5.866-13.054 13.076-13.054 13.076 5.855 13.076 13.054-5.865 13.054-13.076 13.054z"/></svg>