<?xml version="1.0" encoding="UTF-8"?>
<svg xmlns="http://www.w3.org/2000/svg" xmlns:xlink="http://www.w3.org/1999/xlink" width="512" height="512" viewBox="0 0 60 60" version="1.1"><!-- Generator: Sketch 51.3 (57544) - http://www.bohemiancoding.com/sketch --><title>008 - Graphics Tablet</title><desc>Created with Sketch.</desc><defs/><g id="Page-1" stroke="none" stroke-width="1" fill="none" fill-rule="evenodd"><g id="008---Graphics-Tablet" fill="#000000" fill-rule="nonzero"><path d="M6,49 L37,49 C37.5522847,49 38,48.5522847 38,48 C38,47.4477153 37.5522847,47 37,47 L6,47 C3.790861,47 2,45.209139 2,43 L2,6 C2,3.790861 3.790861,2 6,2 L47,2 C49.209139,2 51,3.790861 51,6 L51,41 C51,41.5522847 51.4477153,42 52,42 C52.5522847,42 53,41.5522847 53,41 L53,6 C52.9966926,2.68766243 50.3123376,0.00330737898 47,0 L6,0 C2.68766243,0.00330737898 0.00330737898,2.68766243 0,6 L0,43 C0.00330737898,46.3123376 2.68766243,48.9966926 6,49 Z" id="Shape"/><path d="M9,17 C10.3265763,17.0037456 11.5995062,16.476569 12.535,15.536 L15.364,12.707 C17.3020337,10.7519163 17.2951274,7.59802731 15.34855,5.65144996 C13.4019727,3.7048726 10.2480837,3.69796635 8.293,5.636 L5.465,8.464 C4.03474537,9.89387755 3.60672064,12.0445537 4.380531,13.9130813 C5.15434137,15.781609 6.97758113,16.9999726 9,17 Z M11.829,6.173 C13.0413098,6.17406562 14.1338282,6.90467337 14.5978789,8.02465243 C15.0619296,9.14463149 14.8062956,10.433831 13.95,11.292 L13.242,12 L9,7.757 L9.707,7.05 C10.2700506,6.48784019 11.0333561,6.17237417 11.829,6.173 Z M6.879,9.878 L7.586,9.171 L11.828,13.414 L11.121,14.122 C9.93353493,15.2539371 8.06646507,15.2539371 6.879,14.122 C6.31597498,13.5593357 5.99964047,12.7959826 5.99964047,12 C5.99964047,11.2040174 6.31597498,10.4406643 6.879,9.878 Z" id="Shape"/><path d="M44,17 C46.0224189,16.9999726 47.8456586,15.781609 48.619469,13.9130813 C49.3932794,12.0445537 48.9652546,9.89387755 47.535,8.464 L44.707,5.636 C42.7541211,3.68339727 39.5881027,3.68362112 37.6355,5.6365 C35.6828973,7.58937888 35.6831211,10.7553973 37.636,12.708 L40.465,15.536 C41.4004938,16.476569 42.6734237,17.0037456 44,17 Z M46.121,14.122 C44.9335349,15.2539371 43.0664651,15.2539371 41.879,14.122 L41.172,13.414 L45.414,9.171 L46.121,9.878 C46.684025,10.4406643 47.0003595,11.2040174 47.0003595,12 C47.0003595,12.7959826 46.684025,13.5593357 46.121,14.122 Z M39.05,7.05 C39.6126237,6.48728095 40.3757625,6.17114067 41.1715,6.17114067 C41.9672375,6.17114067 42.7303763,6.48728095 43.293,7.05 L44,7.757 L39.757,12 L39.05,11.293 C37.880942,10.1202463 37.880942,8.22275366 39.05,7.05 Z" id="Shape"/><path d="M4,43 C4,44.1045695 4.8954305,45 6,45 L33,45 C33.5522847,45 34,44.5522847 34,44 C34,43.4477153 33.5522847,43 33,43 L6,43 L6,21 L47,21 L47,37 C47,37.5522847 47.4477153,38 48,38 C48.5522847,38 49,37.5522847 49,37 L49,21 C49,19.8954305 48.1045695,19 47,19 L6,19 C4.8954305,19 4,19.8954305 4,21 L4,43 Z" id="Shape"/><path d="M35.9,28.833 C35.8029509,28.735918 35.6868454,28.6599899 35.559,28.61 L26.366,25.075 C26.2954726,25.0517151 26.2227683,25.0356331 26.149,25.027 C26.1285688,25.0216113 26.107875,25.0172723 26.087,25.014 C25.9769176,25.0063977 25.8663438,25.0175565 25.76,25.047 C25.7236728,25.0577238 25.6879538,25.070409 25.653,25.085 C25.5724289,25.1162195 25.4961513,25.1575505 25.426,25.208 C25.408,25.222 25.385,25.225 25.367,25.24 L18.727,30.765 C18.4733247,30.9767739 18.1077668,30.9877462 17.8418468,30.7915679 C17.5759269,30.5953897 17.4785249,30.2428761 17.606,29.938 C18.0721771,28.8182522 17.7393922,27.5251327 16.7905927,26.7695299 C15.8417933,26.013927 14.5069954,25.9790204 13.52,26.684 L11.42,28.184 C10.9704402,28.5048774 10.8661226,29.1294402 11.187,29.579 C11.5078774,30.0285598 12.1324402,30.1328774 12.582,29.812 L14.682,28.312 C14.9425694,28.1265334 15.2944695,28.1360776 15.5446028,28.3353954 C15.7947362,28.5347131 15.8826078,28.8755993 15.76,29.171 C15.2634186,30.324077 15.6352094,31.667348 16.654,32.401 C17.6564233,33.157043 19.0494438,33.1154727 20.005,32.301 L25.573,27.669 L28.607,35.559 L28.615,35.572 C28.623,35.591 28.636,35.606 28.645,35.625 C28.6874747,35.7150444 28.7430807,35.7982849 28.81,35.872 C28.82,35.882 28.824,35.897 28.834,35.907 L51.465,58.536 C52.726434,59.8081659 54.5721024,60.3082082 56.3032083,59.8468037 C58.0343142,59.3853992 59.3862572,58.0330737 59.8471721,56.3018374 C60.308087,54.570601 59.8075226,52.7250741 58.535,51.464 L35.908,28.837 L35.9,28.833 Z M29.923,33.406 L29.1,31.265 C29.9859066,30.7287499 30.7287499,29.9859066 31.265,29.1 L33.406,29.923 L29.923,33.406 Z M29.349,28.365 C29.0746341,28.743532 28.7418102,29.0760183 28.363,29.35 L27.748,27.75 L29.349,28.365 Z M57.119,57.122 C55.9315349,58.2539371 54.0644651,58.2539371 52.877,57.122 L30.958,35.2 L35.2,30.958 L57.12,52.878 C57.6831576,53.4405316 57.999672,54.2038102 57.9998596,54.9997928 C58.0000471,55.7957754 57.6838925,56.559203 57.121,57.122 L57.119,57.122 Z" id="Shape"/><path d="M34.494,34.494 C34.2079394,34.7799742 34.1223283,35.2101158 34.2770916,35.5838272 C34.4318549,35.9575387 34.7965103,36.2012135 35.201,36.2012135 C35.6054897,36.2012135 35.9701451,35.9575387 36.1249084,35.5838272 C36.2796717,35.2101158 36.1940606,34.7799742 35.908,34.494 C35.5175001,34.1036181 34.8844999,34.1036181 34.494,34.494 Z" id="Shape"/><path d="M38.737,40.151 C39.0229742,40.4370606 39.4531158,40.5226717 39.8268272,40.3679084 C40.2005387,40.2131451 40.4442135,39.8484897 40.4442135,39.444 C40.4442135,39.0395103 40.2005387,38.6748549 39.8268272,38.5200916 C39.4531158,38.3653283 39.0229742,38.4509394 38.737,38.737 C38.3466181,39.1274999 38.3466181,39.7605001 38.737,40.151 Z" id="Shape"/><path d="M35.908,38.736 C36.2984999,39.1263819 36.9315001,39.1263819 37.322,38.736 L38.736,37.322 C39.1149722,36.9296211 39.1095524,36.3059152 38.7238186,35.9201814 C38.3380848,35.5344476 37.7143789,35.5290278 37.322,35.908 L35.908,37.322 C35.5176181,37.7124999 35.5176181,38.3455001 35.908,38.736 Z" id="Shape"/><path d="M23,9 L29,9 C29.5522847,9 30,8.55228475 30,8 C30,7.44771525 29.5522847,7 29,7 L23,7 C22.4477153,7 22,7.44771525 22,8 C22,8.55228475 22.4477153,9 23,9 Z" id="Shape"/><path d="M23,12 L29,12 C29.5522847,12 30,11.5522847 30,11 C30,10.4477153 29.5522847,10 29,10 L23,10 C22.4477153,10 22,10.4477153 22,11 C22,11.5522847 22.4477153,12 23,12 Z" id="Shape"/></g></g></svg>
