<svg fill="#fff" id="Layer_5" enable-background="new 0 0 64 64" height="512" viewBox="0 0 64 64" width="512" xmlns="http://www.w3.org/2000/svg"><g><path d="m43 58h-2l-1.667-5h-14.666l-1.667 5h-2c-2.209 0-4 1.791-4 4h30c0-2.209-1.791-4-4-4z"/><path d="m21.624 29c.307 0 .565-.219.616-.521l.369-2.215c-.515.362-1.05.696-1.609.992v1.12c0 .344.28.624.624.624z"/><path d="m60 19h-31.875c-.539 1.519-1.313 2.924-2.283 4.174.673.281 1.182.887 1.309 1.648l.609 3.657c.051.302.309.521.616.521.344 0 .624-.28.624-.624v-7.376h2v7.376c0 1.447-1.177 2.624-2.624 2.624-1.288 0-2.377-.922-2.588-2.193l-.609-3.656c-.029-.175-.327-.175-.356 0l-.609 3.656c-.211 1.27-1.3 2.192-2.588 2.192-1.449.001-2.626-1.176-2.626-2.623v-.251c-.65.231-1.313.433-2 .573v3.302c0 .551.449 1 1 1h42c.551 0 1-.449 1-1v-12c0-.551-.449-1-1-1zm-15 9.376c0 1.447-1.177 2.624-2.624 2.624-1.288 0-2.377-.922-2.588-2.193l-.609-3.656c-.029-.175-.327-.175-.356 0l-.609 3.656c-.211 1.27-1.3 2.192-2.588 2.192-1.449.001-2.626-1.176-2.626-2.623v-7.376h2v7.376c0 .344.28.624.624.624.307 0 .565-.219.616-.521l.609-3.657c.177-1.056 1.081-1.822 2.151-1.822s1.974.766 2.151 1.821l.609 3.657c.051.303.309.522.616.522.344 0 .624-.28.624-.624v-7.376h2zm14 0c0 1.447-1.177 2.624-2.624 2.624-1.288 0-2.377-.922-2.588-2.193l-.609-3.656c-.029-.175-.327-.175-.356 0l-.609 3.656c-.211 1.27-1.3 2.192-2.588 2.192-1.449.001-2.626-1.176-2.626-2.623v-7.376h2v7.376c0 .344.28.624.624.624.307 0 .565-.219.616-.521l.609-3.657c.177-1.056 1.081-1.822 2.151-1.822s1.974.766 2.151 1.821l.609 3.657c.051.303.309.522.616.522.344 0 .624-.28.624-.624v-7.376h2z"/><path d="m55 43c0 1.103-.897 2-2 2h-42c-1.103 0-2-.897-2-2v-14.875c-.69-.245-1.361-.529-2-.868v20.743c0 1.654 1.346 3 3 3h44c1.654 0 3-1.346 3-3v-13h-2zm-42 6h-2v-2h2zm9 0h-7v-2h7z"/><path d="m14 29c-1.027 0-2.03-.105-3-.302v14.302h42v-8h-35c-1.654 0-3-1.346-3-3v-3.051c-.332.022-.662.051-1 .051zm35 10h2v2h-2zm-4 0h2v2h-2zm-4 0h2v2h-2z"/><path d="m27 14c0-7.168-5.832-13-13-13s-13 5.832-13 13 5.832 13 13 13 13-5.832 13-13zm-9.286 10.341c.488-.811.915-1.779 1.261-2.887.221-.147.445-.288.652-.453h2.852c-1.247 1.506-2.891 2.665-4.765 3.34zm6.072-5.341h-2.308-1.909c.225-1.237.364-2.581.409-4h4.971c-.129 1.43-.537 2.779-1.163 4zm0-10c.626 1.221 1.034 2.57 1.164 4h-4.971c-.046-1.419-.184-2.763-.409-4zm-1.307-2h-3.374c-.368-1.295-.838-2.422-1.391-3.341 1.874.675 3.518 1.834 4.765 3.341zm-8.479-4c1.075 0 2.22 1.527 3.009 4h-6.018c.789-2.473 1.934-4 3.009-4zm3.519 6c.244 1.209.408 2.553.46 4h-7.958c.052-1.447.217-2.791.46-4zm-7.233-5.341c-.553.919-1.023 2.046-1.391 3.341h-3.374c1.247-1.507 2.891-2.666 4.765-3.341zm-6.072 5.341h4.217c-.225 1.237-.364 2.581-.409 4h-4.971c.129-1.43.537-2.779 1.163-4zm0 10c-.626-1.221-1.034-2.57-1.164-4h4.971c.046 1.419.184 2.763.409 4zm1.307 2h3.374c.368 1.295.838 2.422 1.391 3.341-1.874-.675-3.518-1.834-4.765-3.341zm4.5-6h7.958c-.052 1.447-.217 2.791-.46 4h-.519-6.519c-.244-1.209-.408-2.553-.46-4zm.97 6h6.009v.031c-.789 2.456-1.93 3.969-3 3.969-1.075 0-2.22-1.527-3.009-4z"/></g></svg>