<svg height="480pt" viewBox="-4 0 480 480" width="480pt" xmlns="http://www.w3.org/2000/svg"><path  fill="#fff" d="m344 248c-20 0-38.398438 12.800781-45.601562 32h90.402343c-6.402343-19.199219-24.800781-32-44.800781-32zm0 0"/><path fill="#fff"  d="m350.398438 112.800781-6.398438-72.800781-6.398438 72.800781c4-.800781 8.796876-.800781 12.796876 0zm0 0"/><path fill="#fff"  d="m344 344c26.398438 0 48-21.601562 48-48h-96c0 26.398438 21.601562 48 48 48zm0 0"/><path fill="#fff"  d="m368 152c0 13.253906-10.746094 24-24 24s-24-10.746094-24-24 10.746094-24 24-24 24 10.746094 24 24zm0 0"/><path fill="#fff"  d="m336 191.199219v41.601562c5.601562-.800781 10.398438-.800781 16 0v-41.601562c-5.601562.800781-10.398438.800781-16 0zm0 0"/><path fill="#fff"  d="m352 375.199219 4-16.800781c-8 1.601562-16 1.601562-24 0l4 16.800781v1.601562l-7.199219 87.199219h-97.601562l-15.199219-336-15.199219 336h-89.601562l-7.199219-128.800781 4-16.800781c-8 1.601562-16 1.601562-24 0l4 16.800781-7.199219 128.800781h-80.800781v16h464v-16h-104.800781zm0 0"/><path fill="#fff"  d="m106.398438 208.800781-2.398438-8-8-104.800781-8 106.398438-2.398438 6.402343c7.199219-.800781 14.398438-.800781 20.796876 0zm0 0"/><path fill="#fff"  d="m136 264c0 22.089844-17.910156 40-40 40s-40-17.910156-40-40 17.910156-40 40-40 40 17.910156 40 40zm0 0"/><path fill="#fff"  d="m112 48h96v-16h-96c-4.800781 0-8-3.199219-8-8s3.199219-8 8-8h24v-16h-24c-13.601562 0-24 10.398438-24 24s10.398438 24 24 24zm0 0"/><path fill="#fff"  d="m168 80h80v-16h-80c-13.601562 0-24 10.398438-24 24s10.398438 24 24 24h24v-16h-24c-4.800781 0-8-3.199219-8-8s3.199219-8 8-8zm0 0"/><path fill="#fff"  d="m224 32h16v16h-16zm0 0"/><path fill="#fff"  d="m264 64h16v16h-16zm0 0"/><path fill="#fff"  d="m408 64c-13.601562 0-24 10.398438-24 24s10.398438 24 24 24h24v-16h-24c-4.800781 0-8-3.199219-8-8s3.199219-8 8-8h64v-16zm0 0"/><path fill="#fff"  d="m384 32h64v16h-64zm0 0"/></svg>