<svg fill="#fff" height="464pt" viewBox="0 0 464 464" width="464pt" xmlns="http://www.w3.org/2000/svg"><path d="m184 432h96c4.414062 0 8-3.585938 8-8v-8h-112v8c0 4.414062 3.585938 8 8 8zm0 0"/><path d="m184 96h96v16h-96zm0 0"/><path d="m280 128h-96v32.761719l48-25.851563 112 60.304688v6.664062c0 75.808594-41.464844 145.21875-108.207031 181.167969l-3.792969 2.042969-3.792969-2.042969c-66.742187-35.941406-108.207031-105.359375-108.207031-181.160156v-6.664063l16-8.613281v-58.609375h-88v272h368v-272h-88v16h-48zm0 0"/><path d="m432 128v272h16v-280c0-13.230469-10.769531-24-24-24h-96v16h88c8.824219 0 16 7.183594 16 16zm0 0"/><path d="m168 80c0-35.289062 28.710938-64 64-64s64 28.710938 64 64v48h16v-48c0-44.113281-35.886719-80-80-80s-80 35.886719-80 80v97.992188l16-8.617188zm0 0"/><path d="m32 128c0-8.824219 7.175781-16 16-16h88v-16h-96c-13.230469 0-24 10.769531-24 24v280h16zm0 0"/><path d="m304 416v8c0 13.230469-10.769531 24-24 24h-96c-13.230469 0-24-10.769531-24-24v-8h-160v24c0 13.230469 10.769531 24 24 24h416c13.230469 0 24-10.769531 24-24v-24zm0 0"/><path d="m232 366.863281c58.496094-33.222656 94.960938-94.757812 95.976562-162.09375l-95.976562-51.679687-95.976562 51.679687c1.015624 67.335938 37.480468 128.863281 95.976562 162.09375zm16-110.863281h-32c-17.648438 0-32-14.351562-32-32s14.351562-32 32-32h8v-16h16v16h8c17.648438 0 32 14.351562 32 32h-16c0-8.824219-7.175781-16-16-16h-32c-8.824219 0-16 7.175781-16 16s7.175781 16 16 16h32c17.648438 0 32 14.351562 32 32s-14.351562 32-32 32h-8v16h-16v-16h-8c-17.648438 0-32-14.351562-32-32h16c0 8.824219 7.175781 16 16 16h32c8.824219 0 16-7.175781 16-16s-7.175781-16-16-16zm0 0"/></svg>