<?xml version="1.0" encoding="iso-8859-1"?>
<!-- Generator: Adobe Illustrator 19.0.0, SVG Export Plug-In . SVG Version: 6.00 Build 0)  -->
<svg fill="#fff" version="1.1" id="Layer_1" xmlns="http://www.w3.org/2000/svg" xmlns:xlink="http://www.w3.org/1999/xlink" x="0px" y="0px"
	 viewBox="0 0 512 512" style="enable-background:new 0 0 512 512;" xml:space="preserve">
<g>
	<g>
		<path d="M462.581,276.109H50.755C23.092,276.109,0,298.534,0,326.196v133.565c0,27.662,23.092,50.087,50.755,50.087h411.826
			c27.662,0,49.419-22.424,49.419-50.087V326.196C512,298.534,490.243,276.109,462.581,276.109z M123.657,476.457H90.266
			c-9.217,0-16.807-7.473-16.807-16.696V326.196c0-9.223,7.59-16.696,16.807-16.696s16.696,7.473,16.696,16.696v116.87h16.696
			c9.217,0,16.696,7.473,16.696,16.696C140.353,468.984,132.874,476.457,123.657,476.457z M207.135,459.762
			c0,9.223-7.479,16.696-16.696,16.696c-9.217,0-16.807-7.473-16.807-16.696V326.196c0-9.223,7.59-16.696,16.807-16.696
			c9.217,0,16.696,7.473,16.696,16.696V459.762z M340.201,330.244L306.809,463.81c-1.859,7.435-8.533,12.646-16.196,12.646
			c-7.663,0-14.337-5.212-16.196-12.646l-33.391-133.565c-2.239-8.945,3.196-18.011,12.141-20.244
			c8.946-2.255,18.021,3.201,20.25,12.147l17.195,68.777l17.195-68.777c2.228-8.946,11.217-14.402,20.25-12.147
			C337.005,312.234,342.44,321.299,340.201,330.244z M424.179,376.283c9.217,0,16.696,7.473,16.696,16.696
			c0,9.223-7.479,16.696-16.696,16.696h-16.696v33.391h16.696c9.217,0,16.696,7.473,16.696,16.696
			c0,9.223-7.479,16.696-16.696,16.696h-33.391c-9.217,0-16.807-7.473-16.807-16.696V326.196c0-9.223,7.59-16.696,16.807-16.696
			h33.391c9.217,0,16.696,7.473,16.696,16.696c0,9.223-7.479,16.696-16.696,16.696h-16.696v33.391H424.179z"/>
	</g>
</g>
<g>
	<g>
		<path d="M272.696,23.364v113.192c24.199-1.105,47.771-4.618,70.512-10.27C327.017,73.893,301.616,34.543,272.696,23.364z"/>
	</g>
</g>
<g>
	<g>
		<path d="M351.636,158.602c-25.438,6.349-51.838,10.211-78.94,11.344v72.772h88.702
			C360.396,215.471,356.996,183.315,351.636,158.602z"/>
	</g>
</g>
<g>
	<g>
		<path d="M168.792,126.286c22.743,5.652,46.315,9.165,70.512,10.27V23.364C210.384,34.543,184.983,73.893,168.792,126.286z"/>
	</g>
</g>
<g>
	<g>
		<path d="M160.364,158.602c-5.36,24.712-8.76,56.869-9.761,84.116h88.702v-72.772C212.202,168.812,185.801,164.95,160.364,158.602z
			"/>
	</g>
</g>
<g>
	<g>
		<path d="M466.982,109.076c-25.867,16.407-53.749,29.875-83.203,39.972c6.192,27.522,10.019,62.807,11.043,93.67h116.575
			C508.331,195.395,492.38,145.976,466.982,109.076z"/>
	</g>
</g>
<g>
	<g>
		<path d="M45.018,109.076c-25.4,36.9-41.351,86.319-44.414,133.642h116.575c1.023-30.864,4.852-66.148,11.042-93.67
			C98.767,138.951,70.885,125.483,45.018,109.076z"/>
	</g>
</g>
<g>
	<g>
		<path d="M65.774,82.741c22.214,13.792,46.025,25.214,71.087,33.983c16.426-52.303,41.958-93.507,72.673-114.573
			C152.941,12.576,102.8,41.618,65.774,82.741z"/>
	</g>
</g>
<g>
	<g>
		<path d="M302.466,2.152c30.714,21.067,56.247,62.27,72.673,114.573c25.061-8.769,48.873-20.191,71.087-33.983
			C409.2,41.619,359.06,12.576,302.466,2.152z"/>
	</g>
</g>
<g>
</g>
<g>
</g>
<g>
</g>
<g>
</g>
<g>
</g>
<g>
</g>
<g>
</g>
<g>
</g>
<g>
</g>
<g>
</g>
<g>
</g>
<g>
</g>
<g>
</g>
<g>
</g>
<g>
</g>
</svg>
