<svg fill="#fff" height="464pt" viewBox="0 0 464 464" width="464pt" xmlns="http://www.w3.org/2000/svg"><path d="m88 224h-48v104h-16l40 64 40-64h-16zm0 0"/><path d="m424 224h-48v128h-16l40 64 40-64h-16zm0 0"/><path d="m0 176.808594v31.191406h31.191406c-3.191406-15.648438-15.542968-28-31.191406-31.191406zm0 0"/><path d="m31.191406 0h-31.191406v31.191406c15.648438-3.191406 28-15.542968 31.191406-31.191406zm0 0"/><path d="m432.808594 0c3.191406 15.648438 15.542968 28 31.191406 31.191406v-31.191406zm0 0"/><path d="m152 64h176c4.40625 0 8-3.59375 8-8v-16c0-4.40625-3.59375-8-8-8h-192c-4.40625 0-8 3.59375-8 8v16c0 4.40625 3.59375 8 8 8zm0 0"/><path d="m432.808594 208h31.191406v-31.191406c-15.648438 3.191406-28 15.542968-31.191406 31.191406zm0 0"/><path d="m416.640625 0h-369.28125c-3.519531 24.472656-22.886719 43.839844-47.359375 47.359375v113.28125c24.472656 3.519531 43.839844 22.886719 47.359375 47.359375h100.855469c-12.96875-18.03125-20.214844-39.742188-20.214844-62.480469v-66.886719c-9.3125-3.304687-16-12.199218-16-22.632812v-16c0-13.230469 10.769531-24 24-24h192c13.230469 0 24 10.769531 24 24v16c0 10.414062-6.710938 19.214844-16 22.527344v66.992187c0 22.738281-7.246094 44.449219-20.222656 62.480469h100.863281c3.527344-24.472656 22.886719-43.839844 47.359375-47.359375v-113.28125c-24.472656-3.519531-43.839844-22.886719-47.359375-47.359375zm0 0"/><path d="m176.832031 280.390625c-18.464843 15.386719-29.921875 37.167969-32.320312 60.792969 2.710937 1.273437 5.214843 2.601562 7.433593 3.871094 6.511719 3.730468 12.144532 6.945312 24 6.945312 11.871094 0 17.503907-3.214844 24.023438-6.945312 7.429688-4.246094 15.847656-9.054688 31.96875-9.054688 16.132812 0 24.550781 4.808594 31.984375 9.054688 6.527344 3.730468 12.167969 6.945312 24.046875 6.945312s17.519531-3.214844 24.046875-6.945312c2.222656-1.269532 4.753906-2.597657 7.472656-3.878907-2.398437-23.625-13.855469-45.40625-32.320312-60.792969-9.640625-8.03125-15.167969-19.832031-15.167969-32.382812s5.527344-24.351562 15.167969-32.390625c20.863281-17.386719 32.832031-42.9375 32.832031-70.089844v-65.519531h-176v65.519531c0 27.160157 11.96875 52.703125 32.832031 70.097657 9.640625 8.03125 15.167969 19.832031 15.167969 32.382812s-5.527344 24.351562-15.167969 32.390625zm63.167969 23.609375h-16v-16h16zm0-32h-16v-16h16zm0-32h-16v-16h16zm-8-80c-13.230469 0-24-10.769531-24-24 0-10.414062 6.710938-19.214844 16-22.527344v-17.472656h16v17.472656c9.289062 3.3125 16 12.113282 16 22.527344h-16c0-4.40625-3.59375-8-8-8s-8 3.59375-8 8 3.59375 8 8 8c13.230469 0 24 10.769531 24 24 0 10.414062-6.710938 19.214844-16 22.527344v17.472656h-16v-17.472656c-9.289062-3.3125-16-12.113282-16-22.527344h16c0 4.40625 3.59375 8 8 8s8-3.59375 8-8-3.59375-8-8-8zm0 0"/><path d="m328 432h-192c-4.40625 0-8 3.59375-8 8v16c0 4.40625 3.59375 8 8 8h192c4.40625 0 8-3.59375 8-8v-16c0-4.40625-3.59375-8-8-8zm0 0"/><path d="m144 358.945312v57.054688h176v-57.078125c-.015625.007813-.03125.015625-.046875.023437-7.433594 4.246094-15.847656 9.054688-31.984375 9.054688s-24.554688-4.808594-31.984375-9.054688c-6.527344-3.730468-12.160156-6.945312-24.046875-6.945312-11.875 0-17.503906 3.214844-24.027344 6.945312-7.421875 4.246094-15.847656 9.054688-31.964844 9.054688-16.113281 0-24.519531-4.816406-31.945312-9.054688zm0 0"/></svg>