<svg fill="#fff" id="Capa_1" enable-background="new 0 0 512 512" height="512" viewBox="0 0 512 512" width="512" xmlns="http://www.w3.org/2000/svg"><path d="m108.755 512c-2.911-11.201-.862-23.229 5.979-32.977l72.9-103.885-41.127-57.042c-1.995-2.768-5.053-4.152-8.111-4.152s-6.116 1.384-8.112 4.152l-128.378 178.056c-4.769 6.614-.042 15.848 8.112 15.848z"/><path d="m339.729 212.351v-52.351h125c5.447 0 10.467-2.954 13.112-7.715s2.501-10.584-.376-15.209l-26.18-42.076 26.18-42.076c2.878-4.625 3.022-10.447.376-15.209s-7.664-7.715-13.112-7.715h-125v-15c0-8.284-6.716-15-15-15s-15 6.716-15 15v197.351c8.573-9.413 21.229-9.602 30 0z"/><path d="m406.955 349.174-35.808 33.36c-2.88 2.683-6.552 4.025-10.225 4.025s-7.345-1.342-10.225-4.025l-25.972-24.196-25.967 24.195c-5.761 5.368-14.69 5.368-20.451 0l-35.803-33.359-103.213 147.082c-4.65 6.627.09 15.744 8.186 15.744h119.296 235.209c8.096 0 12.836-9.117 8.186-15.744z"/><path d="m288.533 351.057 25.966-24.195c5.76-5.367 14.689-5.368 20.45-.001l25.973 24.197 28.894-26.307-56.901-81.085c-1.991-2.837-5.088-4.256-8.186-4.256-3.097 0-6.195 1.419-8.186 4.256l-56.901 81.085z"/></svg>