<svg fill="#FFB338" id="Layer" enable-background="new 0 0 64 64" height="512" viewBox="0 0 64 64" width="512" xmlns="http://www.w3.org/2000/svg"><path d="m40.998 36.998c.521 0 1.041-.202 1.433-.604.771-.791.754-2.058-.037-2.828l-6.567-6.396c-1.561-1.56-4.098-1.559-5.638-.018l-6.586 6.415c-.791.771-.808 2.037-.037 2.828s2.038.808 2.828.037l6.624-6.415 6.585 6.415c.388.378.891.566 1.395.566z"/><path d="m35.716 51.809c-1.762.252-3.672.252-5.434 0-1.099-.16-2.107.603-2.263 1.697s.604 2.107 1.697 2.263c1.068.152 2.172.23 3.283.23s2.215-.078 3.283-.23c1.093-.156 1.853-1.169 1.697-2.263-.156-1.093-1.167-1.852-2.263-1.697z"/><path d="m22.088 53.38c.983.5 2.188.113 2.691-.87.503-.984.113-2.188-.87-2.691-6.73-3.44-10.911-10.269-10.911-17.819 0-11.028 8.972-20 20-20s20 8.972 20 20c0 7.551-4.181 14.378-10.911 17.819-.983.503-1.373 1.708-.87 2.691.354.692 1.055 1.09 1.782 1.09.307 0 .618-.071.909-.22 8.074-4.128 13.089-12.321 13.089-21.381 0-13.233-10.766-24-24-24s-24 10.767-24 24c.002 9.061 5.018 17.253 13.091 21.381z"/></svg>