<svg  height="512" viewBox="0 0 192 192" width="512" xmlns="http://www.w3.org/2000/svg"><path d="m168 72a24.027 24.027 0 0 0 -24 24v24h-8v-8a8 8 0 0 0 -8-8h-8v-32.2a24.129 24.129 0 0 0 20.883-20.41l3.428-24a24 24 0 0 0 -23.759-27.39h-49.1a24 24 0 0 0 -23.763 27.394l3.429 24a24.124 24.124 0 0 0 20.882 20.406v32.2h-8a8 8 0 0 0 -8 8v8h-8v-24a24.027 24.027 0 0 0 -24-24h-8v16h8a8.009 8.009 0 0 1 8 8v24a16.019 16.019 0 0 0 16 16h40v24h-24a16.019 16.019 0 0 0 -16 16v16h16v-16h24v16h16v-16h24v16h16v-16a16.019 16.019 0 0 0 -16-16h-24v-24h40a16.019 16.019 0 0 0 16-16v-24a8.009 8.009 0 0 1 8-8h8v-16zm-80 0h16v32h-16z"/></svg>