<svg id="Capa_1" enable-background="new 0 0 510 510" height="512" viewBox="0 0 510 510" width="512" xmlns="http://www.w3.org/2000/svg"><path  fill="#fff" d="m155.98 88.957c10.818-1.085 21.596-1.32 32.05-.75-5.8-16.75-15.19-32.27-27.85-45.5-5.73-5.98-15.22-6.19-21.21-.46-5.98 5.73-6.19 15.22-.47 21.21 7.29 7.62 13.16 16.23 17.48 25.5z"/><path  fill="#fff" d="m291.79 122.768c13.562 9.086 26.383 20.211 34.82 29.3 26.535-12.657 150.68 25.207 150.68 142.79 0 82.875-69.343 148.268-151.88 144.04-10.17 10.49-21.45 19.91-33.63 28.06 111.491 26.777 218.22-58.323 218.22-172.101 0-113.784-106.766-198.856-218.21-172.089z"/><path  fill="#fff" d="m350.29 407.807c18.62-2.8 36.16-10.15 51.24-21.49l-27.68-27.68c-5.69 17.52-13.66 34.03-23.56 49.17z"/><path  fill="#fff" d="m424.49 226.387-42.25 42.25c.55 4.29.96 8.62 1.24 12.98h63.05c-2.31-20.109-9.88-39.08-22.04-55.23z"/><path  fill="#fff" d="m350.32 181.967c10.39 15.89 18.65 33.29 24.37 51.8l28.98-28.98c-13.779-11.049-33.406-19.794-53.35-22.82z"/><path fill="#fff"  d="m446.08 311.617c-7.921 0-55.151 0-62.85 0-.34 4.23-.81 8.42-1.4 12.57l41.15 41.15c11.709-14.785 20.044-33.107 23.1-53.72z"/><path fill="#fff"  d="m353.89 296.988c0-98.147-73.708-169.858-159.47-178.22-.01-.01-.02 0-.02 0 .766 8.719.446 18.173-.57 25.87 0 0 0-.01.01-.01 14.534-1.919 28.905-.038 42.81 4.04 7.95 2.35 12.49 10.69 10.14 18.63-2.35 7.95-10.7 12.49-18.64 10.14-5.08-1.5-9.98-2.52-14.69-3.06 7.473 8.783 13.014 18.694 15.27 24.66 2.98 7.74-.88 16.41-8.61 19.39-7.666 2.945-16.335-.812-19.36-8.54-2.917-7.537-11.256-19.866-23.8-28.03-11.705 7.316-20.804 20.195-23.82 28.04-2.991 7.785-11.727 11.532-19.37 8.57-7.73-2.97-11.57-11.69-8.6-19.43.59-1.52 5.09-12.69 15.27-24.66-4.72.54-9.61 1.56-14.69 3.06-7.94 2.35-16.29-2.19-18.63-10.14-2.35-7.94 2.19-16.28 10.13-18.63 17.97-5.31 33.38-5.78 46.41-3.48.493-5.777 1.98-14.506.59-26.82-.01-.01-.02-.01-.03 0-91.65 6.539-164.22 83.2-164.22 176.489 0 97.58 79.38 176.96 176.95 176.96 96.818.001 175.748-78.058 176.94-174.829z"/></svg>