<?xml version="1.0" encoding="iso-8859-1"?>
<!-- Generator: Adobe Illustrator 19.0.0, SVG Export Plug-In . SVG Version: 6.00 Build 0)  -->
<svg version="1.1" id="Layer_1" xmlns="http://www.w3.org/2000/svg" xmlns:xlink="http://www.w3.org/1999/xlink" x="0px" y="0px"
	 viewBox="0 0 511.999 511.999" style="enable-background:new 0 0 511.999 511.999;" xml:space="preserve">
<g>
	<g>
		<rect x="277.027" y="389.273" width="14.166" height="15.208"/>
	</g>
</g>
<g>
	<g>
		<rect x="89.514" y="112.113" width="14.166" height="15.208"/>
	</g>
</g>
<g>
	<g>
		<rect x="217.159" y="57.963" width="14.166" height="15.208"/>
	</g>
</g>
<g>
	<g>
		<rect x="380.066" y="119.271" width="14.166" height="15.208"/>
	</g>
</g>
<g>
	<g>
		<rect x="196.77" y="425.924" width="14.166" height="15.208"/>
	</g>
</g>
<g>
	<g>
		<path d="M322.317,261.387l-15.202,0.447c0.513,17.416,7.014,34.315,18.306,47.587c11.163,13.119,26.559,22.214,43.354,25.609
			l3.014-14.907C343.509,314.407,323.166,290.254,322.317,261.387z"/>
	</g>
</g>
<g>
	<g>
		<path d="M70.517,261.387l-15.201,0.447c0.513,17.416,7.014,34.316,18.306,47.587c11.163,13.119,26.559,22.214,43.354,25.609
			l3.013-14.907C91.711,314.407,71.368,290.254,70.517,261.387z"/>
	</g>
</g>
<g>
	<g>
		<path d="M495.797,239.291H479.5c-10.166-44.965-50.437-78.644-98.43-78.644c-51.06,0-93.379,38.122-100.002,87.398
			c-5.73-2.349-13.771-4.07-25.067-4.07c-11.291,0-19.331,1.719-25.061,4.069c-6.624-49.276-48.942-87.397-100.002-87.397
			c-47.993,0-88.264,33.68-98.429,78.644H16.204C7.268,239.291,0,246.559,0,255.495v14.708c0,8.935,7.268,16.204,16.204,16.204
			h16.924c11.099,43.664,50.741,76.059,97.81,76.059c54.386,0,98.854-43.249,100.833-97.16c1.262-1.468,6.652-6.122,24.23-6.122
			c17.591,0,22.978,4.658,24.236,6.124c1.981,53.91,46.447,97.158,100.832,97.158c47.07,0,86.712-32.395,97.81-76.059h16.917
			c8.935,0,16.203-7.268,16.203-16.204v-14.708C512,246.559,504.732,239.291,495.797,239.291z M30.029,271.198H16.204
			c-0.55,0-0.996-0.446-0.996-0.996v-14.708c0-0.549,0.446-0.996,0.996-0.996h13.825V271.198z M130.937,347.257
			c-47.256,0-85.702-38.445-85.702-85.701c0-47.256,38.446-85.702,85.702-85.702c47.256,0,85.702,38.446,85.702,85.702
			C216.639,308.813,178.193,347.257,130.937,347.257z M466.764,261.829c-0.148,47.13-38.53,85.428-85.695,85.428
			c-47.255,0-85.701-38.445-85.701-85.701c0-47.256,38.446-85.702,85.701-85.702c47.165,0,85.547,38.299,85.695,85.428V261.829z
			 M496.792,270.203c0,0.55-0.446,0.996-0.995,0.996h-13.825v-9.096c0.001-0.182,0.007-0.363,0.007-0.545s-0.006-0.363-0.007-0.545
			V254.5h13.825c0.549,0,0.995,0.446,0.995,0.996V270.203z"/>
	</g>
</g>
<g>
	<g>
		<polygon points="295.204,112.118 295.204,94.883 279.996,94.883 279.996,112.118 262.76,112.118 262.76,127.326 279.996,127.326 
			279.996,144.562 295.204,144.562 295.204,127.326 312.44,127.326 312.44,112.118 		"/>
	</g>
</g>
<g>
	<g>
		<polygon points="115.225,426.467 115.225,414.107 100.017,414.107 100.017,426.467 87.657,426.467 87.657,441.675 
			100.017,441.675 100.017,454.036 115.225,454.036 115.225,441.675 127.586,441.675 127.586,426.467 		"/>
	</g>
</g>
<g>
	<g>
		<polygon points="426.083,381.631 426.083,373.12 410.875,373.12 410.875,381.631 402.364,381.631 402.364,396.839 
			410.875,396.839 410.875,405.35 426.083,405.35 426.083,396.839 434.595,396.839 434.595,381.631 		"/>
	</g>
</g>
<g>
</g>
<g>
</g>
<g>
</g>
<g>
</g>
<g>
</g>
<g>
</g>
<g>
</g>
<g>
</g>
<g>
</g>
<g>
</g>
<g>
</g>
<g>
</g>
<g>
</g>
<g>
</g>
<g>
</g>
</svg>
