<svg fill="#fff" height="475pt" viewBox="-43 0 475 475.148" width="475pt" xmlns="http://www.w3.org/2000/svg"><path d="m194.160156 337.84375c20.945313-.023438 37.914063-16.996094 37.9375-37.9375v-21.96875c0-20.953125-16.984375-37.9375-37.9375-37.9375s-37.9375 16.984375-37.9375 37.9375v21.96875c.027344 20.941406 16.996094 37.914062 37.9375 37.9375zm0 0"/><path d="m322.675781 352.226562c17.914063-.023437 32.433594-14.542968 32.457031-32.460937v-19.226563c.066407-11.640624-6.109374-22.421874-16.175781-28.261718-10.070312-5.839844-22.496093-5.839844-32.5625 0-10.070312 5.839844-16.242187 16.621094-16.179687 28.261718v19.226563c.019531 17.917969 14.539062 32.441406 32.460937 32.460937zm0 0"/><path d="m125.855469 385.703125-.027344.039063c-4.734375 7.109374-7.25 15.464843-7.234375 24.003906v65.402344h151.136719v-65.402344c-.023438-21.835938-16.234375-40.273438-37.890625-43.085938-9.253906 10.769532-22.753906 16.949219-36.953125 16.917969-14.195313-.03125-27.667969-6.273437-36.871094-17.085937-10.273437.933593-19.871094 5.511718-27.054687 12.90625-1.894532 1.941406-3.605469 4.050781-5.105469 6.304687zm0 0"/><path d="m388.074219 453.179688v-37.269532c-.019531-18.585937-13.710938-34.324218-32.117188-36.917968-8.191406 9.40625-20.0625 14.792968-32.535156 14.761718-.375 0-.75 0-1.128906-.015625-12.160157-.269531-23.636719-5.6875-31.574219-14.90625-5.441406.546875-10.691406 2.300781-15.371094 5.132813 4.199219 7.945312 6.386719 16.796875 6.382813 25.78125v43.433594zm0 0"/><path d="m.0742188 415.910156v37.269532h106.5195312v-43.433594c-.015625-8.953125 2.144531-17.777344 6.300781-25.707032-4.320312-2.632812-9.132812-4.347656-14.140625-5.046874-8.238281 9.410156-20.148437 14.792968-32.652344 14.761718-12.507812-.03125-24.390624-5.46875-32.582031-14.917968-18.945312 2.074218-33.324219 18.019531-33.4453122 37.074218zm0 0"/><path d="m65.472656 352.226562c17.917969-.019531 32.441406-14.542968 32.460938-32.460937v-19.226563c.0625-11.640624-6.109375-22.421874-16.179688-28.261718-10.066406-5.839844-22.492187-5.839844-32.5625 0-10.070312 5.839844-16.242187 16.621094-16.175781 28.261718v19.226563c.023437 17.917969 14.542969 32.4375 32.457031 32.460937zm0 0"/><path d="m278.074219 48.488281c-29.691407-13.039062-57.859375-29.300781-84-48.488281-26.140625 19.1875-54.308594 35.449219-84 48.488281v48.273438c0 23.039062 8.179687 43.398437 24.339843 60.757812v-.484375c0-3.3125 2.6875-6 6-6 3.316407 0 6 2.6875 6 6v5.5c0 1.714844-.734374 3.347656-2.019531 4.480469 2.363281 2 4.84375 3.953125 7.445313 5.851563 12.453125 9.023437 26.167968 16.164062 40.699218 21.203124 15.144532-5.066406 29.480469-12.292968 42.5625-21.453124 2.828126-2.011719 5.515626-4.074219 8.066407-6.1875-.929688-1.085938-1.441407-2.464844-1.4375-3.894532v-5.5c.03125-3.199218 2.574219-5.8125 5.773437-5.929687 3.203125-.121094 5.929688 2.292969 6.203125 5.484375 16.1875-17.164063 24.367188-37.207032 24.367188-59.828125zm-113.773438 114.050781c0 3.316407-2.6875 6-6 6s-6-2.683593-6-6v-5.5c0-3.3125 2.6875-6 6-6s6 2.6875 6 6zm17.886719 0c0 3.316407-2.6875 6-6 6s-6-2.683593-6-6v-5.5c0-3.3125 2.6875-6 6-6s6 2.6875 6 6zm-.078125-43.941406-20.378906-20.375c-1.550781-1.507812-2.167969-3.734375-1.617188-5.828125.550781-2.089843 2.183594-3.722656 4.277344-4.273437 2.089844-.550782 4.316406.066406 5.824219 1.617187l16.136718 16.132813 31.582032-31.582032c1.507812-1.546874 3.734375-2.167968 5.824218-1.617187 2.09375.550781 3.726563 2.183594 4.277344 4.277344.550782 2.089843-.066406 4.316406-1.617187 5.824219l-35.824219 35.824218c-2.34375 2.34375-6.144531 2.34375-8.484375 0zm17.964844 43.941406c0 3.316407-2.6875 6-6 6s-6-2.683593-6-6v-5.5c0-3.3125 2.6875-6 6-6s6 2.6875 6 6zm17.886719 0c0 3.316407-2.6875 6-6 6s-6-2.683593-6-6v-5.5c0-3.3125 2.6875-6 6-6s6 2.6875 6 6zm17.886718 0c0 3.316407-2.6875 6-6 6s-6-2.683593-6-6v-5.5c0-3.3125 2.6875-6 6-6s6 2.6875 6 6zm0 0"/></svg>