<svg fill="#fff" height="618pt" viewBox="-32 -19 618 618.66669" width="618pt" xmlns="http://www.w3.org/2000/svg"><path d="m399.5 120h-20v-70c0-16.566406-13.433594-30-30-30h-40c-16.566406 0-30 13.433594-30 30v70h-20v-70c.035156-27.601562 22.398438-49.9648438 50-50h40c27.601562.0351562 49.964844 22.398438 50 50zm0 0"/><path d="m119.5 550 268.550781.199219 166.128907-166.117188-7.066407-7.132812c-11.769531-11.644531-30.722656-11.621094-42.460937.050781l-108.003906 110c-1.894532 1.882812-4.46875 2.925781-7.136719 2.902344v.097656h-160.011719v-20h150c0-16.566406-13.433594-30-30-30h-73.5c-4.253906 0-8.042969-2.695312-9.4375-6.710938-7.011719-19.972656-25.890625-33.332031-47.0625-33.289062h-50c-27.601562.035156-49.964844 22.398438-50 50zm0 0"/><path d="m99.5 580v-200h-100v200zm-40-180h20v20h-20zm0 0"/><path d="m229.929688 120 9.160156 220h180.820312l9.160156-220h-29.570312v50h-20v-50h-100v50h-20v-50zm0 0"/></svg>