<svg fill="#fff" height="511pt" viewBox="1 -48 511.99998 511" width="511pt" xmlns="http://www.w3.org/2000/svg"><path d="m338.820312 74.121094c0-25.414063 20.601563-46.011719 46.011719-46.011719 25.414063 0 46.011719 20.597656 46.011719 46.011719v9.199218h-92.023438zm-147.238281 0v-9.203125c0-35.578125 28.839844-64.417969 64.417969-64.417969s64.417969 28.839844 64.417969 64.417969v18.402343h-36.8125c-5.082031 0-9.199219 4.121094-9.199219 9.203126v27.605468h-36.8125v-27.605468c0-5.082032-4.117188-9.203126-9.203125-9.203126h-36.808594zm128.835938 27.605468v18.402344h-27.609375v-18.402344zm-128.835938 0h27.609375v18.402344h-27.609375zm-110.425781-27.605468c0-25.414063 20.597656-46.011719 46.011719-46.011719 25.410156 0 46.011719 20.597656 46.011719 46.011719v9.199218h-92.023438zm15.191406 285.269531h-96.347656l42.9375-257.664063h19.8125v18.402344h18.40625v-18.402344h92.023438v18.402344h-46.011719c-4.761719-.019531-8.753907 3.597656-9.203125 8.339844zm13.335938 55.214844 25.859375-276.070313h37.636719v36.808594h18.402343v-36.808594h128.832031v36.808594h18.40625v-36.808594h37.636719l25.859375 276.070313zm305.984375-55.214844-21.632813-230.929687c-.453125-4.738282-4.441406-8.351563-9.203125-8.328126h-46.011719v-18.40625h92.023438v18.40625h18.40625v-18.40625h19.8125l42.9375 257.664063zm0 0"/></svg>