<svg viewBox="0 -75 512 511" xmlns="http://www.w3.org/2000/svg"><path d="m512 301.25v-300.75h-512v300.75h241v30h-80.59375v30h191.1875v-30h-80.59375v-30zm-365.371094-178.523438c29.765625-27.226562 68.789063-42.578124 109.371094-42.578124s79.605469 15.351562 109.371094 42.578124l-18.828125 23.457032c-24.4375-23.019532-56.832031-36.03125-90.542969-36.03125s-66.105469 13.011718-90.542969 36.03125zm30.25 37.683594c21.917969-19.289062 49.691406-29.816406 79.121094-29.816406s57.203125 10.527344 79.121094 29.816406l-18.8125 23.4375c-16.59375-15.027344-37.804688-23.253906-60.308594-23.253906s-43.714844 8.226562-60.308594 23.253906zm30.339844 37.792969c13.792969-11.070313 31.117188-17.167969 48.78125-17.167969s34.988281 6.097656 48.78125 17.167969l-18.777344 23.398437c-8.609375-6.910156-18.984375-10.566406-30.003906-10.566406s-21.394531 3.65625-30.003906 10.566406zm0 0"/></svg>