<svg height="464pt" fill="#fff" viewBox="0 0 464 464" width="464pt" xmlns="http://www.w3.org/2000/svg"><path d="m208.34375 306.734375c-.222656-1.382813-.34375-2.78125-.34375-4.183594v-5.109375c0-14.027344 11.414062-25.441406 25.449219-25.441406h21.230469l14.328124 78.832031c.417969 2.257813 1.488282 4.246094 2.992188 5.800781v-141.441406c-16.519531-3.367187-29.191406-17-31.464844-33.886718-19.136718-6.542969-32.535156-24.640626-32.535156-45.304688 0-16.496094 8.585938-31.320312 21.742188-40h-197.742188v253.367188c3.777344 6.417968 7.855469 12.632812 12.214844 18.632812h174.34375zm-160.34375-130.734375h112v16h-112zm144 136c0 13.230469-10.769531 24-24 24h-96c-13.230469 0-24-10.769531-24-24v-48c0-13.230469 10.769531-24 24-24h53.335938l42.664062-32v32c13.230469 0 24 10.769531 24 24zm0-120h-16v-16h16zm0-32h-144v-16h144zm0-32h-144v-16h144zm0 0"/><path d="m16 316.496094v-168.984375c-10.464844 26.785156-16 55.449219-16 84.488281 0 29.808594 5.710938 58.289062 16 84.496094zm0 0"/><path d="m264 59.472656v-3.472656c0-13.230469-10.769531-24-24-24h-184c-13.230469 0-24 10.769531-24 24v24h211.511719c4.039062-9.160156 11.328125-16.496094 20.488281-20.527344zm-160 4.527344h-16v-16h16zm72 0h-56v-16h56zm32 0h-16v-16h16zm0 0"/><path d="m256 176c0 10.414062 6.710938 19.214844 16 22.527344v-14.527344c0-13.230469 10.769531-24 24-24 2.816406 0 5.488281.574219 8 1.472656v-65.472656c0-13.230469-10.769531-24-24-24s-24 10.769531-24 24c.03125-.246094.054688.128906.078125.566406l.1875 6.746094-6.609375 1.328125c-14.863281 2.992187-25.65625 16.183594-25.65625 31.359375 0 12.3125 7.167969 23.222656 17.777344 28.542969 3.941406-13.160157 14.398437-23.71875 28.230468-27.277344l3.984376 15.503906c-10.59375 2.71875-17.992188 12.269531-17.992188 23.230469zm0 0"/><path d="m168 256h-16v-16l-21.335938 16h-58.664062c-4.414062 0-8 3.585938-8 8v48c0 4.414062 3.585938 8 8 8h96c4.414062 0 8-3.585938 8-8v-48c0-4.414062-3.585938-8-8-8zm0 0"/><path d="m392 272c-4.414062 0-8 3.585938-8 8v56h-16v-72c0-4.414062-3.585938-8-8-8s-8 3.585938-8 8v72h-16v-88c0-4.414062-3.585938-8-8-8s-8 3.585938-8 8v88h-16v-152c0-4.414062-3.585938-8-8-8s-8 3.585938-8 8v192h-8c-13.144531 0-24.382812-9.382812-26.734375-22.3125l-11.945313-65.6875h-7.871093c-5.21875 0-9.449219 4.230469-9.449219 9.449219v5.109375c0 .519531.039062 1.050781.128906 1.5625l14.398438 86.351562c.671875 4.039063 2.375 7.855469 4.921875 11.039063l19.789062 24.726562c5.640625 7.066407 8.761719 15.9375 8.761719 24.984375v12.777344h96v-12.777344c0-9.046875 3.121094-17.917968 8.769531-24.992187l17.964844-22.46875c3.402344-4.242188 5.265625-9.5625 5.265625-14.984375v-108.777344c0-4.414062-3.585938-8-8-8zm0 0"/><path d="m232 448h-84.496094c26.199219 10.289062 54.6875 16 84.496094 16h24v-12.777344c0-3.390625-.808594-6.703125-2.175781-9.765625-6.441407 4.199219-13.992188 6.542969-21.824219 6.542969zm0 0"/><path d="m464 232c0-127.921875-104.078125-232-232-232-29.039062 0-57.703125 5.535156-84.496094 16h92.496094c22.054688 0 40 17.945312 40 40 13.070312 0 24.695312 6.304688 32 16.023438 7.304688-9.71875 18.929688-16.023438 32-16.023438 20.230469 0 37.007812 15.105469 39.640625 34.625 19.078125 6.566406 32.359375 24.75 32.359375 45.375 0 20.664062-13.398438 38.761719-32.535156 45.304688-2.625 19.527343-19.226563 34.695312-39.464844 34.695312-9.039062 0-17.296875-3.128906-24-8.207031v17.679687c2.511719-.898437 5.183594-1.472656 8-1.472656 11.0625 0 20.3125 7.558594 23.070312 17.761719 2.769532-1.113281 5.769532-1.761719 8.929688-1.761719 11.0625 0 20.3125 7.558594 23.070312 17.761719 2.769532-1.113281 5.769532-1.761719 8.929688-1.761719 13.230469 0 24 10.769531 24 24v93.304688c31.089844-40.382813 48-89.769532 48-141.304688zm0 0"/><path d="m344 72c-13.230469 0-24 10.769531-24 24v80c0 13.230469 10.769531 24 24 24s24-10.769531 24-24-10.769531-24-24-24h-8v-16h8c18.0625 0 33.183594 12.113281 38.136719 28.585938 10.664062-5.304688 17.863281-16.242188 17.863281-28.585938 0-15.175781-10.792969-28.367188-25.65625-31.359375l-6.609375-1.328125.304687-8.015625c-.039062-12.527344-10.808593-23.296875-24.039062-23.296875zm0 0"/><path d="m244.441406 428.367188-13.488281-16.863282c-4.25-5.3125-7.089844-11.679687-8.210937-18.414062l-1.519532-9.089844h-164.269531c16.472656 18.945312 35.933594 35.191406 57.679687 48h117.367188c4.457031 0 8.71875-1.351562 12.441406-3.632812zm-68.441406-12.367188h-56v-16h56zm0 0"/></svg>