<svg fill="#041725"  height="447pt" viewBox="0 0 447 447.98991" width="447pt" xmlns="http://www.w3.org/2000/svg"><path d="m249.042969 402.078125c-2.871094-1.320313-5.71875-2.761719-8.535157-4.28125l-2.519531-1.390625c-3.199219-1.808594-6.402343-3.695312-9.449219-5.761719-21.132812-14.074219-38.414062-33.207031-50.28125-55.65625-5.898437.644531-11.824218.980469-17.757812 1-28.203125.234375-56.015625-6.609375-80.886719-19.902343-12.082031 29.5625-8.621093 63.199218 9.226563 89.683593 17.847656 26.480469 47.726562 42.316407 79.660156 42.21875 33.25.128907 64.167969-17.066406 81.597656-45.382812-.359375-.160157-.703125-.367188-1.054687-.527344zm-80.542969 29.910156c-44.164062-.046875-79.953125-35.835937-80-80h16c.039062 35.332031 28.667969 63.960938 64 64 9.871094.027344 19.617188-2.257812 28.449219-6.671875l7.132812 14.320313c-11.042969 5.527343-23.230469 8.386719-35.582031 8.351562zm0 0"/><path d="m98.476562 271.878906c10.015626 5.609375 20.765626 9.808594 31.933594 12.46875h.089844c23.25 5.617188 47.609375 4.597656 70.3125-2.941406h.054688c10.894531-3.597656 21.242187-8.683594 30.746093-15.113281 47.671875-31.898438 68.304688-91.617188 50.488281-146.144531-17.820312-54.523438-69.734374-90.535157-127.046874-88.125-57.3125 2.410156-106.019532 42.652343-119.199219 98.480468-13.175781 55.828125 12.394531 113.605469 62.582031 141.390625zm20.367188-161.546875 36-36c2.289062-2.285156 5.726562-2.96875 8.71875-1.730469 2.988281 1.234376 4.9375 4.152344 4.9375 7.386719v152h24c4.417969 0 8 3.582031 8 8s-3.582031 8-8 8h-64c-4.417969 0-8-3.582031-8-8s3.582031-8 8-8h24v-132.6875l-22.34375 22.34375c-3.140625 3.03125-8.128906 2.988281-11.214844-.097656-3.085937-3.085937-3.128906-8.074219-.097656-11.214844zm0 0"/><path d="m333.875 129.789062c11.738281 67.148438-16.421875 135.023438-72.246094 174.144532h-.042968c-9.140626 6.515625-18.910157 12.101562-29.167969 16.671875-3.542969 1.601562-7.125 3.007812-10.734375 4.351562-1.121094.417969-2.238282.800781-3.351563 1.175781-2.601562.902344-5.214843 1.746094-7.832031 2.527344-1.191406.351563-2.402344.714844-3.59375 1.042969-2.933594.796875-5.894531 1.511719-8.855469 2.15625-.800781.160156-1.527343.371094-2.296875.523437l-.558594.125c.199219.34375.425782.679688.632813 1.027344 2.28125 3.828125 4.742187 7.535156 7.382813 11.125.257812.34375.488281.714844.753906 1.058594 2.753906 3.628906 5.691406 7.121094 8.796875 10.453125.59375.648437 1.1875 1.296875 1.792969 1.929687 3.097656 3.199219 6.335937 6.296876 9.738281 9.207032.613281.519531 1.246093 1.015625 1.871093 1.527344 3.597657 3.011718 7.351563 5.828124 11.246094 8.441406 8.390625 5.621094 17.402344 10.253906 26.859375 13.808594 15.390625 5.910156 31.742188 8.929687 48.230469 8.902343 70.929688.011719 129.945312-54.511719 135.539062-125.222656 5.59375-70.707031-44.113281-133.832031-114.164062-144.976563zm-74.449219 242.121094-13.855469-8 16-27.714844 13.855469 8zm61.074219 12.078125h-16v-32h16zm91.917969-186.925781 8 13.855469-27.710938 16-8-13.855469zm-46.847657 174.847656-16-27.714844 13.855469-8 16 27.714844zm-2.144531-180.128906-13.855469-8 16-27.710938 13.855469 8zm48.992188 139.136719-27.710938-16 8-13.855469 27.710938 16zm-11.917969-58.929688v-16h32v16zm0 0"/><path d="m79.738281 298.125c24.480469 14.378906 52.371094 21.929688 80.761719 21.863281 7.023438.019531 14.042969-.457031 21-1.414062l.304688-.039063c3.730468-.480468 7.453124-1.101562 11.160156-1.859375 11.324218-2.328125 22.363281-5.894531 32.910156-10.628906 9.296875-4.148437 18.160156-9.214844 26.449219-15.121094 42.703125-29.929687 68.144531-78.789062 68.175781-130.9375.027344-12.667969-1.480469-25.292969-4.488281-37.597656-17.113281-70.757813-79.828125-121.042969-152.609375-122.3632812-72.785156-1.3242188-137.285156 46.6523442-156.957032 116.7382812-19.667968 70.089844 10.453126 144.617187 73.292969 181.359375zm80.761719-282.136719c63.40625-.03125 119.363281 41.433594 137.792969 102.101563 18.429687 60.667968-5.011719 126.25-57.722657 161.492187-10.707031 7.238281-22.363281 12.96875-34.640624 17.023438h-.046876c-14.625 4.910156-29.953124 7.40625-45.382812 7.382812-11.382812.027344-22.722656-1.335937-33.777344-4.054687h-.0625c-12.558594-3.003906-24.644531-7.726563-35.914062-14.03125-57.449219-31.785156-86.113282-98.414063-69.683594-161.980469 16.425781-63.566406 73.78125-107.960937 139.4375-107.933594zm0 0"/></svg>