<svg fill="#fff" height="512pt" viewBox="-33 0 512 512.001" width="512pt" xmlns="http://www.w3.org/2000/svg"><path d="m301.289062 60c0-33.089844-26.910156-60-60-60-33.089843 0-60 26.910156-60 60s26.910157 60 60 60c33.089844 0 60-26.910156 60-60zm0 0"/><path d="m166.289062 240h150c8.289063 0 15-6.710938 15-15v-15c0-49.628906-40.371093-90-90-90-49.628906 0-90 40.371094-90 90v15c0 8.289062 6.707032 15 15 15zm0 0"/><path d="m444.816406 247.234375c-2.710937-4.480469-7.574218-7.234375-12.832031-7.234375-26.445313 0-50.703125 14.675781-62.976563 38.09375l-46.007812 87.796875c-7.796875 14.867187-23.058594 24.109375-39.859375 24.109375h-101.851563c-8.292968 0-15-6.710938-15-15s6.707032-15 15-15h101.851563c5.59375 0 10.691406-3.074219 13.285156-8.027344l27.238281-51.972656h-177.515624c-20.039063 0-38.878907 7.808594-53.042969 21.972656l-88.710938 88.710938c-5.859375 5.859375-5.859375 15.351562 0 21.210937l75 75.710938c2.929688 2.929687 6.769531 4.394531 10.605469 4.394531s7.675781-1.464844 10.605469-4.394531l56.894531-57.605469h125.640625c39.199219 0 74.839844-21.5625 93.003906-56.265625l69.109375-131.761719c2.445313-4.644531 2.285156-10.238281-.4375-14.738281zm0 0"/></svg>