<svg fill="#FFB338"  height="464pt" viewBox="0 -44 464 464" width="464pt" xmlns="http://www.w3.org/2000/svg"><path d="m59.199219 147.074219c-34.175781 10.316406-55.632813 44.121093-50.421875 79.441406 5.214844 35.316406 35.519531 61.484375 71.222656 61.488281h280c49.039062-.046875 90.160156-37.046875 95.367188-85.808594 5.210937-48.761718-27.171876-93.609374-75.09375-104.007812-3.171876-.683594-5.617188-3.210938-6.195313-6.402344-8.589844-46.984375-46.054687-83.34375-93.277344-90.515625-47.226562-7.175781-93.796875 16.414063-115.953125 58.734375-1.429687 2.808594-4.40625 4.488282-7.550781 4.261719l-1.601563-.105469c-1.207031-.070312-2.4375-.15625-3.695312-.15625-44.085938.097656-81.3125 32.757813-87.152344 76.453125-.414062 3.125-2.625 5.71875-5.648437 6.617188zm0 0"/><path d="m464 344.003906h-209.472656c-2.40625-6.785156-7.742188-12.121094-14.527344-14.53125v-25.46875h-16v25.46875c-6.785156 2.410156-12.121094 7.746094-14.527344 14.53125h-209.472656v16h209.472656c3.339844 9.582032 12.378906 16.003906 22.527344 16.003906s19.1875-6.421874 22.527344-16.003906h209.472656zm0 0"/><path d="m280 320.003906h16v16h-16zm0 0"/><path d="m312 320.003906h16v16h-16zm0 0"/><path d="m344 320.003906h16v16h-16zm0 0"/><path d="m376 320.003906h16v16h-16zm0 0"/><path d="m408 320.003906h16v16h-16zm0 0"/><path d="m168 320.003906h16v16h-16zm0 0"/><path d="m136 320.003906h16v16h-16zm0 0"/><path d="m104 320.003906h16v16h-16zm0 0"/><path d="m72 320.003906h16v16h-16zm0 0"/><path d="m40 320.003906h16v16h-16zm0 0"/></svg>