<svg fill="#fff" height="416pt" viewBox="1 -60 416.852 416" width="416pt" xmlns="http://www.w3.org/2000/svg"><path d="m392.941406 297.160156h-304.730468c-13.265626 0-24.058594-10.792968-24.058594-24.058594v-112.269531h16.039062v112.269531c0 4.425782 3.597656 8.019532 8.019532 8.019532h304.730468c4.425782 0 8.019532-3.59375 8.019532-8.019532v-184.441406c0-4.421875-3.59375-8.019531-8.019532-8.019531h-232.554687v-16.039063h232.554687c13.265625 0 24.058594 10.792969 24.058594 24.058594v184.441406c0 13.265626-10.789062 24.058594-24.058594 24.058594zm0 0"/><path d="m160.386719 144.792969h224.535156v16.039062h-224.535156zm0 0"/><path d="m168.402344 112.714844h80.195312v16.039062h-80.195312zm0 0"/><path d="m264.636719 112.714844h96.230469v16.039062h-96.230469zm0 0"/><path d="m317.761719 265.082031c-23.765625 0-43.101563-19.335937-43.101563-43.101562 0-23.769531 19.335938-43.105469 43.101563-43.105469 23.769531 0 43.105469 19.335938 43.105469 43.105469 0 23.765625-19.335938 43.101562-43.105469 43.101562zm0-70.167969c-14.925781 0-27.0625 12.136719-27.0625 27.0625 0 14.925782 12.136719 27.066407 27.0625 27.066407s27.066406-12.140625 27.066406-27.066407c0-14.925781-12.140625-27.0625-27.066406-27.0625zm0 0"/><path d="m267.59375 265.066406c-11.222656 0-22.441406-4.339844-30.878906-12.992187-16.59375-17.011719-16.257813-44.355469.761718-60.960938 8.246094-8.042969 19.011719-12.222656 30.644532-12.246093 11.511718.140624 22.277344 4.761718 30.320312 13.007812 3.046875 3.125 3.039063 8.105469-.015625 11.214844-4.988281 5.074218-7.730469 11.785156-7.730469 18.886718 0 7.109376 2.742188 13.816407 7.722657 18.875 3.046875 3.09375 3.070312 8.058594.0625 11.183594l-.835938.835938c-8.347656 8.140625-19.203125 12.195312-30.050781 12.195312zm-.015625-70.152344c-6.820313 0-13.648437 2.550782-18.902344 7.683594-10.683593 10.421875-10.902343 27.597656-.480469 38.277344 8.90625 9.132812 22.757813 10.613281 33.269532 4.339844-4.425782-6.867188-6.808594-14.871094-6.808594-23.234375 0-8.359375 2.382812-16.371094 6.816406-23.246094-4.261718-2.542969-9.078125-3.820313-13.894531-3.820313zm0 0"/><path d="m2.347656 139.121094 136.328125-136.324219 11.335938 11.339844-136.324219 136.324219zm0 0"/><path d="m32.078125 64.601562c-17.6875 0-32.078125-14.390624-32.078125-32.078124 0-17.683594 14.390625-32.074219 32.078125-32.074219s32.078125 14.386719 32.078125 32.074219-14.394531 32.078124-32.078125 32.078124zm0-48.117187c-8.847656 0-16.039063 7.195313-16.039063 16.039063 0 8.847656 7.191407 16.039062 16.039063 16.039062 8.84375 0 16.039063-7.191406 16.039063-16.039062 0-8.84375-7.195313-16.039063-16.039063-16.039063zm0 0"/><path d="m120.289062 152.8125c-17.6875 0-32.078124-14.390625-32.078124-32.078125s14.390624-32.078125 32.078124-32.078125 32.078126 14.390625 32.078126 32.078125-14.390626 32.078125-32.078126 32.078125zm0-48.113281c-8.84375 0-16.039062 7.191406-16.039062 16.035156 0 8.847656 7.191406 16.039063 16.039062 16.039063 8.847657 0 16.039063-7.191407 16.039063-16.039063 0-8.84375-7.195313-16.035156-16.039063-16.035156zm0 0"/><path d="m96.230469 249.042969h24.058593v16.039062h-24.058593zm0 0"/><path d="m136.328125 249.042969h24.058594v16.039062h-24.058594zm0 0"/><path d="m176.421875 249.042969h24.058594v16.039062h-24.058594zm0 0"/><path d="m96.230469 176.871094h16.039062v16.039062h-16.039062zm0 0"/><path d="m128.308594 176.871094h16.039062v16.039062h-16.039062zm0 0"/><path d="m96.230469 208.949219h48.117187v16.035156h-48.117187zm0 0"/></svg>