<svg fill="#fff" height="512pt" viewBox="0 0 512 512" width="512pt" xmlns="http://www.w3.org/2000/svg"><path d="m149.683594 181.988281c-8.382813 3.847657-17.667969 5.984375-27.382813 5.984375-30.917969 0-57.949219-21.941406-64.277343-52.167968l29.367187-6.144532c3.429687 16.402344 18.113281 28.3125 34.910156 28.3125 17.167969 0 31.914063-12.21875 35.0625-29.054687l27.164063 5.078125c9.296875-4.902344 19.875-7.691406 31.09375-7.691406 10.203125 0 19.878906 2.304687 28.539062 6.410156.289063-3.449219.445313-6.917969.445313-10.414063-.003907-67.4375-54.867188-122.300781-122.304688-122.300781s-122.300781 54.863281-122.300781 122.300781 54.863281 122.300781 122.300781 122.300781c8.949219 0 17.804688-.984374 26.421875-2.890624v-48.507813c0-3.820313.339844-7.5625.960938-11.214844zm4.015625-104.429687c8.410156 0 14.636719 6.875 15 15 .363281 8.101562-7.152344 15-15 15-8.410157 0-14.636719-6.871094-15-15-.363281-8.097656 7.152343-15 15-15zm-65.199219 0c8.410156 0 14.636719 6.875 15 15 .363281 8.101562-7.152344 15-15 15-8.40625 0-14.636719-6.871094-15-15-.359375-8.097656 7.15625-15 15-15zm0 0"/><path d="m307.710938 250.761719c-4.816407 0-9.425782.914062-13.667969 2.558593-6.707031-10.695312-18.597657-17.824218-32.125-17.824218-2.707031 0-5.351563.289062-7.898438.832031v-42.398437c0-20.898438-17-37.898438-37.898437-37.898438-20.898438 0-37.898438 17-37.898438 37.898438v126.277343l-.183594-.179687c-6.257812-6.089844-14.507812-9.492188-23.238281-9.585938-10.886719-.101562-21.28125 5.085938-27.710937 13.917969-6.429688 8.832031-8.199219 20.289063-4.734375 30.648437l13.023437 38.914063c7.039063 21.046875 18.304688 39.933594 33.476563 56.132813l29.210937 31.183593v30.761719h153.804688v-29.414062l39.535156-69.839844v-93.558594c0-20.894531-17-37.898438-37.898438-37.898438-2.90625 0-5.730468.34375-8.449218.964844-3.054688-17.855468-18.632813-31.492187-37.347656-31.492187zm0 0"/><path d="m512 122.300781c0-67.4375-54.863281-122.300781-122.300781-122.300781s-122.300781 54.863281-122.300781 122.300781c0 10.199219 1.261718 20.109375 3.625 29.589844 2.734374 10.957031 6.945312 21.335937 12.417968 30.910156 8.203125 14.351563 19.230469 26.886719 32.316406 36.851563 12.289063 9.351562 26.386719 16.4375 41.675782 20.621094 10.28125 2.816406 21.097656 4.328124 32.265625 4.328124 67.4375 0 122.300781-54.863281 122.300781-122.300781zm-90.507812-48.460937c8.410156 0 14.636718 6.875 15 15 .363281 8.101562-7.152344 15-15 15-8.410157 0-14.636719-6.871094-15-15-.363282-8.101563 7.152343-15 15-15zm-65.195313 0c8.40625 0 14.632813 6.875 15 15 .359375 8.101562-7.15625 15-15 15-8.410156 0-14.636719-6.871094-15-15-.363281-8.101563 7.152344-15 15-15zm-1.054687 101.171875-29.488282-5.519531c5.804688-31.019532 32.953125-53.535157 64.550782-53.535157 30.917968 0 57.953124 21.9375 64.277343 52.164063l-29.363281 6.148437c-3.433594-16.40625-18.117188-28.3125-34.914062-28.3125-17.164063 0-31.910157 12.21875-35.0625 29.054688zm0 0"/></svg>