<?xml version="1.0" encoding="iso-8859-1"?>
<!-- Generator: Adobe Illustrator 19.0.0, SVG Export Plug-In . SVG Version: 6.00 Build 0)  -->
<svg fill="#fff" version="1.1" id="Capa_1" xmlns="http://www.w3.org/2000/svg" xmlns:xlink="http://www.w3.org/1999/xlink" x="0px" y="0px"
	 viewBox="0 0 496 496" style="enable-background:new 0 0 496 496;" xml:space="preserve">
<g>
	<g>
		<g>
			<path d="M447.82,390.192c-5.376-32.232-27.976-58.68-58.976-69.016l-8.216-2.736c10.864-7.44,17.576-17.32,18.032-18.008
				l4.192-6.296l-6.04-4.536c-9.944-7.464-17.832-17.424-22.792-28.808l-14.672,6.408c4.968,11.368,12.312,21.576,21.472,29.912
				c-5.048,5.512-13.928,12.96-23.808,13.456l-37.008-12.336V288h-16v15.032l-11.936,47.744L259.756,312h-23.504l-32.312,38.776
				l-11.936-47.744V288h-16v10.232L139.02,310.56c-9.976-0.296-18.808-7.896-23.848-13.432
				c18.184-16.568,28.832-40.344,28.832-65.128h-16c0,22.536-10.768,44.072-28.808,57.6l-6.048,4.536l4.192,6.296
				c0.456,0.68,7.176,10.568,18.024,18.008l-8.208,2.736c-31,10.336-53.6,36.784-58.976,69.016L30.556,496h434.888L447.82,390.192z
				 M388.812,480c1.776-5.768,3.192-13.528,3.192-24c0-27-17.592-44.904-18.344-45.656l-11.312,11.312
				c0.136,0.144,13.656,13.888,13.656,34.344c0,13.272-2.64,20.624-4.312,24H256.004V344h-16v136H124.348
				c-1.736-3.472-4.344-10.816-4.344-24c0-20.208,13.544-34.224,13.68-34.368l-5.68-5.632l-5.656-5.656
				C121.596,411.096,104.004,429,104.004,456c0,10.472,1.416,18.232,3.192,24H49.452l14.52-87.176
				c4.4-26.368,22.888-48.008,48.256-56.472l29.24-9.744c0.152-0.008,0.304-0.008,0.456-0.016l-0.008-0.136l36.424-12.136
				l17.728,70.904L243.756,328h8.496l47.688,57.224l17.728-70.904l36.36,12.12l-0.016,0.2c0.224,0.016,0.44,0.008,0.664,0.024
				l29.096,9.696c25.368,8.464,43.856,30.104,48.256,56.472L446.556,480H388.812z"/>
			<rect x="272.004" y="392" width="16" height="16"/>
			<rect x="272.004" y="448" width="16" height="16"/>
			<path d="M120.004,216h27.648c4.112,13.864,11.616,26.576,22.128,37.088l31.192,31.192c7.552,7.552,17.6,11.72,28.288,11.72
				h37.488c10.688,0,20.736-4.168,28.288-11.72l20.28-20.28h12.688c22.056,0,40-17.944,40-40v-8h8c22.056,0,40-17.944,40-40v-32
				c0-22.056-17.944-40-40-40h-9.32C358.78,45.128,308.108,0,248.004,0s-110.776,45.128-118.68,104h-9.32c-22.056,0-40,17.944-40,40
				v32C80.004,198.056,97.948,216,120.004,216z M384.004,121.48c9.288,3.304,16,12.104,16,22.52v32c0,10.416-6.712,19.216-16,22.528
				V121.48z M314.916,241.776L308.692,248h-84.688v16h68.688l-8.968,8.968c-4.536,4.536-10.56,7.032-16.976,7.032H229.26
				c-6.416,0-12.448-2.496-16.976-7.032l-31.192-31.192c-13.592-13.6-21.088-31.68-21.088-50.912V184c0-26.472,21.528-48,48-48
				h14.032c13.312,0,26.496-4.392,37.152-12.376l11.312-8.488C282.156,128.328,298.94,136,316.844,136h19.16v8v46.864
				C336.004,210.096,328.508,228.176,314.916,241.776z M352.004,190.864V144v-24h16v80h-16V190.864z M352.004,224
				c0,12.168-9.128,22.136-20.872,23.688c7.944-9.36,13.792-20.104,17.224-31.688h3.648V224z M248.004,16
				c51.36,0,94.824,38.024,102.592,88h-14.592v16h-19.16c-15.384,0-29.656-7.64-38.184-20.44l-4.688-7.04l-24.392,18.304
				c-7.888,5.92-17.68,9.176-27.544,9.176h-14.032c-19.12,0-36.264,8.472-48,21.808V104h-14.592
				C153.18,54.024,196.644,16,248.004,16z M128.004,120h16v24v46.864V200h-16V120z M96.004,144c0-10.416,6.712-19.216,16-22.528
				v77.048c-9.288-3.312-16-12.112-16-22.528V144z"/>
		</g>
	</g>
</g>
<g>
</g>
<g>
</g>
<g>
</g>
<g>
</g>
<g>
</g>
<g>
</g>
<g>
</g>
<g>
</g>
<g>
</g>
<g>
</g>
<g>
</g>
<g>
</g>
<g>
</g>
<g>
</g>
<g>
</g>
</svg>
