<svg fill="#fff" height="487pt" viewBox="-5 0 487 487.46591" width="487pt" xmlns="http://www.w3.org/2000/svg"><path d="m453.546875 117.507812c-.660156-4.183593-4.46875-7.125-8.683594-6.707031-19.152343 1.847657-33.480469 18.414063-32.542969 37.636719l1.441407 58.933594c-15.757813 1.570312-29.550781 11.261718-36.367188 25.554687l-21.539062 45.222657c-3.351563 7.007812-8.234375 13.179687-14.289063 18.046874l-4.476562 3.589844c-22.769532 18.164063-35.453125 46.140625-34.117188 75.234375l-8.800781-4.191406c-3.988281-1.898437-8.761719-.203125-10.664063 3.785156l-23.613281 49.585938c-1.902343 3.988281-.207031 8.761719 3.78125 10.664062l108.816407 51.824219c1.914062.914062 4.113281 1.027344 6.113281.320312 2-.710937 3.636719-2.1875 4.546875-4.101562l23.617187-49.589844c1.902344-3.988281.207031-8.761718-3.78125-10.660156l-4.640625-2.210938-1.160156-15.511718c-.464844-6.0625 1.445312-12.066406 5.324219-16.742188l56.351562-68.191406c.113281-.136719.222657-.277344.328125-.425781 11.613282-16.214844 17.738282-35.722657 17.476563-55.671875-.003907-.378906-.039063-.757813-.097657-1.128906zm-81.398437 351.292969-94.371094-44.945312 16.738281-35.140625 94.371094 44.945312zm74.203124-158.78125-56.175781 67.980469c-6.519531 7.859375-9.730469 17.945312-8.949219 28.125l.480469 6.394531-61.851562-29.457031c-4.398438-26.789062 6.019531-53.863281 27.242187-70.792969l4.476563-3.589843c7.9375-6.382813 14.335937-14.464844 18.726562-23.652344l21.539063-45.222656c5.628906-11.789063 18.386718-18.421876 31.269531-16.261719l-31.484375 66.109375c-1.851562 3.980468-.148438 8.707031 3.8125 10.59375 3.964844 1.890625 8.707031.230468 10.632812-3.714844l35.398438-74.335938c1.902344-3.988281.207031-8.761718-3.78125-10.660156-2.535156-1.207031-5.179688-2.171875-7.890625-2.886718l-1.484375-60.699219c0-.070313 0-.140625-.007812-.210938-.410157-7.871093 3.828124-15.257812 10.835937-18.875l21.539063 135.839844c.09375 16.230469-4.917969 32.085937-14.324219 45.316406zm0 0"/><path d="m193.402344 374.613281c-1.898438-3.988281-6.671875-5.683593-10.664063-3.785156l-8.796875 4.191406c1.332032-29.09375-11.355468-57.070312-34.121094-75.234375l-4.476562-3.589844c-6.054688-4.867187-10.9375-11.039062-14.289062-18.046874l-21.539063-45.222657c-6.816406-14.292969-20.609375-23.984375-36.367187-25.554687l1.441406-58.933594c.9375-19.222656-13.390625-35.789062-32.542969-37.636719-4.214844-.414062-8.019531 2.527344-8.683594 6.707031l-23.023437 145.265626c-.058594.371093-.09375.75-.097656 1.128906-.2617192 19.949218 5.863281 39.457031 17.476562 55.671875.101562.148437.214844.289062.328125.425781l56.351563 68.191406c3.878906 4.675782 5.792968 10.679688 5.328124 16.742188l-1.160156 15.511718-4.644531 2.210938c-3.988281 1.898438-5.683594 6.671875-3.78125 10.660156l23.617187 49.589844c.910157 1.914062 2.546876 3.390625 4.546876 4.101562 2 .707032 4.199218.59375 6.113281-.320312l108.816406-51.824219c3.988281-1.902343 5.683594-6.675781 3.785156-10.664062zm-106.667969 3.386719-56.179687-67.980469c-9.40625-13.230469-14.414063-29.085937-14.320313-45.316406l21.535156-135.839844c7.003907 3.617188 11.242188 11 10.835938 18.875 0 .070313 0 .140625-.007813.210938l-1.484375 60.699219c-2.714843.714843-5.355469 1.679687-7.890625 2.886718-3.988281 1.898438-5.683594 6.671875-3.785156 10.660156l35.402344 74.332032c1.210937 2.609375 3.730468 4.363281 6.597656 4.601562 2.863281.234375 5.636719-1.085937 7.257812-3.457031 1.625-2.375 1.847657-5.4375.589844-8.023437l-31.480468-66.105469c12.882812-2.160157 25.636718 4.472656 31.269531 16.261719l21.535156 45.222656c4.390625 9.1875 10.792969 17.269531 18.730469 23.652344l4.472656 3.585937c21.222656 16.933594 31.640625 44.007813 27.242188 70.796875l-61.851563 29.457031.476563-6.394531c.78125-10.179688-2.425782-20.265625-8.945313-28.125zm18.027344 90.800781-16.738281-35.140625 94.371093-44.949218 16.738281 35.144531zm0 0"/><path d="m275.457031 244.632812v-35.660156c26-13.328125 41.839844-39.167968 41.839844-67.1875.03125-20.679687-8.5625-40.4375-23.707031-54.515625-16.226563-15.128906-37.957032-22.929687-60.101563-21.570312-19.789062 1.144531-38.441406 9.628906-52.304687 23.792969-13.734375 13.839843-21.484375 32.523437-21.574219 52.023437-.105469 28.367187 15.847656 54.226563 41.847656 67.261719v35.855468c-.0625 5.855469 2.226563 11.492188 6.355469 15.644532 4.128906 4.15625 9.75 6.480468 15.609375 6.453125h30.066406c5.859375.027343 11.480469-2.296875 15.609375-6.453125 4.128906-4.152344 6.417969-9.789063 6.359375-15.644532zm-100.011719-103.058593c.15625-15.351563 6.324219-30.03125 17.183594-40.882813 11.09375-11.324218 26.011719-18.105468 41.839844-19.019531 1.296875-.074219 2.589844-.113281 3.878906-.113281 16.453125-.058594 32.308594 6.144531 44.347656 17.351562 11.949219 11.058594 18.75 26.59375 18.769532 42.875 0 23.398438-14.65625 44.929688-37.078125 54.855469-2.933594 1.261719-4.863281 4.121094-4.929688 7.316406v5.773438h-42v-6.039063c-.070312-3.230468-2.042969-6.117187-5.027343-7.355468-22.449219-9.585938-37.066407-31.082032-36.984376-54.761719zm78.042969 109.15625h-30.066406c-1.617187.03125-3.171875-.605469-4.300781-1.761719-1.128906-1.152344-1.730469-2.722656-1.664063-4.335938v-18.902343h42v18.902343c.066407 1.613282-.539062 3.183594-1.667969 4.335938-1.128906 1.15625-2.683593 1.792969-4.300781 1.761719zm0 0"/><path d="m230.457031 8v34.875c0 4.417969 3.582031 8 8 8s8-3.582031 8-8v-34.875c0-4.417969-3.582031-8-8-8s-8 3.582031-8 8zm0 0"/><path d="m102.847656 130.730469c-4.417968 0-8 3.582031-8 8s3.582032 8 8 8h36.300782c4.417968 0 8-3.582031 8-8s-3.582032-8-8-8zm0 0"/><path d="m337.765625 146.730469h36.300781c4.417969 0 8-3.582031 8-8s-3.582031-8-8-8h-36.300781c-4.417969 0-8 3.582031-8 8s3.582031 8 8 8zm0 0"/><path d="m168.472656 78.777344c3.273438 0 6.21875-1.992188 7.429688-5.035156 1.214844-3.039063.453125-6.511719-1.917969-8.765626l-25.84375-24.550781c-3.203125-3.042969-8.265625-2.914062-11.308594.289063s-2.914062 8.265625.289063 11.308594l25.84375 24.554687c1.484375 1.414063 3.457031 2.203125 5.507812 2.199219zm0 0"/><path d="m340.078125 40.714844c-3.042969-3.203125-8.105469-3.332032-11.308594-.289063l-25.839843 24.550781c-2.105469 1.960938-2.992188 4.902344-2.328126 7.699219.664063 2.796875 2.777344 5.023438 5.539063 5.832031 2.757813.804688 5.738281.070313 7.804687-1.929687l25.84375-24.554687c3.203126-3.042969 3.335938-8.105469.289063-11.308594zm0 0"/></svg>