<svg id="svg" version="1.1" xmlns="http://www.w3.org/2000/svg" xmlns:xlink="http://www.w3.org/1999/xlink" width="400" height="183.7388724035608" viewBox="0, 0, 400,183.7388724035608"><g id="svgg"><path id="path0" d="M50.573 75.158 C 50.543 82.201,50.465 85.612,50.333 85.744 C 50.225 85.852,50.163 86.284,50.195 86.704 L 50.253 87.468 65.262 87.510 L 80.271 87.552 80.173 85.347 C 80.046 82.503,79.927 82.399,79.927 85.132 L 79.927 87.276 65.321 87.276 L 50.715 87.276 50.666 76.022 L 50.617 64.768 50.573 75.158 M119.430 70.740 L 118.971 70.887 119.476 70.905 C 119.754 70.915,119.982 70.841,119.982 70.740 C 119.982 70.638,119.961 70.564,119.936 70.574 C 119.910 70.584,119.683 70.659,119.430 70.740 M204.009 70.877 C 206.618 70.906,210.835 70.906,213.380 70.877 C 215.924 70.848,213.790 70.825,208.636 70.825 C 203.482 70.825,201.400 70.848,204.009 70.877 M222.891 71.541 C 222.933 71.577,223.215 71.662,223.519 71.730 C 223.921 71.820,223.995 71.803,223.794 71.667 C 223.546 71.499,222.706 71.382,222.891 71.541 M234.556 81.029 C 234.624 81.282,234.756 81.612,234.850 81.764 C 234.968 81.955,234.982 81.899,234.897 81.580 C 234.829 81.328,234.697 80.997,234.604 80.845 C 234.485 80.654,234.471 80.710,234.556 81.029 M146.073 81.455 C 146.073 81.488,146.243 81.839,146.452 82.236 C 146.660 82.633,146.784 82.806,146.726 82.620 C 146.669 82.433,146.572 82.082,146.511 81.839 C 146.424 81.492,146.073 81.185,146.073 81.455 M242.903 81.534 C 242.903 81.622,243.023 81.854,243.170 82.050 C 243.427 82.394,243.432 82.392,243.331 81.991 C 243.227 81.576,242.903 81.231,242.903 81.534 M235.304 82.683 C 235.531 83.591,235.740 83.989,235.930 83.872 C 236.059 83.791,236.045 83.659,235.884 83.466 C 235.753 83.309,235.543 82.965,235.418 82.702 L 235.190 82.223 235.304 82.683 M86.757 85.668 L 86.725 88.195 65.238 88.195 C 48.340 88.195,43.722 88.243,43.611 88.423 C 43.533 88.548,43.435 95.082,43.393 102.942 L 43.316 117.233 46.968 117.184 L 50.620 117.134 50.667 105.604 L 50.715 94.074 65.321 94.074 L 79.927 94.074 79.927 105.650 L 79.927 117.226 83.423 117.226 C 86.358 117.226,86.937 117.181,87.026 116.951 C 87.084 116.800,87.054 109.131,86.960 99.909 C 86.866 90.687,86.775 84.279,86.757 85.668 M154.930 100.184 L 154.892 117.226 172.898 117.226 L 190.905 117.226 190.905 113.734 L 190.905 110.243 176.573 110.243 L 162.242 110.243 162.242 97.933 C 162.242 89.848,162.179 85.622,162.058 85.622 C 161.953 85.622,161.874 86.174,161.874 86.909 L 161.874 88.195 158.659 88.195 L 155.443 88.195 155.409 86.955 L 155.374 85.714 155.274 86.817 C 155.192 87.716,155.155 87.480,155.071 85.531 C 155.014 84.217,154.950 90.811,154.930 100.184 M243.539 84.165 C 243.448 84.312,243.473 84.346,243.610 84.262 C 243.745 84.178,243.829 84.284,243.843 84.555 C 243.860 84.896,243.882 84.913,243.952 84.638 C 244.062 84.211,243.739 83.841,243.539 84.165 M147.004 84.279 C 147.046 84.756,147.333 85.161,147.346 84.760 C 147.353 84.539,147.276 84.307,147.175 84.244 C 147.074 84.182,146.997 84.198,147.004 84.279 M94.626 84.968 C 94.626 85.531,94.730 85.577,94.863 85.071 C 94.915 84.869,94.884 84.658,94.792 84.601 C 94.701 84.545,94.626 84.710,94.626 84.968 M243.900 85.556 C 243.932 85.845,243.879 86.132,243.783 86.194 C 243.685 86.257,243.719 86.349,243.861 86.404 C 244.131 86.507,244.226 85.415,243.970 85.158 C 243.900 85.088,243.869 85.267,243.900 85.556 M102.059 85.426 C 102.117 85.520,102.084 85.647,101.984 85.709 C 101.885 85.770,101.814 86.113,101.828 86.471 C 101.847 86.976,101.891 87.053,102.023 86.817 C 102.117 86.649,102.152 86.353,102.102 86.159 C 102.051 85.965,102.085 85.806,102.176 85.806 C 102.268 85.806,102.343 85.682,102.343 85.531 C 102.343 85.379,102.255 85.255,102.148 85.255 C 102.041 85.255,102.001 85.332,102.059 85.426 M139.642 85.601 C 139.642 85.983,140.153 86.938,140.263 86.761 C 140.329 86.654,140.299 86.515,140.196 86.451 C 140.093 86.388,140.009 86.134,140.009 85.887 C 140.009 85.641,139.927 85.439,139.825 85.439 C 139.724 85.439,139.642 85.512,139.642 85.601 M236.332 86.495 C 236.431 86.975,236.509 87.499,236.506 87.659 C 236.502 87.819,236.624 87.950,236.776 87.950 C 237.052 87.950,236.992 86.926,236.688 86.451 C 236.571 86.267,236.540 86.163,236.495 85.806 C 236.483 85.705,236.400 85.622,236.312 85.622 C 236.224 85.622,236.233 86.015,236.332 86.495 M147.138 86.027 C 147.260 86.148,147.360 86.417,147.362 86.624 C 147.363 86.831,147.446 87.124,147.546 87.276 C 147.674 87.470,147.695 87.333,147.617 86.817 C 147.488 85.961,147.413 85.806,147.127 85.806 C 146.976 85.806,146.979 85.868,147.138 86.027 M244.161 86.863 C 244.146 86.938,244.125 87.249,244.115 87.552 L 244.097 88.103 240.299 88.153 L 236.500 88.202 236.670 88.794 C 236.888 89.555,236.866 92.220,236.630 93.523 C 236.530 94.079,236.432 94.761,236.414 95.039 C 236.395 95.317,236.318 95.544,236.243 95.544 C 236.167 95.544,236.105 95.714,236.105 95.922 C 236.105 96.130,235.945 96.649,235.751 97.077 C 235.556 97.504,235.340 98.078,235.271 98.353 C 235.203 98.627,235.064 98.852,234.963 98.852 C 234.862 98.852,234.827 98.976,234.885 99.127 C 234.943 99.279,234.921 99.403,234.835 99.403 C 234.749 99.403,234.569 99.672,234.434 100.000 C 234.299 100.328,234.121 100.680,234.038 100.781 C 233.955 100.882,233.568 101.464,233.179 102.073 C 232.790 102.683,232.338 103.293,232.175 103.428 C 232.012 103.563,231.879 103.737,231.879 103.814 C 231.879 103.997,230.179 105.635,229.123 106.469 C 228.668 106.829,228.196 107.205,228.073 107.306 C 227.951 107.406,227.640 107.585,227.384 107.701 C 227.128 107.818,226.918 107.983,226.918 108.068 C 226.918 108.153,226.813 108.222,226.685 108.222 C 226.558 108.222,225.958 108.463,225.353 108.758 C 224.748 109.052,223.944 109.351,223.565 109.421 C 223.186 109.492,222.876 109.613,222.876 109.690 C 222.876 110.103,219.547 110.243,209.731 110.243 L 199.357 110.243 199.357 113.734 L 199.357 117.226 210.646 117.226 C 217.974 117.226,221.975 117.161,222.049 117.042 C 222.111 116.941,222.461 116.858,222.825 116.858 C 223.662 116.858,225.847 116.490,226.091 116.308 C 226.192 116.233,226.604 116.111,227.007 116.039 C 227.723 115.909,230.410 114.869,230.593 114.651 C 230.643 114.590,230.974 114.424,231.328 114.282 C 231.897 114.053,232.254 113.844,233.597 112.950 C 234.457 112.378,235.554 111.465,235.554 111.321 C 235.554 111.234,235.643 111.162,235.752 111.162 C 235.861 111.162,236.253 110.841,236.624 110.449 C 237.201 109.839,237.592 109.396,238.961 107.803 C 239.133 107.603,239.834 106.559,240.470 105.555 C 240.597 105.355,240.845 104.901,241.021 104.548 C 241.197 104.194,241.390 103.863,241.450 103.813 C 241.510 103.762,241.712 103.307,241.900 102.802 C 242.088 102.297,242.299 101.842,242.369 101.791 C 242.440 101.741,242.597 101.328,242.718 100.873 C 242.840 100.418,243.004 99.963,243.083 99.862 C 243.217 99.692,243.829 97.278,243.900 96.644 C 243.917 96.490,244.010 96.242,244.106 96.092 C 244.276 95.828,244.437 86.725,244.272 86.725 C 244.226 86.725,244.177 86.787,244.161 86.863 M94.192 90.833 C 94.215 92.869,94.284 94.782,94.345 95.085 C 94.407 95.388,94.545 96.132,94.651 96.739 C 94.758 97.345,94.897 97.924,94.960 98.025 C 95.024 98.126,95.079 98.291,95.084 98.392 C 95.100 98.715,95.757 100.774,95.905 100.965 C 95.984 101.066,96.153 101.474,96.281 101.873 C 96.410 102.272,96.590 102.685,96.683 102.792 C 96.868 103.006,97.389 103.948,97.834 104.869 C 97.992 105.198,98.203 105.466,98.303 105.466 C 98.403 105.466,98.484 105.573,98.484 105.703 C 98.484 105.833,98.729 106.226,99.028 106.576 C 99.327 106.925,99.575 107.281,99.579 107.366 C 99.591 107.607,102.929 111.162,103.143 111.162 C 103.199 111.162,103.443 111.348,103.686 111.576 C 103.929 111.803,104.345 112.154,104.611 112.356 C 104.878 112.559,105.271 112.866,105.486 113.040 C 105.701 113.214,106.033 113.405,106.223 113.466 C 106.413 113.526,106.569 113.640,106.569 113.719 C 106.569 113.798,106.920 114.017,107.350 114.207 C 107.779 114.396,108.172 114.600,108.222 114.659 C 108.360 114.820,110.635 115.876,111.162 116.024 C 111.415 116.094,111.870 116.263,112.173 116.398 C 112.476 116.533,113.055 116.704,113.459 116.777 C 113.863 116.851,114.237 116.976,114.289 117.056 C 114.796 117.828,127.515 117.825,127.515 117.052 C 127.515 116.982,128.052 116.819,128.709 116.688 C 129.366 116.558,129.904 116.387,129.904 116.310 C 129.904 116.232,130.140 116.122,130.429 116.064 C 131.167 115.916,133.173 114.976,134.607 114.104 C 135.275 113.699,135.877 113.367,135.945 113.367 C 136.013 113.367,136.206 113.222,136.374 113.045 C 136.542 112.869,136.901 112.559,137.172 112.356 C 139.259 110.803,142.928 107.036,142.943 106.431 C 142.946 106.305,143.034 106.201,143.139 106.201 C 143.243 106.201,143.381 106.056,143.447 105.880 C 143.512 105.703,143.748 105.310,143.971 105.007 C 144.194 104.704,144.433 104.270,144.502 104.042 C 144.571 103.815,144.691 103.629,144.769 103.629 C 144.847 103.629,145.020 103.298,145.154 102.894 C 145.287 102.490,145.463 102.159,145.543 102.159 C 145.624 102.159,145.791 101.808,145.914 101.378 C 146.036 100.949,146.194 100.514,146.265 100.413 C 146.450 100.146,146.828 98.924,146.935 98.244 C 146.986 97.921,147.090 97.616,147.167 97.565 C 147.335 97.454,147.726 94.889,147.726 93.894 C 147.726 93.500,147.809 93.126,147.910 93.064 C 148.215 92.876,148.148 88.571,147.838 88.453 C 147.698 88.399,147.603 88.215,147.628 88.045 C 147.653 87.875,147.638 87.839,147.595 87.965 C 147.535 88.138,146.676 88.195,144.139 88.195 C 141.117 88.195,140.743 88.229,140.575 88.516 C 140.329 88.940,140.321 88.642,140.567 88.183 C 140.671 87.987,140.684 87.827,140.595 87.827 C 140.506 87.827,140.340 87.641,140.226 87.414 C 140.020 87.003,140.020 87.004,140.095 87.460 C 140.429 89.475,140.259 95.067,139.846 95.635 C 139.771 95.737,139.602 96.264,139.470 96.808 C 139.337 97.351,139.120 98.004,138.988 98.259 C 138.856 98.514,138.641 99.082,138.511 99.522 C 138.382 99.962,138.211 100.322,138.132 100.322 C 138.053 100.322,137.988 100.403,137.988 100.503 C 137.988 100.765,136.924 102.493,136.218 103.376 C 135.886 103.792,135.672 104.198,135.744 104.278 C 135.816 104.358,135.776 104.366,135.655 104.296 C 135.527 104.223,135.345 104.336,135.223 104.565 C 134.928 105.115,133.339 106.542,132.017 107.444 C 131.612 107.720,131.240 107.988,131.190 108.040 C 131.139 108.092,130.767 108.299,130.363 108.500 C 129.959 108.701,129.587 108.916,129.536 108.977 C 129.486 109.039,129.113 109.204,128.709 109.344 C 128.305 109.484,127.933 109.647,127.882 109.707 C 127.759 109.853,125.422 110.427,124.951 110.427 C 124.744 110.427,124.575 110.499,124.575 110.587 C 124.575 110.852,120.733 111.000,119.247 110.792 C 118.489 110.686,117.699 110.575,117.492 110.547 C 117.285 110.518,117.037 110.450,116.941 110.396 C 116.845 110.342,116.249 110.192,115.618 110.062 C 114.986 109.932,114.469 109.756,114.469 109.670 C 114.469 109.584,114.097 109.420,113.643 109.306 C 113.188 109.191,112.816 109.037,112.816 108.963 C 112.816 108.889,112.444 108.675,111.989 108.488 C 111.534 108.300,111.162 108.091,111.162 108.023 C 111.162 107.955,110.914 107.797,110.611 107.671 C 110.308 107.546,110.060 107.388,110.060 107.321 C 110.060 107.254,109.821 107.058,109.530 106.886 C 108.576 106.322,106.398 104.018,104.965 102.056 C 104.319 101.171,102.947 98.244,102.774 97.382 C 102.714 97.079,102.604 96.831,102.531 96.831 C 102.416 96.831,102.276 96.199,101.880 93.891 C 101.747 93.111,101.761 88.025,101.898 87.804 C 101.977 87.676,101.928 87.632,101.771 87.689 C 101.631 87.740,101.537 87.874,101.562 87.988 C 101.595 88.136,100.607 88.195,98.117 88.195 C 94.915 88.195,94.625 88.168,94.623 87.873 C 94.620 87.598,94.594 87.592,94.442 87.827 C 94.344 87.979,94.263 88.016,94.261 87.910 C 94.259 87.804,94.346 87.629,94.454 87.521 C 94.593 87.382,94.578 87.297,94.401 87.229 C 94.194 87.150,94.158 87.778,94.192 90.833 " stroke="none" fill="#dc2a1c" fill-rule="evenodd"></path><path id="path1" d="M295.712 67.249 C 295.712 69.017,295.739 69.740,295.773 68.856 C 295.807 67.972,295.807 66.525,295.773 65.641 C 295.739 64.757,295.712 65.480,295.712 67.249 M311.518 70.969 L 310.978 71.566 311.576 71.027 C 312.132 70.524,312.257 70.372,312.115 70.372 C 312.084 70.372,311.815 70.641,311.518 70.969 M347.083 70.439 C 347.083 70.547,348.969 72.453,349.472 72.853 C 349.724 73.054,349.313 72.578,348.558 71.795 C 347.249 70.438,347.083 70.285,347.083 70.439 M282.374 70.877 C 284.831 70.906,288.800 70.906,291.193 70.877 C 293.586 70.848,291.576 70.824,286.725 70.825 C 281.874 70.825,279.916 70.848,282.374 70.877 M323.289 71.658 C 323.155 71.876,323.334 71.876,323.840 71.658 C 324.194 71.506,324.193 71.500,323.805 71.487 C 323.584 71.480,323.351 71.557,323.289 71.658 M258.546 72.390 C 258.223 72.792,258.085 73.072,258.239 73.013 C 258.394 72.954,258.521 72.843,258.521 72.766 C 258.521 72.690,258.739 72.409,259.005 72.143 C 259.272 71.876,259.410 71.658,259.312 71.658 C 259.214 71.658,258.869 71.987,258.546 72.390 M337.988 72.577 C 338.291 72.778,338.622 72.942,338.723 72.943 C 338.824 72.943,338.636 72.778,338.305 72.576 C 337.525 72.101,337.270 72.101,337.988 72.577 M308.748 73.976 C 308.459 74.341,308.080 74.805,307.906 75.008 C 307.732 75.211,307.541 75.532,307.480 75.722 C 307.420 75.912,307.304 76.068,307.222 76.068 C 307.140 76.068,306.970 76.316,306.844 76.619 C 306.719 76.922,306.538 77.170,306.444 77.170 C 306.349 77.170,306.322 77.253,306.385 77.354 C 306.447 77.455,306.432 77.538,306.350 77.538 C 306.218 77.538,305.856 78.251,304.615 80.949 C 304.426 81.360,304.272 81.835,304.272 82.006 C 304.272 82.176,304.180 82.315,304.067 82.315 C 303.952 82.315,303.904 82.477,303.958 82.683 C 304.011 82.885,303.984 83.050,303.899 83.050 C 303.814 83.050,303.640 83.670,303.513 84.428 C 303.386 85.186,303.229 85.806,303.164 85.806 C 302.902 85.806,302.746 93.802,302.984 94.993 C 303.075 95.448,303.241 96.275,303.351 96.831 C 303.595 98.051,304.601 101.007,304.944 101.511 C 305.080 101.710,305.191 102.004,305.191 102.163 C 305.191 102.322,305.294 102.556,305.420 102.683 C 305.547 102.809,305.650 102.970,305.651 103.041 C 305.651 103.112,305.937 103.624,306.286 104.180 C 306.635 104.736,306.924 105.234,306.928 105.287 C 306.937 105.396,307.293 105.841,307.901 106.503 C 308.128 106.750,308.314 107.030,308.314 107.124 C 308.314 107.218,308.520 107.430,308.772 107.595 C 309.024 107.760,309.190 107.959,309.141 108.038 C 309.025 108.226,309.507 108.622,309.663 108.466 C 309.730 108.399,309.784 108.472,309.784 108.629 C 309.784 108.785,309.929 109.026,310.106 109.164 C 310.403 109.398,310.407 109.389,310.155 109.049 C 309.887 108.688,309.889 108.687,310.280 109.020 C 310.499 109.207,310.633 109.476,310.578 109.620 C 310.506 109.808,310.569 109.845,310.804 109.755 C 310.987 109.685,311.085 109.704,311.026 109.799 C 310.963 109.901,313.270 109.952,316.830 109.928 C 324.099 109.880,323.346 109.907,323.030 109.706 C 322.888 109.616,322.660 109.585,322.525 109.637 C 322.389 109.689,322.278 109.630,322.278 109.507 C 322.278 109.377,322.132 109.320,321.931 109.373 C 321.730 109.425,321.401 109.299,321.150 109.072 C 320.895 108.841,320.538 108.706,320.283 108.742 C 320.021 108.780,319.895 108.730,319.965 108.616 C 320.125 108.358,319.359 107.675,319.044 107.796 C 318.905 107.849,318.740 107.760,318.677 107.598 C 318.615 107.436,318.490 107.304,318.399 107.304 C 318.095 107.304,317.142 106.336,317.259 106.147 C 317.322 106.045,317.293 106.011,317.194 106.072 C 317.012 106.185,314.929 104.122,314.929 103.828 C 314.929 103.740,314.805 103.621,314.653 103.562 C 314.502 103.504,314.378 103.330,314.378 103.175 C 314.378 103.021,314.306 102.894,314.219 102.894 C 314.132 102.894,313.864 102.522,313.623 102.067 C 313.381 101.612,313.122 101.240,313.046 101.240 C 312.970 101.240,312.908 101.161,312.908 101.064 C 312.908 100.906,311.842 98.485,311.440 97.729 C 311.353 97.566,311.182 96.904,311.058 96.259 C 310.935 95.613,310.743 94.969,310.631 94.827 C 310.413 94.551,310.343 88.475,310.548 87.644 C 310.610 87.391,310.801 86.523,310.972 85.714 C 311.143 84.906,311.359 84.166,311.452 84.070 C 311.545 83.974,311.621 83.758,311.621 83.590 C 311.621 83.120,313.586 79.362,314.128 78.797 C 314.405 78.507,314.564 78.177,314.503 78.018 C 314.435 77.840,314.482 77.773,314.633 77.831 C 314.763 77.881,314.976 77.794,315.106 77.638 C 315.235 77.482,315.293 77.354,315.235 77.354 C 315.176 77.354,315.589 76.912,316.152 76.371 C 316.950 75.604,317.110 75.363,316.881 75.275 C 316.719 75.213,316.596 75.222,316.606 75.294 C 316.676 75.758,316.365 75.790,312.265 75.740 C 307.760 75.685,307.515 75.634,308.408 74.931 C 308.661 74.732,308.822 74.493,308.764 74.400 C 308.707 74.307,308.748 74.231,308.855 74.231 C 308.962 74.231,309.049 74.102,309.049 73.944 C 309.049 73.787,309.118 73.700,309.202 73.752 C 309.286 73.804,309.355 73.727,309.355 73.579 C 309.355 73.215,309.345 73.222,308.748 73.976 M339.550 73.358 C 339.550 73.473,341.092 74.495,341.174 74.435 C 341.209 74.410,341.348 74.540,341.484 74.724 C 341.720 75.041,341.729 75.040,341.679 74.690 C 341.648 74.474,341.483 74.319,341.277 74.314 C 341.085 74.309,340.949 74.206,340.974 74.084 C 340.999 73.963,340.893 73.863,340.738 73.863 C 340.583 73.863,340.252 73.730,340.003 73.566 C 339.754 73.403,339.550 73.309,339.550 73.358 M268.356 73.855 C 268.296 73.952,268.105 73.985,267.932 73.930 C 267.664 73.844,267.658 73.858,267.892 74.027 C 268.133 74.200,268.130 74.225,267.868 74.228 C 267.704 74.229,267.463 74.358,267.333 74.515 C 267.204 74.671,266.987 74.756,266.852 74.704 C 266.716 74.652,266.605 74.683,266.605 74.773 C 266.605 74.862,266.557 75.087,266.499 75.272 C 266.395 75.597,266.401 75.597,266.666 75.275 C 266.816 75.091,267.009 74.931,267.094 74.918 C 267.262 74.892,267.342 74.835,268.167 74.149 C 268.470 73.897,268.661 73.688,268.591 73.685 C 268.522 73.682,268.416 73.758,268.356 73.855 M318.425 74.132 C 318.298 74.285,318.124 74.367,318.038 74.314 C 317.817 74.177,317.153 74.884,317.293 75.108 C 317.360 75.215,317.715 75.029,318.129 74.670 C 318.525 74.327,318.805 74.004,318.752 73.951 C 318.699 73.898,318.552 73.979,318.425 74.132 M350.207 74.150 C 350.207 74.307,350.289 74.385,350.390 74.322 C 350.492 74.260,350.574 74.301,350.574 74.414 C 350.574 74.527,350.661 74.566,350.767 74.501 C 350.899 74.419,350.891 74.300,350.744 74.122 C 350.460 73.780,350.207 73.793,350.207 74.150 M256.582 75.092 C 256.284 75.566,256.061 76.020,256.086 76.103 C 256.112 76.185,256.056 76.252,255.963 76.252 C 255.870 76.252,255.698 76.541,255.581 76.895 C 255.464 77.249,255.299 77.538,255.214 77.538 C 255.128 77.538,254.958 77.848,254.836 78.227 C 254.714 78.606,254.554 78.999,254.481 79.100 C 254.407 79.201,254.202 79.697,254.026 80.202 C 253.849 80.707,253.632 81.286,253.542 81.488 C 253.397 81.817,253.238 82.420,252.620 84.979 C 252.329 86.183,252.212 92.875,252.452 94.534 C 252.569 95.342,252.665 96.147,252.665 96.322 C 252.665 96.496,252.742 96.687,252.837 96.746 C 252.931 96.804,253.009 97.031,253.009 97.249 C 253.009 97.871,253.444 99.587,253.602 99.587 C 253.680 99.587,253.744 99.742,253.744 99.932 C 253.744 100.558,255.122 103.629,255.403 103.629 C 255.501 103.629,255.565 103.691,255.544 103.767 C 255.499 103.937,256.459 105.825,256.782 106.201 C 256.913 106.353,257.265 106.742,257.564 107.066 C 257.864 107.390,258.064 107.700,258.009 107.755 C 257.953 107.810,257.997 107.855,258.105 107.855 C 258.213 107.855,258.473 108.124,258.684 108.452 C 258.894 108.780,259.069 108.966,259.072 108.865 C 259.075 108.764,259.156 108.806,259.252 108.957 C 259.348 109.109,259.533 109.233,259.663 109.233 C 259.793 109.233,259.899 109.357,259.899 109.508 C 259.899 109.747,260.782 109.797,266.376 109.876 C 269.938 109.927,272.853 109.941,272.853 109.909 C 272.852 109.715,272.352 109.400,272.151 109.467 C 272.020 109.510,271.773 109.426,271.602 109.280 C 271.143 108.887,270.649 108.747,270.642 109.009 C 270.638 109.132,270.475 109.041,270.279 108.805 C 270.083 108.570,269.838 108.431,269.734 108.495 C 269.630 108.559,269.545 108.514,269.545 108.395 C 269.545 108.273,269.393 108.219,269.192 108.272 C 268.943 108.337,268.867 108.288,268.936 108.110 C 268.989 107.970,268.921 107.854,268.784 107.853 C 268.647 107.852,268.234 107.567,267.867 107.219 C 267.500 106.871,267.151 106.636,267.091 106.696 C 267.031 106.756,266.930 106.670,266.866 106.504 C 266.803 106.339,266.685 106.244,266.605 106.293 C 266.526 106.342,266.413 106.259,266.355 106.108 C 266.297 105.957,266.125 105.834,265.974 105.834 C 265.804 105.834,265.739 105.728,265.804 105.558 C 265.872 105.381,265.800 105.282,265.604 105.282 C 265.435 105.282,265.345 105.206,265.402 105.113 C 265.459 105.021,265.320 104.793,265.091 104.607 C 264.370 104.022,263.260 102.526,262.621 101.278 C 262.282 100.616,261.938 99.985,261.858 99.876 C 261.777 99.768,261.598 99.306,261.461 98.852 C 261.323 98.397,261.150 97.942,261.075 97.841 C 260.240 96.704,259.500 87.577,260.168 86.633 C 260.239 86.532,260.403 85.953,260.532 85.347 C 260.661 84.740,260.833 84.162,260.914 84.061 C 260.996 83.960,261.081 83.794,261.103 83.693 C 261.212 83.208,261.526 82.488,262.104 81.396 C 262.451 80.740,262.878 79.933,263.051 79.605 C 263.224 79.277,263.434 79.008,263.516 79.008 C 263.598 79.008,263.666 78.924,263.666 78.822 C 263.666 78.721,263.893 78.382,264.171 78.070 C 264.449 77.758,264.677 77.449,264.677 77.383 C 264.678 77.316,265.050 76.913,265.504 76.486 L 266.330 75.710 261.507 75.705 C 257.509 75.701,256.684 75.657,256.684 75.445 C 256.684 75.304,256.819 75.136,256.985 75.073 C 257.151 75.009,257.235 74.904,257.171 74.840 C 257.107 74.776,257.146 74.613,257.259 74.477 C 257.371 74.342,257.387 74.231,257.294 74.231 C 257.201 74.231,256.880 74.618,256.582 75.092 M351.212 75.159 C 351.037 75.441,351.276 75.623,351.512 75.387 C 351.644 75.255,351.647 75.153,351.522 75.075 C 351.419 75.012,351.279 75.049,351.212 75.159 M342.525 75.690 C 342.655 75.898,342.856 76.068,342.971 76.068 C 343.086 76.068,343.293 76.208,343.432 76.379 C 343.649 76.647,343.646 76.670,343.408 76.547 C 343.257 76.469,343.391 76.639,343.708 76.925 C 344.434 77.583,345.594 79.185,346.294 80.497 C 346.591 81.054,346.911 81.629,347.005 81.775 C 348.478 84.064,349.774 93.257,348.795 94.471 C 348.685 94.606,348.550 95.090,348.495 95.544 C 348.377 96.513,347.286 99.834,347.057 99.923 C 346.970 99.957,346.899 100.076,346.899 100.187 C 346.899 100.528,346.142 101.975,345.964 101.975 C 345.872 101.975,345.797 102.070,345.797 102.187 C 345.797 102.507,344.731 103.912,343.546 105.155 C 342.965 105.764,342.490 106.330,342.490 106.411 C 342.490 106.493,342.254 106.681,341.966 106.830 C 341.678 106.979,341.304 107.312,341.135 107.570 C 340.828 108.038,340.155 108.251,340.379 107.809 C 340.443 107.683,340.368 107.736,340.212 107.928 C 340.057 108.120,339.984 108.368,340.050 108.479 C 340.117 108.590,340.016 108.558,339.825 108.406 C 339.635 108.254,339.532 108.219,339.597 108.327 C 339.782 108.637,339.079 109.125,338.599 109.020 C 338.297 108.953,338.243 108.976,338.417 109.100 C 338.608 109.235,338.578 109.296,338.279 109.374 C 336.953 109.721,338.223 109.868,342.952 109.916 L 348.009 109.968 348.734 109.417 C 349.133 109.113,349.427 108.771,349.387 108.657 C 349.345 108.532,349.452 108.483,349.652 108.536 C 349.893 108.599,349.980 108.528,349.959 108.285 C 349.941 108.069,350.045 107.956,350.247 107.971 C 350.421 107.985,350.612 107.841,350.672 107.651 C 350.733 107.462,351.097 106.907,351.483 106.419 C 351.869 105.931,352.330 105.249,352.507 104.902 C 352.685 104.555,352.892 104.231,352.967 104.180 C 353.186 104.033,354.249 101.992,354.249 101.718 C 354.249 101.581,354.366 101.372,354.508 101.254 C 354.651 101.135,354.870 100.608,354.994 100.083 C 355.119 99.557,355.281 99.086,355.354 99.035 C 355.474 98.953,355.817 97.690,356.277 95.636 C 356.756 93.495,356.626 86.020,356.097 85.351 C 356.016 85.248,355.895 84.789,355.829 84.331 C 355.763 83.874,355.603 83.295,355.474 83.045 C 355.345 82.795,355.126 82.177,354.987 81.672 C 354.687 80.581,353.211 77.693,352.845 77.481 C 352.703 77.399,352.636 77.254,352.694 77.159 C 352.753 77.064,352.708 76.987,352.595 76.987 C 352.482 76.987,352.431 76.920,352.482 76.837 C 352.533 76.755,352.388 76.472,352.161 76.207 L 351.748 75.726 347.371 75.707 C 344.768 75.696,342.851 75.612,342.641 75.500 C 342.320 75.328,342.310 75.345,342.525 75.690 " stroke="none" fill="#8b8b8b" fill-rule="evenodd"></path><path id="path2" d="M328.326 63.829 C 328.284 63.869,327.588 63.955,326.780 64.021 C 324.987 64.168,324.596 64.227,323.656 64.492 C 323.252 64.606,322.797 64.705,322.646 64.713 C 322.494 64.720,322.288 64.787,322.186 64.861 C 322.085 64.936,321.858 64.973,321.680 64.944 C 321.503 64.916,321.399 64.959,321.449 65.040 C 321.499 65.121,321.256 65.240,320.908 65.306 C 320.560 65.371,319.717 65.705,319.035 66.049 C 318.352 66.392,317.728 66.632,317.648 66.582 C 317.567 66.533,317.501 66.569,317.501 66.664 C 317.501 66.759,317.253 66.939,316.950 67.065 C 316.647 67.190,316.399 67.366,316.399 67.455 C 316.399 67.543,316.289 67.616,316.156 67.616 C 316.022 67.616,315.588 67.862,315.191 68.162 C 314.794 68.462,314.389 68.710,314.292 68.713 C 314.194 68.716,313.931 68.931,313.709 69.190 C 313.486 69.449,313.274 69.635,313.239 69.603 C 313.204 69.571,312.815 69.876,312.375 70.280 C 311.936 70.684,311.504 70.994,311.415 70.969 C 311.326 70.944,311.275 71.027,311.300 71.153 C 311.325 71.279,311.243 71.362,311.116 71.337 C 310.990 71.311,310.887 71.412,310.887 71.561 C 310.887 71.709,310.638 72.014,310.335 72.239 C 310.032 72.463,309.784 72.719,309.784 72.808 C 309.784 72.898,309.659 73.095,309.507 73.248 C 309.354 73.400,309.284 73.614,309.351 73.723 C 309.424 73.840,309.387 73.867,309.261 73.789 C 309.136 73.711,309.049 73.774,309.049 73.944 C 309.049 74.102,308.966 74.231,308.865 74.231 C 308.764 74.231,308.702 74.334,308.728 74.460 C 308.753 74.587,308.664 74.667,308.530 74.639 C 308.396 74.612,308.340 74.674,308.404 74.779 C 308.468 74.883,308.392 75.018,308.234 75.078 C 308.076 75.139,307.947 75.301,307.947 75.438 C 307.947 75.749,316.568 75.919,316.604 75.609 C 316.616 75.508,316.619 75.371,316.610 75.306 C 316.602 75.241,316.769 75.232,316.981 75.288 C 317.250 75.358,317.342 75.315,317.285 75.143 C 317.195 74.873,317.833 74.134,318.007 74.308 C 318.066 74.367,318.266 74.278,318.451 74.111 C 318.636 73.943,318.787 73.870,318.787 73.948 C 318.787 74.026,319.056 73.889,319.384 73.642 C 319.713 73.395,320.126 73.140,320.303 73.074 C 320.480 73.009,320.625 72.862,320.625 72.747 C 320.625 72.632,320.749 72.585,320.900 72.643 C 321.052 72.702,321.176 72.655,321.176 72.541 C 321.176 72.426,321.230 72.386,321.297 72.453 C 321.363 72.519,321.529 72.482,321.664 72.369 C 321.800 72.257,321.911 72.219,321.911 72.285 C 321.911 72.351,322.267 72.206,322.703 71.963 C 323.139 71.719,324.090 71.414,324.816 71.284 C 325.543 71.154,326.137 70.999,326.138 70.940 C 326.139 70.809,327.947 70.682,329.720 70.688 C 330.959 70.692,333.027 70.833,333.027 70.915 C 333.027 70.936,333.192 70.975,333.395 71.001 C 334.173 71.101,334.956 71.326,334.956 71.449 C 334.956 71.520,335.182 71.569,335.459 71.557 C 335.735 71.544,336.064 71.637,336.190 71.763 C 336.316 71.889,336.751 72.048,337.157 72.117 C 337.562 72.185,337.949 72.330,338.015 72.438 C 338.093 72.563,338.044 72.580,337.879 72.484 C 337.728 72.397,337.684 72.403,337.771 72.499 C 337.854 72.590,338.020 72.670,338.139 72.676 C 338.717 72.709,339.366 73.012,339.366 73.251 C 339.366 73.397,339.437 73.474,339.523 73.420 C 339.609 73.367,339.836 73.442,340.028 73.588 C 340.220 73.733,340.526 73.854,340.709 73.857 C 340.892 73.860,340.996 73.936,340.941 74.026 C 340.885 74.116,340.979 74.302,341.149 74.439 C 341.361 74.612,341.415 74.618,341.320 74.460 C 341.244 74.334,341.256 74.231,341.346 74.231 C 341.665 74.231,341.748 74.476,341.523 74.754 C 341.342 74.979,341.342 75.008,341.525 74.898 C 341.652 74.822,341.755 74.849,341.755 74.959 C 341.755 75.459,342.864 75.609,347.221 75.700 C 349.672 75.751,351.677 75.722,351.677 75.635 C 351.676 75.379,350.809 74.425,350.686 74.547 C 350.625 74.609,350.574 74.558,350.574 74.434 C 350.574 74.310,350.492 74.260,350.390 74.322 C 350.289 74.385,350.207 74.298,350.207 74.130 C 350.207 73.933,350.305 73.862,350.482 73.930 C 350.634 73.988,350.758 73.995,350.758 73.945 C 350.758 73.895,350.543 73.772,350.280 73.672 C 349.958 73.550,349.837 73.398,349.910 73.208 C 349.970 73.053,349.942 72.973,349.848 73.031 C 349.755 73.088,348.946 72.411,348.051 71.524 C 346.193 69.685,345.097 68.718,344.870 68.718 C 344.783 68.718,344.632 68.574,344.534 68.398 C 344.435 68.222,344.300 68.133,344.234 68.199 C 344.167 68.266,343.954 68.162,343.761 67.968 C 343.567 67.774,343.250 67.616,343.056 67.616 C 342.863 67.616,342.676 67.551,342.643 67.472 C 342.521 67.184,341.459 66.564,340.524 66.234 C 339.999 66.048,339.612 65.827,339.665 65.741 C 339.718 65.656,339.693 65.606,339.609 65.632 C 339.357 65.708,337.714 65.190,337.794 65.060 C 337.835 64.993,337.731 64.925,337.561 64.909 C 337.036 64.860,335.063 64.472,334.773 64.362 C 333.907 64.034,328.578 63.593,328.326 63.829 M275.765 64.030 C 275.716 64.078,275.145 64.160,274.494 64.212 C 273.844 64.263,272.857 64.392,272.301 64.498 C 271.746 64.603,271.105 64.715,270.877 64.745 C 270.650 64.775,270.414 64.849,270.354 64.909 C 270.294 64.969,270.115 64.969,269.956 64.908 C 269.767 64.835,269.714 64.871,269.802 65.012 C 269.889 65.154,269.784 65.227,269.495 65.227 C 269.253 65.227,268.997 65.286,268.926 65.357 C 268.855 65.428,268.574 65.516,268.302 65.553 C 268.029 65.589,267.764 65.684,267.711 65.763 C 267.659 65.842,267.079 66.144,266.422 66.433 C 265.765 66.722,265.186 67.003,265.136 67.058 C 265.085 67.112,264.920 67.184,264.768 67.216 C 264.616 67.249,264.465 67.353,264.431 67.446 C 264.397 67.540,264.297 67.616,264.207 67.616 C 263.746 67.616,261.601 69.343,261.798 69.555 C 261.865 69.628,261.805 69.652,261.665 69.608 C 261.418 69.531,259.440 71.314,259.440 71.613 C 259.440 71.694,259.295 71.890,259.118 72.049 C 258.941 72.207,258.590 72.594,258.337 72.909 C 258.085 73.223,257.777 73.484,257.654 73.488 C 257.531 73.492,257.478 73.620,257.536 73.771 C 257.594 73.923,257.545 74.047,257.427 74.047 C 257.309 74.047,257.261 74.124,257.319 74.218 C 257.377 74.312,257.339 74.442,257.235 74.506 C 257.130 74.571,257.093 74.701,257.152 74.796 C 257.210 74.891,257.129 75.018,256.971 75.078 C 256.813 75.139,256.684 75.304,256.684 75.445 C 256.684 75.657,257.501 75.701,261.470 75.701 L 266.256 75.701 266.476 75.179 C 266.598 74.893,266.788 74.689,266.899 74.726 C 267.011 74.763,267.207 74.667,267.335 74.512 C 267.464 74.357,267.647 74.231,267.743 74.231 C 267.838 74.231,268.200 74.014,268.547 73.749 C 268.894 73.485,269.178 73.332,269.178 73.410 C 269.178 73.488,269.339 73.366,269.535 73.139 C 269.732 72.913,269.980 72.781,270.087 72.847 C 270.193 72.912,270.280 72.879,270.280 72.772 C 270.280 72.665,270.394 72.577,270.533 72.577 C 270.673 72.577,270.889 72.454,271.013 72.303 C 271.138 72.153,271.317 72.077,271.412 72.135 C 271.506 72.194,271.696 72.147,271.834 72.032 C 272.071 71.836,272.722 71.664,273.450 71.606 C 273.627 71.592,273.771 71.524,273.771 71.456 C 273.771 71.388,274.141 71.277,274.594 71.209 C 275.046 71.141,275.467 71.004,275.529 70.904 C 275.602 70.786,275.727 70.793,275.884 70.923 C 276.035 71.048,276.169 71.058,276.236 70.949 C 276.303 70.840,280.070 70.765,286.037 70.754 C 292.305 70.742,295.722 70.671,295.710 70.554 C 295.700 70.454,295.679 68.925,295.664 67.157 L 295.636 63.941 285.745 63.941 C 280.305 63.941,275.814 63.981,275.765 64.030 " stroke="none" fill="#9c9c9c" fill-rule="evenodd"></path><path id="path3" d="M118.374 63.883 C 117.540 63.923,116.858 64.024,116.858 64.107 C 116.858 64.190,116.640 64.234,116.375 64.205 C 116.109 64.176,115.757 64.225,115.594 64.315 C 115.283 64.485,113.727 64.860,113.091 64.918 C 112.889 64.937,112.622 65.048,112.498 65.165 C 112.374 65.282,111.939 65.434,111.532 65.503 C 111.126 65.571,110.834 65.693,110.884 65.774 C 110.933 65.854,110.789 65.964,110.563 66.018 C 109.949 66.164,108.654 66.679,108.865 66.693 C 108.966 66.700,108.718 66.867,108.314 67.065 C 107.485 67.470,106.889 67.832,106.751 68.015 C 106.699 68.082,106.534 68.165,106.383 68.198 C 106.233 68.232,106.001 68.404,105.869 68.581 C 105.737 68.757,105.510 68.902,105.364 68.902 C 105.218 68.902,105.099 68.985,105.099 69.086 C 105.099 69.187,105.009 69.270,104.899 69.270 C 104.789 69.270,104.438 69.509,104.118 69.802 C 102.798 71.012,102.467 71.291,102.347 71.291 C 102.278 71.291,102.110 71.497,101.975 71.750 C 101.840 72.003,101.614 72.209,101.474 72.209 C 101.333 72.209,101.263 72.281,101.317 72.369 C 101.451 72.586,100.788 73.164,100.603 72.991 C 100.522 72.915,100.494 72.977,100.542 73.128 C 100.589 73.280,100.394 73.623,100.107 73.891 C 99.821 74.159,99.587 74.464,99.587 74.570 C 99.587 74.675,99.401 74.891,99.173 75.051 C 98.946 75.210,98.782 75.381,98.809 75.430 C 98.898 75.592,98.296 76.619,98.112 76.619 C 98.013 76.619,97.933 76.780,97.933 76.978 C 97.933 77.175,97.788 77.417,97.611 77.516 C 97.435 77.615,97.318 77.722,97.353 77.755 C 97.442 77.838,96.962 78.893,96.773 79.028 C 96.686 79.090,96.609 79.214,96.602 79.304 C 96.567 79.730,96.404 80.110,96.258 80.110 C 96.169 80.110,96.096 80.276,96.096 80.478 C 96.096 80.680,96.008 80.845,95.901 80.845 C 95.794 80.845,95.760 80.932,95.825 81.037 C 95.890 81.143,95.809 81.434,95.644 81.685 C 95.480 81.936,95.391 82.215,95.447 82.305 C 95.502 82.396,95.418 82.599,95.259 82.758 C 95.100 82.917,95.018 83.125,95.076 83.220 C 95.135 83.315,95.107 83.439,95.013 83.497 C 94.920 83.555,94.887 83.767,94.940 83.969 C 94.998 84.190,94.945 84.336,94.808 84.336 C 94.642 84.336,94.634 84.401,94.779 84.576 C 94.924 84.750,94.905 84.956,94.710 85.332 C 94.382 85.963,94.376 86.051,94.672 85.874 C 94.828 85.780,94.820 85.835,94.649 86.046 C 94.435 86.310,94.435 86.358,94.649 86.360 C 94.847 86.362,94.842 86.401,94.626 86.541 C 94.474 86.639,94.422 86.720,94.510 86.722 C 94.598 86.724,94.568 86.849,94.442 87.000 C 94.258 87.222,94.261 87.276,94.456 87.276 C 94.645 87.276,94.650 87.325,94.479 87.497 C 94.357 87.618,94.259 87.804,94.261 87.910 C 94.263 88.016,94.344 87.979,94.442 87.827 C 94.594 87.592,94.620 87.598,94.623 87.873 C 94.625 88.168,94.915 88.195,98.117 88.195 C 100.037 88.195,101.668 88.201,101.741 88.209 C 101.814 88.216,101.903 88.113,101.939 87.979 C 101.990 87.785,101.968 87.786,101.828 87.985 C 101.705 88.160,101.616 88.173,101.527 88.029 C 101.458 87.917,101.528 87.776,101.684 87.716 C 101.907 87.630,101.945 87.412,101.865 86.687 C 101.797 86.079,101.826 85.806,101.951 85.883 C 102.063 85.953,102.111 85.849,102.068 85.627 C 102.029 85.423,102.074 85.255,102.169 85.255 C 102.265 85.255,102.343 85.126,102.343 84.968 C 102.343 84.811,102.416 84.727,102.506 84.783 C 102.596 84.838,102.705 84.641,102.748 84.344 C 102.792 84.047,102.769 83.840,102.698 83.885 C 102.537 83.984,103.154 82.757,103.436 82.418 C 103.549 82.282,103.620 82.099,103.595 82.013 C 103.526 81.785,104.915 79.375,105.115 79.375 C 105.207 79.375,105.282 79.210,105.282 79.008 C 105.282 78.804,105.405 78.640,105.558 78.640 C 105.710 78.640,105.834 78.535,105.834 78.406 C 105.834 78.277,106.070 77.912,106.359 77.596 C 106.647 77.280,106.936 76.885,107.000 76.717 C 107.065 76.549,107.180 76.443,107.256 76.482 C 107.417 76.562,108.225 75.765,108.105 75.645 C 108.061 75.601,108.318 75.426,108.675 75.257 C 109.032 75.087,109.325 74.906,109.325 74.854 C 109.325 74.802,109.221 74.812,109.095 74.876 C 108.969 74.940,109.026 74.863,109.222 74.704 C 109.418 74.544,109.667 74.414,109.775 74.414 C 109.883 74.414,110.077 74.246,110.205 74.040 C 110.334 73.834,110.510 73.709,110.596 73.762 C 110.682 73.815,110.854 73.737,110.978 73.588 C 111.102 73.438,111.268 73.355,111.346 73.404 C 111.424 73.452,111.597 73.360,111.731 73.199 C 111.995 72.881,112.806 72.494,113.075 72.557 C 113.166 72.579,113.308 72.489,113.389 72.357 C 113.471 72.225,113.602 72.110,113.682 72.102 C 113.761 72.093,113.965 72.025,114.134 71.950 C 114.303 71.875,114.551 71.797,114.685 71.777 C 114.819 71.756,115.032 71.675,115.158 71.596 C 115.285 71.517,115.484 71.512,115.600 71.584 C 115.723 71.660,115.763 71.635,115.695 71.525 C 115.587 71.350,116.181 71.215,118.971 70.779 C 119.998 70.619,122.135 70.625,123.021 70.791 C 123.429 70.867,123.925 70.960,124.123 70.997 C 124.321 71.034,124.917 71.123,125.448 71.195 C 125.979 71.267,126.372 71.391,126.322 71.472 C 126.244 71.598,126.490 71.675,127.830 71.946 C 128.215 72.024,130.173 73.027,130.308 73.216 C 130.379 73.315,130.709 73.491,131.043 73.607 C 131.399 73.732,131.624 73.923,131.588 74.071 C 131.554 74.209,131.585 74.264,131.656 74.193 C 131.847 74.002,133.779 75.485,134.674 76.509 C 134.931 76.801,135.285 77.194,135.462 77.381 C 135.638 77.569,135.739 77.722,135.685 77.722 C 135.631 77.722,135.755 77.908,135.961 78.135 C 137.067 79.358,137.409 79.822,137.316 79.973 C 137.260 80.064,137.389 80.263,137.604 80.413 C 137.818 80.564,137.953 80.753,137.904 80.833 C 137.854 80.914,137.968 81.120,138.158 81.292 C 138.348 81.464,138.556 81.886,138.620 82.230 C 138.685 82.575,138.879 82.948,139.052 83.059 C 139.345 83.248,139.345 83.255,139.054 83.165 C 138.836 83.098,138.773 83.149,138.844 83.335 C 138.900 83.481,139.020 83.601,139.110 83.601 C 139.200 83.601,139.274 83.725,139.274 83.877 C 139.274 84.028,139.352 84.153,139.447 84.153 C 139.543 84.153,139.589 84.318,139.550 84.520 C 139.511 84.722,139.566 84.887,139.672 84.887 C 139.778 84.887,139.817 85.011,139.759 85.163 C 139.701 85.315,139.733 85.439,139.831 85.439 C 139.929 85.439,140.009 85.629,140.009 85.861 C 140.009 86.094,140.099 86.374,140.209 86.484 C 140.347 86.622,140.349 86.720,140.216 86.803 C 139.995 86.939,140.325 87.827,140.596 87.827 C 140.685 87.827,140.671 87.987,140.567 88.183 C 140.301 88.679,140.329 88.881,140.610 88.497 C 140.819 88.211,141.190 88.184,144.239 88.233 L 147.634 88.287 147.634 87.615 C 147.634 87.246,147.572 86.982,147.497 87.029 C 147.421 87.076,147.359 86.919,147.359 86.681 C 147.359 86.442,147.255 86.136,147.129 86.000 C 146.942 85.798,146.958 85.773,147.221 85.865 C 147.398 85.927,147.542 85.898,147.542 85.800 C 147.542 85.703,147.456 85.622,147.351 85.622 C 147.245 85.622,147.176 85.519,147.198 85.393 C 147.261 85.019,146.962 83.782,146.828 83.864 C 146.760 83.906,146.688 83.678,146.667 83.357 C 146.584 82.084,146.524 81.796,146.348 81.825 C 146.247 81.842,146.138 81.628,146.106 81.350 C 146.074 81.073,145.962 80.845,145.857 80.845 C 145.752 80.845,145.711 80.727,145.766 80.583 C 145.822 80.439,145.750 80.224,145.607 80.105 C 145.464 79.987,145.293 79.602,145.227 79.250 C 145.161 78.899,145.000 78.570,144.868 78.519 C 144.737 78.469,144.483 78.021,144.304 77.523 C 144.125 77.026,143.921 76.619,143.849 76.619 C 143.778 76.619,143.406 76.144,143.024 75.563 C 142.641 74.982,142.260 74.479,142.179 74.445 C 142.097 74.411,142.030 74.285,142.030 74.164 C 142.030 74.043,141.865 73.825,141.663 73.679 C 141.461 73.534,141.295 73.304,141.295 73.169 C 141.295 73.033,141.213 72.974,141.112 73.036 C 141.011 73.099,140.928 73.061,140.928 72.952 C 140.928 72.739,139.293 71.107,139.079 71.107 C 139.008 71.107,138.906 70.939,138.852 70.734 C 138.799 70.529,138.686 70.384,138.601 70.411 C 138.423 70.469,137.506 69.857,137.575 69.725 C 137.600 69.677,137.559 69.628,137.483 69.616 C 137.407 69.604,136.973 69.285,136.518 68.906 C 136.063 68.528,135.423 68.080,135.094 67.912 C 134.766 67.744,134.497 67.526,134.497 67.428 C 134.497 67.329,134.435 67.259,134.359 67.272 C 134.122 67.314,133.027 66.808,133.027 66.657 C 133.027 66.578,132.899 66.514,132.742 66.514 C 132.403 66.514,131.328 65.983,131.169 65.737 C 131.107 65.642,130.983 65.568,130.894 65.574 C 130.616 65.592,129.289 65.219,128.709 64.960 C 128.406 64.825,127.786 64.655,127.331 64.582 C 126.876 64.509,126.380 64.386,126.229 64.307 C 125.651 64.008,120.986 63.756,118.374 63.883 M199.479 64.064 C 199.412 64.131,199.357 65.654,199.357 67.448 L 199.357 70.710 209.508 70.801 C 215.092 70.852,220.032 70.942,220.487 71.002 C 222.202 71.227,223.520 71.513,224.007 71.765 C 224.284 71.908,224.674 72.026,224.874 72.026 C 225.074 72.026,225.347 72.132,225.481 72.262 C 225.614 72.393,226.116 72.647,226.596 72.829 C 227.076 73.010,227.469 73.224,227.469 73.305 C 227.469 73.385,227.717 73.554,228.020 73.679 C 228.323 73.805,228.571 73.985,228.571 74.080 C 228.571 74.175,228.655 74.201,228.756 74.138 C 228.858 74.075,228.991 74.153,229.052 74.311 C 229.112 74.469,229.256 74.598,229.372 74.599 C 229.625 74.600,230.776 75.652,230.776 75.881 C 230.776 75.970,230.943 76.096,231.146 76.161 C 231.350 76.225,231.479 76.339,231.433 76.413 C 231.387 76.487,231.644 76.791,232.003 77.089 C 232.363 77.386,232.903 78.064,233.204 78.594 C 233.505 79.125,233.827 79.606,233.920 79.664 C 234.013 79.721,234.047 79.836,233.996 79.920 C 233.944 80.003,234.031 80.121,234.188 80.182 C 234.346 80.242,234.423 80.375,234.360 80.476 C 234.297 80.578,234.315 80.661,234.399 80.661 C 234.484 80.661,234.792 81.220,235.083 81.902 C 235.375 82.584,235.703 83.258,235.813 83.400 C 235.923 83.542,235.985 83.819,235.952 84.017 C 235.918 84.215,235.961 84.333,236.046 84.281 C 236.132 84.228,236.187 84.487,236.170 84.857 C 236.152 85.227,236.219 85.579,236.317 85.640 C 236.416 85.701,236.514 85.867,236.536 86.008 C 236.557 86.150,236.627 86.349,236.690 86.451 C 236.925 86.825,237.081 88.068,236.878 87.943 C 236.770 87.876,236.628 87.907,236.564 88.012 C 236.483 88.142,237.665 88.186,240.269 88.153 L 244.093 88.103 244.111 87.314 C 244.124 86.781,244.035 86.464,243.838 86.336 C 243.578 86.167,243.580 86.156,243.855 86.241 C 244.176 86.340,244.188 86.095,243.898 85.363 C 243.790 85.089,243.817 85.046,244.020 85.168 C 244.243 85.302,244.244 85.280,244.030 85.016 C 243.892 84.845,243.823 84.535,243.878 84.327 C 243.951 84.046,243.919 83.995,243.755 84.132 C 243.589 84.269,243.539 84.155,243.555 83.674 C 243.567 83.322,243.507 82.991,243.422 82.938 C 243.337 82.886,243.304 82.640,243.349 82.391 C 243.394 82.143,243.362 81.983,243.278 82.035 C 243.107 82.140,242.904 81.712,242.902 81.244 C 242.901 81.075,242.781 80.707,242.634 80.426 C 242.455 80.083,242.440 79.957,242.589 80.044 C 242.711 80.115,242.667 80.008,242.490 79.806 C 242.313 79.604,242.168 79.269,242.168 79.062 C 242.168 78.855,242.049 78.586,241.903 78.466 C 241.758 78.345,241.680 78.139,241.730 78.008 C 241.781 77.876,241.693 77.720,241.536 77.659 C 241.378 77.599,241.249 77.381,241.249 77.176 C 241.249 76.971,241.167 76.803,241.066 76.803 C 240.965 76.803,240.882 76.633,240.882 76.425 C 240.882 76.217,240.799 76.097,240.698 76.160 C 240.597 76.222,240.514 76.195,240.514 76.099 C 240.514 76.004,240.209 75.482,239.837 74.940 C 239.464 74.398,239.175 73.934,239.194 73.909 C 239.323 73.737,239.182 73.496,238.953 73.496 C 238.801 73.496,238.677 73.434,238.676 73.358 C 238.676 73.282,238.391 72.910,238.042 72.531 C 237.694 72.152,237.445 71.842,237.489 71.842 C 237.532 71.842,237.287 71.553,236.944 71.199 C 236.600 70.845,236.263 70.556,236.195 70.556 C 235.990 70.556,235.091 69.797,235.140 69.666 C 235.165 69.600,235.103 69.535,235.002 69.522 C 234.901 69.510,234.736 69.489,234.635 69.476 C 234.534 69.464,234.451 69.316,234.451 69.147 C 234.451 68.979,234.399 68.893,234.335 68.957 C 234.271 69.021,233.893 68.794,233.494 68.453 C 233.096 68.112,232.568 67.782,232.321 67.720 C 232.075 67.658,231.706 67.465,231.502 67.290 C 231.299 67.116,231.052 66.963,230.954 66.950 C 230.856 66.937,230.689 66.917,230.582 66.904 C 230.475 66.891,230.438 66.799,230.499 66.699 C 230.564 66.595,230.490 66.564,230.326 66.627 C 230.170 66.687,230.041 66.655,230.041 66.555 C 230.041 66.455,229.660 66.277,229.193 66.160 C 228.727 66.043,228.230 65.831,228.089 65.690 C 227.948 65.549,227.440 65.376,226.962 65.307 C 226.483 65.238,225.994 65.104,225.875 65.009 C 225.756 64.915,225.549 64.856,225.416 64.878 C 225.282 64.900,225.048 64.865,224.897 64.801 C 224.384 64.584,222.422 64.263,221.469 64.240 C 220.948 64.227,220.560 64.155,220.607 64.079 C 220.712 63.909,199.650 63.894,199.479 64.064 M43.400 78.962 C 43.421 86.920,43.483 92.274,43.538 90.859 L 43.638 88.287 65.181 88.240 L 86.725 88.193 86.768 85.668 C 86.792 84.278,86.855 87.235,86.909 92.237 C 86.976 98.444,87.006 95.498,87.004 82.958 L 87.000 64.584 83.445 64.534 L 79.889 64.484 80.004 75.007 C 80.067 80.795,80.150 85.985,80.188 86.541 L 80.258 87.552 65.256 87.510 L 50.253 87.468 50.194 86.788 C 50.161 86.413,50.223 85.936,50.332 85.727 C 50.464 85.472,50.544 81.898,50.574 74.920 L 50.620 64.492 46.991 64.492 L 43.362 64.492 43.400 78.962 M154.893 72.715 C 154.893 81.545,155.088 88.740,155.275 86.817 L 155.381 85.714 155.412 86.955 L 155.443 88.195 158.659 88.195 L 161.874 88.195 161.874 86.909 C 161.874 86.174,161.953 85.622,162.058 85.622 C 162.178 85.622,162.242 81.978,162.242 75.057 L 162.242 64.492 158.567 64.492 L 154.892 64.492 154.893 72.715 M94.140 90.859 C 94.139 91.768,94.170 92.164,94.209 91.737 C 94.247 91.311,94.248 90.567,94.210 90.084 C 94.172 89.601,94.140 89.949,94.140 90.859 M236.519 93.615 C 236.521 94.019,236.558 94.163,236.602 93.934 C 236.646 93.706,236.644 93.375,236.598 93.200 C 236.552 93.024,236.517 93.211,236.519 93.615 " stroke="none" fill="#ec3424" fill-rule="evenodd"></path><path id="path4" d="M310.489 94.091 C 310.527 94.487,310.613 94.846,310.680 94.887 C 310.747 94.928,310.771 94.638,310.733 94.242 C 310.695 93.845,310.609 93.487,310.542 93.446 C 310.475 93.404,310.451 93.695,310.489 94.091 M303.833 99.127 C 303.984 99.803,304.089 99.949,304.085 99.479 C 304.084 99.286,303.999 99.003,303.896 98.852 C 303.760 98.650,303.743 98.725,303.833 99.127 M354.469 101.277 C 354.210 101.536,354.181 101.791,354.411 101.791 C 354.501 101.791,354.617 101.626,354.670 101.424 C 354.782 100.995,354.764 100.982,354.469 101.277 M346.115 101.351 C 346.041 101.425,345.981 101.612,345.981 101.767 C 345.981 101.974,346.035 101.994,346.185 101.844 C 346.298 101.732,346.358 101.545,346.319 101.429 C 346.280 101.312,346.188 101.278,346.115 101.351 M263.114 102.298 C 263.114 102.388,263.339 102.663,263.614 102.908 C 263.981 103.235,264.042 103.256,263.844 102.986 C 263.413 102.401,263.114 102.119,263.114 102.298 M345.365 102.649 C 345.179 102.898,345.064 103.141,345.111 103.188 C 345.158 103.235,345.338 103.056,345.511 102.792 C 345.920 102.169,345.807 102.058,345.365 102.649 M254.849 103.215 C 254.854 103.483,255.173 103.857,255.338 103.789 C 255.429 103.751,255.356 103.576,255.175 103.399 C 254.994 103.222,254.847 103.140,254.849 103.215 M344.353 104.023 C 344.224 104.230,344.158 104.440,344.208 104.489 C 344.257 104.539,344.393 104.399,344.511 104.180 C 344.628 103.961,344.694 103.751,344.657 103.713 C 344.619 103.676,344.483 103.815,344.353 104.023 M353.046 104.061 C 352.691 104.452,352.572 104.731,352.762 104.731 C 352.865 104.731,353.042 104.559,353.155 104.348 C 353.390 103.909,353.330 103.749,353.046 104.061 M255.716 104.731 C 255.874 105.136,256.076 105.466,256.164 105.466 C 256.252 105.466,256.155 105.136,255.949 104.731 C 255.742 104.327,255.541 103.996,255.500 103.996 C 255.460 103.996,255.557 104.327,255.716 104.731 M315.610 104.726 C 315.780 104.925,315.957 105.051,316.002 105.006 C 316.111 104.896,315.661 104.364,315.459 104.364 C 315.372 104.364,315.439 104.527,315.610 104.726 M343.315 105.214 C 342.510 106.148,342.510 106.189,343.313 105.426 C 343.709 105.051,343.995 104.706,343.949 104.660 C 343.903 104.614,343.618 104.863,343.315 105.214 M316.215 105.213 C 316.215 105.474,318.151 107.304,318.427 107.304 C 318.597 107.304,318.595 107.239,318.420 107.028 C 318.294 106.876,318.099 106.752,317.986 106.752 C 317.873 106.752,317.429 106.363,316.998 105.887 C 316.567 105.412,316.215 105.108,316.215 105.213 M265.813 105.536 C 265.740 105.724,265.794 105.834,265.959 105.834 C 266.102 105.834,266.304 105.978,266.407 106.155 C 266.510 106.332,266.597 106.399,266.600 106.304 C 266.603 106.209,266.717 106.283,266.853 106.470 C 267.016 106.693,267.143 106.739,267.226 106.606 C 267.295 106.494,267.164 106.308,266.932 106.189 C 266.702 106.071,266.382 105.809,266.220 105.606 C 265.962 105.281,265.913 105.273,265.813 105.536 M351.479 106.402 C 350.984 107.027,350.946 107.131,351.273 106.955 C 351.495 106.837,351.677 106.622,351.677 106.479 C 351.677 106.336,351.821 106.139,351.997 106.040 C 352.173 105.942,352.265 105.810,352.203 105.747 C 352.140 105.684,351.814 105.979,351.479 106.402 M341.851 106.564 C 341.670 106.764,341.362 106.978,341.166 107.040 C 340.961 107.105,340.851 107.260,340.907 107.406 C 340.960 107.545,340.912 107.716,340.800 107.785 C 340.676 107.862,340.647 107.828,340.727 107.699 C 340.799 107.583,340.779 107.487,340.683 107.487 C 340.587 107.487,340.460 107.611,340.402 107.763 C 340.223 108.229,340.803 108.076,341.135 107.570 C 341.304 107.312,341.678 106.979,341.966 106.830 C 342.254 106.681,342.490 106.479,342.490 106.380 C 342.490 106.091,342.204 106.174,341.851 106.564 M307.579 106.530 C 307.579 106.722,307.976 107.120,308.167 107.120 C 308.438 107.120,308.318 106.843,307.947 106.611 C 307.745 106.485,307.579 106.449,307.579 106.530 M257.051 106.694 C 257.051 106.917,258.359 108.559,258.615 108.657 C 258.847 108.746,258.844 108.692,258.592 108.309 C 258.429 108.059,258.217 107.855,258.121 107.855 C 258.026 107.855,257.978 107.793,258.014 107.717 C 258.050 107.641,257.848 107.357,257.565 107.086 C 257.282 106.814,257.051 106.638,257.051 106.694 M267.955 107.304 C 268.301 107.607,268.684 107.855,268.808 107.855 C 268.932 107.855,268.989 107.970,268.936 108.110 C 268.867 108.288,268.943 108.337,269.192 108.272 C 269.393 108.219,269.545 108.273,269.545 108.395 C 269.545 108.514,269.630 108.559,269.734 108.495 C 269.838 108.431,270.083 108.570,270.279 108.805 C 270.475 109.041,270.638 109.137,270.642 109.020 C 270.649 108.751,271.300 108.912,271.583 109.253 C 271.700 109.393,271.930 109.508,272.094 109.507 C 272.532 109.506,271.464 108.841,270.418 108.464 C 269.938 108.291,269.545 108.079,269.545 107.991 C 269.545 107.904,269.478 107.875,269.395 107.926 C 269.312 107.977,269.039 107.828,268.787 107.595 C 268.338 107.179,267.656 106.752,267.438 106.752 C 267.377 106.752,267.610 107.000,267.955 107.304 M308.314 107.449 C 308.314 107.533,308.562 107.840,308.865 108.130 C 309.169 108.421,309.417 108.719,309.417 108.792 C 309.417 109.034,311.481 110.978,311.737 110.978 C 311.876 110.978,311.989 111.097,311.989 111.242 C 311.989 111.386,312.154 111.557,312.356 111.621 C 312.559 111.686,312.724 111.815,312.724 111.909 C 312.724 112.004,312.807 112.081,312.908 112.081 C 313.074 112.081,313.244 112.214,314.209 113.100 C 314.369 113.247,314.561 113.367,314.635 113.367 C 314.709 113.367,315.033 113.564,315.354 113.805 C 315.676 114.046,316.125 114.300,316.353 114.369 C 316.580 114.438,316.766 114.555,316.766 114.629 C 316.766 114.703,317.076 114.874,317.455 115.010 C 317.834 115.145,318.195 115.335,318.258 115.432 C 318.321 115.529,318.581 115.620,318.838 115.636 C 319.094 115.651,319.270 115.718,319.228 115.785 C 319.187 115.852,319.484 115.963,319.889 116.031 C 320.294 116.099,320.625 116.220,320.625 116.298 C 320.625 116.376,321.141 116.548,321.773 116.680 C 322.405 116.812,322.964 116.983,323.016 117.060 C 323.543 117.838,335.713 117.838,336.239 117.060 C 336.292 116.983,336.851 116.812,337.483 116.680 C 338.114 116.548,338.631 116.387,338.631 116.322 C 338.631 116.257,339.024 116.088,339.504 115.947 C 339.984 115.806,340.761 115.499,341.230 115.264 C 341.700 115.029,342.175 114.837,342.287 114.837 C 342.398 114.837,342.490 114.768,342.490 114.683 C 342.490 114.598,342.717 114.427,342.995 114.303 C 343.719 113.979,345.098 113.048,345.810 112.402 C 346.005 112.226,346.240 112.081,346.332 112.081 C 346.424 112.081,346.708 111.833,346.963 111.530 C 347.218 111.226,347.497 110.978,347.582 110.978 C 347.758 110.978,349.839 108.916,349.839 108.742 C 349.839 108.680,349.719 108.583,349.573 108.527 C 349.416 108.467,349.338 108.515,349.383 108.645 C 349.425 108.766,349.133 109.113,348.734 109.417 L 348.009 109.968 342.952 109.916 C 338.066 109.866,337.237 109.762,338.310 109.330 C 338.707 109.171,338.703 109.164,338.218 109.153 C 337.940 109.146,337.712 109.221,337.712 109.319 C 337.712 109.417,337.568 109.451,337.391 109.396 C 337.086 109.300,337.086 109.308,337.388 109.558 C 337.563 109.702,337.657 109.870,337.596 109.931 C 337.535 109.992,337.365 109.922,337.218 109.775 C 336.914 109.471,336.610 109.425,336.610 109.683 C 336.610 109.779,336.114 109.955,335.508 110.074 C 334.901 110.194,334.405 110.350,334.405 110.422 C 334.405 110.493,334.150 110.537,333.837 110.518 C 333.525 110.499,333.234 110.575,333.192 110.686 C 333.080 110.978,327.097 110.941,326.558 110.645 C 326.334 110.523,326.086 110.436,326.007 110.454 C 325.927 110.471,325.737 110.439,325.586 110.381 C 324.558 109.992,323.095 109.914,317.327 109.939 C 313.468 109.957,310.963 109.901,311.026 109.799 C 311.085 109.704,310.987 109.685,310.804 109.755 C 310.569 109.845,310.506 109.808,310.578 109.620 C 310.688 109.332,310.103 108.700,309.907 108.896 C 309.839 108.963,309.784 108.876,309.784 108.701 C 309.784 108.527,309.711 108.430,309.621 108.485 C 309.438 108.599,308.999 108.150,309.148 108.001 C 309.201 107.948,309.035 107.767,308.779 107.600 C 308.523 107.432,308.314 107.364,308.314 107.449 M318.604 107.573 C 318.604 107.620,318.767 107.746,318.967 107.853 C 319.263 108.011,319.310 107.996,319.223 107.767 C 319.128 107.519,318.604 107.355,318.604 107.573 M339.800 108.129 C 339.742 108.280,339.621 108.358,339.531 108.302 C 339.440 108.246,339.366 108.278,339.366 108.372 C 339.366 108.467,339.097 108.602,338.769 108.673 C 338.195 108.797,338.188 108.809,338.595 108.969 C 338.920 109.098,339.108 109.053,339.404 108.778 C 339.616 108.580,339.842 108.452,339.907 108.492 C 339.972 108.532,340.037 108.405,340.051 108.210 C 340.083 107.788,339.948 107.744,339.800 108.129 M349.924 108.051 C 349.857 108.159,349.847 108.291,349.900 108.345 C 350.032 108.476,350.390 108.245,350.390 108.028 C 350.390 107.793,350.073 107.809,349.924 108.051 M319.951 108.498 C 319.951 108.650,320.103 108.774,320.288 108.774 C 320.701 108.774,320.731 108.486,320.334 108.334 C 319.946 108.185,319.951 108.183,319.951 108.498 M320.814 108.745 C 320.828 109.038,321.675 109.470,321.925 109.312 C 322.138 109.177,322.127 109.146,321.865 109.144 C 321.688 109.142,321.543 109.068,321.543 108.979 C 321.543 108.889,321.378 108.773,321.176 108.720 C 320.974 108.667,320.811 108.678,320.814 108.745 M259.009 108.911 C 258.879 109.121,259.762 110.132,260.220 110.299 C 260.397 110.363,260.542 110.501,260.542 110.605 C 260.542 110.709,260.660 110.795,260.805 110.795 C 260.950 110.795,261.123 110.967,261.190 111.178 C 261.257 111.388,261.552 111.645,261.846 111.747 C 262.139 111.849,262.379 112.034,262.379 112.156 C 262.379 112.279,262.665 112.492,263.015 112.629 C 263.364 112.766,263.692 112.988,263.744 113.123 C 263.796 113.257,263.959 113.367,264.106 113.367 C 264.254 113.367,264.488 113.481,264.628 113.621 C 264.861 113.853,265.297 114.072,267.983 115.301 C 268.489 115.532,269.419 115.822,270.051 115.946 C 270.682 116.070,271.199 116.228,271.199 116.298 C 271.199 116.442,274.113 116.858,275.124 116.858 C 275.492 116.858,275.792 116.941,275.792 117.042 C 275.792 117.162,279.255 117.226,285.812 117.226 L 295.832 117.226 295.812 113.741 L 295.792 110.256 286.481 110.247 C 277.834 110.238,274.020 110.078,273.778 109.715 C 273.626 109.486,272.485 109.308,272.485 109.513 C 272.485 109.612,272.568 109.692,272.669 109.692 C 272.770 109.692,272.853 109.754,272.853 109.830 C 272.853 109.906,269.938 109.927,266.376 109.876 C 260.782 109.797,259.899 109.747,259.899 109.508 C 259.899 109.357,259.793 109.233,259.663 109.233 C 259.533 109.233,259.357 109.121,259.272 108.984 C 259.183 108.840,259.072 108.809,259.009 108.911 M322.278 109.489 C 322.278 109.752,322.748 109.858,323.030 109.658 C 323.235 109.512,323.222 109.495,322.967 109.577 C 322.791 109.634,322.646 109.601,322.646 109.503 C 322.646 109.405,322.563 109.325,322.462 109.325 C 322.361 109.325,322.278 109.399,322.278 109.489 " stroke="none" fill="#7c7c7c" fill-rule="evenodd"></path></g></svg>