<svg fill="#041725" height="512" viewBox="0 0 64 64" width="512" xmlns="http://www.w3.org/2000/svg"><g id="Contact_us" data-name="Contact us"><path d="m24 23h3.687a6.954 6.954 0 0 0 4.949-2.05l1.657-1.657a1 1 0 0 1 1.6.26l.341.683a4.969 4.969 0 0 0 3.766 2.715v-1.951a8 8 0 0 0 -16 0z"/><path d="m34.746 21.668-.7.7a8.937 8.937 0 0 1 -6.359 2.632h-2.687v1a7 7 0 0 0 14 0v-1.213a6.943 6.943 0 0 1 -4.254-3.119zm-2.746 9.332a4 4 0 0 1 -4-4h2a2 2 0 0 0 4 0h2a4 4 0 0 1 -4 4z"/><path d="m38 39.586v-1.734l-1.4-.38-3.6 2.997v2.531h-2v-2.531l-3.6-2.997-1.4.38v1.734l6 6z"/><path d="m32 35a8.971 8.971 0 0 1 -2-.232v1.232a.989.989 0 0 1 -.349.743l2.349 1.957 2.349-1.956a.989.989 0 0 1 -.349-.744v-1.232a8.971 8.971 0 0 1 -2 .232z"/><path d="m19 49h26v-5.42a5.026 5.026 0 0 0 -3.686-4.826l-1.314-.354v1.6a1 1 0 0 1 -.293.707l-7 7a1 1 0 0 1 -1.414 0l-7-7a1 1 0 0 1 -.293-.707v-1.6l-1.317.359a5.024 5.024 0 0 0 -3.683 4.821z"/><path d="m34.309 5.105 2.4-2.4-1.416-1.412-4 4a1 1 0 0 0 0 1.414l4 4 1.414-1.414-2.164-2.164a25 25 0 0 1 3.228 49.2l.458 1.946a27 27 0 0 0 -3.92-53.172z"/><path d="m28.707 53.293-1.414 1.414 2.164 2.164a25 25 0 0 1 -3.228-49.2l-.458-1.946a27 27 0 0 0 3.92 53.175l-2.4 2.4 1.414 1.414 4-4a1 1 0 0 0 0-1.414z"/></g></svg>