<?xml version="1.0" encoding="iso-8859-1"?>
<!-- Generator: Adobe Illustrator 19.0.0, SVG Export Plug-In . SVG Version: 6.00 Build 0)  -->
<svg fill="#fff" version="1.1" id="Capa_1" xmlns="http://www.w3.org/2000/svg" xmlns:xlink="http://www.w3.org/1999/xlink" x="0px" y="0px"
	 viewBox="0 0 512 512" style="enable-background:new 0 0 512 512;" xml:space="preserve">
<g>
	<g>
		<g>
			<path d="M452.267,287.043v-31.044c0-31.13-23.953-56.738-54.391-59.46c2.048-5.538,3.191-11.358,3.191-17.34
				c0-28.228-22.963-51.2-51.2-51.2c-3.106,0-6.187,0.29-9.225,0.862c-3.627-19.883-21.069-34.995-41.975-34.995
				c-23.526,0-42.667,19.149-42.667,42.667c0,23.526,19.14,42.667,42.667,42.667c0,5.879,1.092,11.614,3.072,17.067H119.467
				c-32.93,0-59.733,26.803-59.733,59.733v31.044C20.659,302.991,0,323.164,0,345.598c0,87.057,114.842,157.867,256,157.867
				s256-70.81,256-157.867C512,323.164,491.341,302.991,452.267,287.043z M298.667,162.132c-14.114,0-25.6-11.477-25.6-25.6
				c0-14.114,11.486-25.6,25.6-25.6s25.6,11.486,25.6,25.6c0,0.529-0.094,1.041-0.171,1.553l-0.162,1.306
				c-0.341,3.046,0.981,6.042,3.456,7.851c2.483,1.818,5.751,2.142,8.525,0.887c4.514-2.031,9.199-3.063,13.952-3.063
				c18.825,0,34.133,15.317,34.133,34.133c0,5.999-1.621,11.827-4.727,17.067h-58.812c-3.106-5.239-4.727-11.068-4.727-17.067
				c0-2.458,0.35-5.043,1.109-8.124c0.725-2.978-0.205-6.127-2.423-8.235c-2.236-2.108-5.436-2.859-8.354-1.963
				C303.249,161.739,300.902,162.132,298.667,162.132z M102.4,230.398c4.719,0,8.533,3.823,8.533,8.533
				c0,14.123,11.486,25.6,25.6,25.6h238.933c14.114,0,25.6-11.477,25.6-25.6c0-4.71,3.814-8.533,8.533-8.533
				s8.533,3.823,8.533,8.533c0,23.526-19.14,42.667-42.667,42.667H136.533c-23.526,0-42.667-19.14-42.667-42.667
				C93.867,234.221,97.681,230.398,102.4,230.398z M256,418.132c-140.809,0-238.933-38.221-238.933-72.533
				c0-13.525,15.386-27.827,42.667-40.03v18.697c0,32.939,26.803,59.733,59.733,59.733h273.067c32.93,0,59.733-26.795,59.733-59.733
				v-18.697c27.281,12.203,42.667,26.505,42.667,40.03C494.933,379.911,396.809,418.132,256,418.132z"/>
			<path d="M34.133,221.868c18.825,0,34.133-15.309,34.133-34.133s-15.309-34.133-34.133-34.133C15.309,153.602,0,168.911,0,187.735
				S15.309,221.868,34.133,221.868z"/>
			<path d="M170.667,179.202c23.526,0,42.667-19.14,42.667-42.667c0-23.526-19.14-42.667-42.667-42.667
				c-23.526,0-42.667,19.14-42.667,42.667C128,160.061,147.14,179.202,170.667,179.202z"/>
			<path d="M221.867,76.802c18.825,0,34.133-15.309,34.133-34.133c0-18.825-15.309-34.133-34.133-34.133
				s-34.133,15.309-34.133,34.133C187.733,61.493,203.042,76.802,221.867,76.802z"/>
		</g>
	</g>
</g>
<g>
</g>
<g>
</g>
<g>
</g>
<g>
</g>
<g>
</g>
<g>
</g>
<g>
</g>
<g>
</g>
<g>
</g>
<g>
</g>
<g>
</g>
<g>
</g>
<g>
</g>
<g>
</g>
<g>
</g>
</svg>
