<svg id="svg" version="1.1" xmlns="http://www.w3.org/2000/svg" xmlns:xlink="http://www.w3.org/1999/xlink" width="400" height="285.7142857142857" viewBox="0, 0, 400,285.7142857142857"><g id="svgg"><path id="path0" d="M36.381 112.352 C 31.341 114.023,28.767 117.562,28.984 122.521 C 29.173 126.844,31.810 129.612,38.225 132.217 C 43.881 134.515,45.574 136.220,45.574 139.619 C 45.574 145.522,38.039 147.783,30.621 144.107 L 29.337 143.471 28.764 145.328 C 27.961 147.928,27.951 147.912,31.143 148.936 C 42.155 152.468,51.851 146.835,50.517 137.681 C 49.895 133.414,47.252 130.765,41.238 128.381 C 35.579 126.137,33.749 124.278,33.937 120.961 C 34.199 116.313,40.162 114.422,46.438 116.997 C 47.203 117.311,47.856 117.536,47.889 117.498 C 48.366 116.940,49.153 113.621,48.859 113.407 C 47.125 112.139,39.075 111.458,36.381 112.352 M188.765 131.476 C 184.645 142.188,181.234 151.102,181.186 151.286 C 181.107 151.587,181.282 151.619,182.983 151.619 L 184.868 151.619 191.575 134.238 C 195.263 124.679,198.704 115.764,199.220 114.429 L 200.158 112.000 198.207 112.000 L 196.255 112.000 188.765 131.476 M210.476 112.352 C 205.436 114.023,202.862 117.562,203.079 122.521 C 203.268 126.844,205.906 129.612,212.320 132.217 C 217.976 134.515,219.669 136.220,219.669 139.619 C 219.669 145.522,212.135 147.783,204.716 144.107 L 203.432 143.471 202.859 145.328 C 202.056 147.928,202.046 147.912,205.238 148.936 C 216.250 152.468,225.947 146.835,224.612 137.681 C 223.991 133.414,221.348 130.765,215.333 128.381 C 209.674 126.137,207.844 124.278,208.032 120.961 C 208.295 116.313,214.257 114.422,220.534 116.997 C 221.299 117.311,221.951 117.536,221.984 117.498 C 222.461 116.940,223.248 113.621,222.955 113.407 C 221.221 112.139,213.170 111.458,210.476 112.352 M57.810 112.735 C 54.962 114.494,56.426 118.914,59.683 118.393 C 63.437 117.792,63.122 112.382,59.333 112.382 C 58.739 112.382,58.166 112.515,57.810 112.735 M142.952 112.735 C 140.105 114.494,141.569 118.914,144.826 118.393 C 148.580 117.792,148.265 112.382,144.476 112.382 C 143.882 112.382,143.309 112.515,142.952 112.735 M231.905 112.735 C 229.058 114.494,230.522 118.914,233.779 118.393 C 237.533 117.792,237.217 112.382,233.429 112.382 C 232.834 112.382,232.262 112.515,231.905 112.735 M76.952 122.592 C 73.605 123.491,70.927 125.760,69.335 129.048 C 67.136 133.588,67.307 139.889,69.740 143.925 C 73.468 150.110,82.874 151.112,86.961 145.760 L 87.619 144.898 87.612 146.877 C 87.592 152.930,85.487 156.012,80.857 156.767 C 78.434 157.162,74.932 156.607,72.510 155.443 C 71.120 154.775,71.221 154.704,70.581 156.825 C 69.973 158.841,69.963 158.822,72.002 159.608 C 78.369 162.064,86.601 160.622,89.708 156.506 C 92.159 153.260,92.222 152.802,92.390 136.952 C 92.468 129.567,92.593 123.374,92.667 123.190 C 92.792 122.885,92.623 122.857,90.612 122.857 C 88.050 122.857,88.195 122.723,88.180 125.111 C 88.171 126.724,88.163 126.751,87.848 126.286 C 85.630 123.015,81.100 121.479,76.952 122.592 M110.333 122.580 C 108.268 123.136,106.294 124.455,105.151 126.041 L 104.435 127.034 104.314 125.755 C 104.248 125.052,104.193 124.112,104.192 123.667 L 104.190 122.857 101.952 122.857 L 99.714 122.857 99.838 125.857 C 99.906 127.507,99.971 133.464,99.981 139.095 L 100.000 149.333 102.471 149.333 L 104.942 149.333 104.995 140.424 L 105.048 131.515 105.667 130.258 C 108.154 125.207,115.086 125.055,116.940 130.010 C 117.590 131.747,117.711 133.597,117.713 141.762 L 117.714 149.333 120.205 149.333 L 122.696 149.333 122.621 140.143 C 122.539 130.037,122.483 129.503,121.231 127.034 C 119.338 123.298,114.703 121.403,110.333 122.580 M165.191 122.580 C 163.125 123.136,161.151 124.455,160.008 126.041 L 159.292 127.034 159.171 125.755 C 159.105 125.052,159.050 124.112,159.049 123.667 L 159.048 122.857 156.810 122.857 L 154.571 122.857 154.695 125.857 C 154.763 127.507,154.828 133.464,154.838 139.095 L 154.857 149.333 157.328 149.333 L 159.799 149.333 159.852 140.424 L 159.905 131.515 160.524 130.258 C 163.011 125.207,169.943 125.055,171.797 130.010 C 172.447 131.747,172.568 133.597,172.570 141.762 L 172.571 149.333 175.062 149.333 L 177.553 149.333 177.478 140.143 C 177.396 130.037,177.340 129.503,176.088 127.034 C 174.195 123.298,169.560 121.403,165.191 122.580 M251.048 122.592 C 247.700 123.491,245.022 125.760,243.430 129.048 C 241.231 133.588,241.403 139.889,243.835 143.925 C 247.563 150.110,256.969 151.112,261.056 145.760 L 261.714 144.898 261.708 146.877 C 261.687 152.930,259.582 156.012,254.952 156.767 C 252.529 157.162,249.027 156.607,246.606 155.443 C 245.215 154.775,245.316 154.704,244.676 156.825 C 244.068 158.841,244.059 158.822,246.097 159.608 C 252.464 162.064,260.696 160.622,263.803 156.506 C 266.254 153.260,266.317 152.802,266.485 136.952 C 266.563 129.567,266.688 123.374,266.763 123.190 C 266.887 122.885,266.718 122.857,264.707 122.857 C 262.146 122.857,262.290 122.723,262.276 125.111 C 262.266 126.724,262.258 126.751,261.943 126.286 C 259.726 123.015,255.195 121.479,251.048 122.592 M284.429 122.580 C 282.363 123.136,280.389 124.455,279.246 126.041 L 278.530 127.034 278.409 125.755 C 278.343 125.052,278.288 124.112,278.287 123.667 L 278.286 122.857 276.048 122.857 L 273.810 122.857 273.933 125.857 C 274.002 127.507,274.066 133.464,274.076 139.095 L 274.095 149.333 276.566 149.333 L 279.037 149.333 279.090 140.424 L 279.143 131.515 279.762 130.258 C 282.249 125.207,289.181 125.055,291.035 130.010 C 291.685 131.747,291.807 133.597,291.808 141.762 L 291.810 149.333 294.300 149.333 L 296.791 149.333 296.716 140.143 C 296.634 130.037,296.578 129.503,295.326 127.034 C 293.433 123.298,288.798 121.403,284.429 122.580 M357.101 122.582 C 354.874 123.121,352.600 124.648,351.232 126.521 L 350.712 127.233 350.575 125.045 L 350.439 122.857 348.151 122.857 C 346.046 122.857,345.875 122.884,346.007 123.190 C 346.085 123.374,346.191 131.774,346.241 141.857 L 346.333 160.190 348.690 160.190 L 351.048 160.190 351.048 153.037 L 351.048 145.883 352.087 147.006 C 356.463 151.732,365.225 150.595,369.078 144.801 C 371.920 140.528,372.260 133.297,369.850 128.381 C 367.530 123.651,362.372 121.304,357.101 122.582 M56.952 136.095 L 56.952 149.333 59.429 149.333 L 61.905 149.333 61.905 136.095 L 61.905 122.857 59.429 122.857 L 56.952 122.857 56.952 136.095 M142.095 136.095 L 142.095 149.333 144.571 149.333 L 147.048 149.333 147.048 136.095 L 147.048 122.857 144.571 122.857 L 142.095 122.857 142.095 136.095 M231.048 136.095 L 231.048 149.333 233.524 149.333 L 236.000 149.333 236.000 136.095 L 236.000 122.857 233.524 122.857 L 231.048 122.857 231.048 136.095 M315.810 131.818 C 315.810 143.132,316.101 144.768,318.591 147.429 C 322.156 151.241,329.648 150.601,332.943 146.202 C 333.752 145.123,333.759 145.132,333.891 147.383 L 334.000 149.238 336.264 149.292 L 338.528 149.346 338.409 148.625 C 338.343 148.229,338.289 142.269,338.288 135.381 L 338.286 122.857 335.822 122.857 L 333.357 122.857 333.291 131.667 C 333.233 139.378,333.184 140.578,332.903 141.295 C 330.792 146.673,323.365 147.448,321.508 142.485 C 320.823 140.655,320.762 139.732,320.762 131.212 L 320.762 122.857 318.286 122.857 L 315.810 122.857 315.810 131.818 M81.906 126.286 C 84.831 126.841,86.967 129.155,87.460 132.304 C 87.803 134.490,87.563 139.478,87.049 140.827 C 84.810 146.716,76.567 146.986,73.886 141.258 C 70.361 133.725,75.043 124.984,81.906 126.286 M256.001 126.286 C 258.926 126.841,261.062 129.155,261.556 132.304 C 261.898 134.490,261.658 139.478,261.145 140.827 C 258.905 146.716,250.662 146.986,247.982 141.258 C 244.456 133.725,249.138 124.984,256.001 126.286 M361.810 126.877 C 368.235 129.898,367.996 143.050,361.472 145.491 C 354.534 148.087,349.428 141.672,351.322 132.737 C 352.397 127.667,357.466 124.835,361.810 126.877 " stroke="none" fill="#fcfcfc" fill-rule="evenodd"></path><path id="path1" d="" stroke="none" fill="#100fcfc" fill-rule="evenodd"></path><path id="path2" d="" stroke="none" fill="#100fcfc" fill-rule="evenodd"></path><path id="path3" d="" stroke="none" fill="#100fcfc" fill-rule="evenodd"></path><path id="path4" d="" stroke="none" fill="#100fcfc" fill-rule="evenodd"></path></g></svg>