<svg id="svg" version="1.1" xmlns="http://www.w3.org/2000/svg" xmlns:xlink="http://www.w3.org/1999/xlink" width="400" height="207.80695528743792" viewBox="0, 0, 400,207.80695528743792"><g id="svgg"><path id="path0" d="M260.242 36.737 C 260.500 36.787,260.874 36.785,261.073 36.733 C 261.272 36.681,261.060 36.641,260.603 36.643 C 260.146 36.645,259.983 36.688,260.242 36.737 M253.846 37.211 C 253.634 37.347,253.800 37.370,254.366 37.283 C 255.394 37.125,255.569 37.005,254.764 37.009 C 254.431 37.011,254.018 37.102,253.846 37.211 M306.240 44.283 L 306.145 51.663 306.029 46.881 C 305.945 43.386,305.901 42.813,305.867 44.752 L 305.821 47.403 267.453 47.400 C 242.198 47.398,229.128 47.327,229.211 47.191 C 229.444 46.814,229.004 46.979,228.479 47.466 C 228.194 47.731,227.793 48.041,227.589 48.155 C 227.247 48.346,225.370 49.962,224.176 51.091 C 223.904 51.349,223.635 51.559,223.578 51.559 C 223.521 51.559,222.753 52.325,221.872 53.260 C 220.991 54.196,219.943 55.306,219.543 55.727 C 219.142 56.149,218.794 56.555,218.769 56.630 C 218.715 56.792,217.308 58.529,216.788 59.076 C 216.588 59.287,216.424 59.521,216.424 59.596 C 216.424 59.671,216.190 60.039,215.904 60.413 C 215.619 60.788,215.385 61.152,215.385 61.221 C 215.385 61.362,214.584 62.524,214.203 62.937 C 214.067 63.084,213.897 63.391,213.825 63.619 C 213.753 63.847,213.606 64.033,213.500 64.033 C 213.393 64.033,213.322 64.103,213.342 64.189 C 213.383 64.365,212.861 65.536,212.671 65.696 C 212.603 65.754,212.233 66.455,211.849 67.256 C 211.465 68.056,211.074 68.742,210.981 68.780 C 210.887 68.818,210.811 68.960,210.811 69.095 C 210.811 69.230,210.636 69.667,210.423 70.065 C 210.209 70.464,209.968 71.094,209.886 71.466 C 209.805 71.837,209.652 72.141,209.547 72.141 C 209.442 72.141,209.356 72.229,209.356 72.336 C 209.356 72.443,209.246 72.793,209.113 73.115 C 208.980 73.437,208.856 73.747,208.838 73.805 C 208.821 73.862,208.683 74.189,208.532 74.532 C 207.813 76.167,207.692 76.486,207.692 76.754 C 207.692 76.912,207.503 77.581,207.271 78.241 C 206.535 80.333,205.416 84.949,205.274 86.473 C 205.199 87.281,205.081 87.942,205.012 87.942 C 204.942 87.942,204.857 88.340,204.823 88.826 C 204.788 89.311,204.719 90.036,204.670 90.437 C 204.484 91.941,204.319 102.488,204.476 102.847 C 204.566 103.054,204.616 103.316,204.588 103.430 C 204.530 103.661,204.553 104.577,204.639 105.470 C 204.670 105.792,204.831 106.144,204.998 106.254 C 205.255 106.422,205.238 106.504,204.886 106.789 C 204.627 106.998,204.591 107.083,204.791 107.015 C 205.059 106.924,205.102 107.085,205.047 107.975 C 205.000 108.742,205.040 108.956,205.190 108.732 C 205.361 108.477,205.400 108.506,205.402 108.888 C 205.404 109.145,205.309 109.356,205.190 109.356 C 205.044 109.356,205.047 109.489,205.198 109.771 C 205.320 110.000,205.359 110.187,205.283 110.187 C 205.208 110.187,205.275 110.345,205.432 110.539 C 205.676 110.839,205.674 110.865,205.422 110.713 C 205.234 110.599,205.264 110.717,205.505 111.036 L 205.884 111.538 214.401 111.482 C 219.086 111.451,223.029 111.498,223.164 111.586 C 223.298 111.674,223.254 111.603,223.066 111.427 C 222.707 111.091,222.663 110.481,222.963 109.995 C 223.089 109.791,223.065 109.754,222.879 109.869 C 222.684 109.990,222.655 109.911,222.765 109.563 C 222.880 109.202,222.850 109.134,222.631 109.265 C 222.426 109.389,222.434 109.329,222.661 109.044 C 222.843 108.815,222.865 108.717,222.713 108.808 C 222.452 108.965,222.436 108.916,222.347 107.620 C 222.325 107.294,222.176 106.941,222.016 106.836 C 221.775 106.678,221.789 106.608,222.094 106.428 C 222.296 106.309,222.406 106.121,222.338 106.011 C 221.865 105.246,221.787 91.268,222.255 91.268 C 222.335 91.268,222.467 90.496,222.549 89.553 C 222.631 88.610,222.795 87.721,222.913 87.578 C 223.031 87.435,223.058 87.318,222.973 87.318 C 222.888 87.318,222.913 87.201,223.028 87.058 C 223.144 86.915,223.304 86.307,223.385 85.707 C 223.466 85.107,223.597 84.615,223.677 84.615 C 223.757 84.615,223.937 84.171,224.078 83.628 C 224.219 83.085,224.467 82.360,224.628 82.017 C 225.421 80.334,225.780 79.472,225.780 79.248 C 225.780 79.113,225.873 79.002,225.988 79.002 C 226.102 79.002,226.195 78.909,226.195 78.795 C 226.195 78.473,227.487 75.813,227.793 75.505 C 227.943 75.354,228.123 75.003,228.193 74.726 C 228.262 74.448,228.403 74.220,228.505 74.220 C 228.607 74.220,228.690 74.118,228.690 73.993 C 228.690 73.867,228.901 73.471,229.158 73.112 C 229.415 72.753,229.726 72.271,229.849 72.040 C 230.307 71.179,230.669 70.579,230.790 70.478 C 230.859 70.421,231.669 69.439,232.591 68.295 C 234.944 65.377,238.444 61.913,240.045 60.919 C 240.317 60.749,240.541 60.539,240.541 60.451 C 240.541 60.363,240.640 60.291,240.762 60.291 C 240.960 60.291,242.353 59.343,242.620 59.027 C 242.677 58.959,243.191 58.639,243.763 58.315 C 244.335 57.991,244.943 57.612,245.114 57.474 C 245.286 57.335,245.660 57.151,245.946 57.065 C 246.232 56.979,246.512 56.849,246.570 56.776 C 246.754 56.540,248.885 55.509,249.188 55.509 C 249.349 55.509,249.480 55.416,249.480 55.301 C 249.480 55.187,249.550 55.109,249.636 55.127 C 249.722 55.146,250.055 55.052,250.377 54.919 C 250.699 54.786,251.102 54.678,251.273 54.678 C 251.444 54.678,251.531 54.592,251.467 54.488 C 251.402 54.384,251.514 54.325,251.714 54.357 C 251.915 54.390,252.173 54.355,252.287 54.279 C 252.401 54.203,253.056 53.970,253.742 53.761 C 254.428 53.552,255.261 53.299,255.592 53.198 C 255.924 53.097,256.509 53.015,256.892 53.015 C 257.275 53.015,257.588 52.929,257.588 52.824 C 257.588 52.720,258.313 52.568,259.200 52.488 C 260.086 52.407,260.946 52.235,261.111 52.106 C 261.348 51.920,261.373 51.932,261.232 52.166 C 261.096 52.393,261.142 52.428,261.436 52.315 C 261.645 52.235,271.810 52.172,284.023 52.176 L 306.229 52.184 306.343 51.716 C 306.406 51.458,306.430 48.020,306.396 44.075 L 306.335 36.902 306.240 44.283 M250.052 37.773 C 249.852 37.826,249.688 37.958,249.688 38.068 C 249.688 38.193,249.833 38.191,250.077 38.060 C 250.290 37.946,250.524 37.912,250.596 37.984 C 250.669 38.056,250.728 38.006,250.728 37.872 C 250.728 37.622,250.666 37.613,250.052 37.773 M238.293 41.701 C 237.812 42.037,237.688 42.412,238.058 42.412 C 238.179 42.412,238.211 42.302,238.128 42.168 C 238.026 42.003,238.092 41.969,238.334 42.062 C 238.530 42.137,238.639 42.114,238.575 42.011 C 238.511 41.908,238.576 41.781,238.720 41.730 C 238.864 41.679,238.929 41.580,238.865 41.509 C 238.801 41.439,238.543 41.525,238.293 41.701 M234.015 43.984 C 233.947 44.163,233.796 44.251,233.681 44.180 C 233.566 44.109,233.472 44.191,233.472 44.362 C 233.472 44.558,233.323 44.646,233.075 44.598 C 232.534 44.494,231.962 44.950,231.877 45.553 C 231.825 45.924,231.857 45.974,232.002 45.748 C 232.109 45.582,232.139 45.348,232.067 45.228 C 231.995 45.108,232.087 45.132,232.270 45.280 C 232.549 45.507,232.648 45.486,232.881 45.152 C 233.035 44.933,233.227 44.765,233.309 44.778 C 233.533 44.815,234.304 44.110,234.304 43.869 C 234.304 43.556,234.157 43.615,234.015 43.984 M231.042 45.594 C 230.949 45.748,230.569 46.051,230.198 46.267 C 229.414 46.722,229.316 47.044,229.990 46.948 C 230.247 46.911,230.457 46.741,230.457 46.570 C 230.457 46.398,230.660 46.229,230.908 46.194 C 231.386 46.126,231.708 45.621,231.397 45.428 C 231.294 45.365,231.135 45.440,231.042 45.594 " stroke="none" fill="#919191" fill-rule="evenodd"></path><path id="path1" d="M224.324 50.660 L 223.805 51.191 224.376 50.832 C 224.691 50.634,224.948 50.389,224.948 50.288 C 224.948 50.036,224.917 50.055,224.324 50.660 M209.580 71.486 C 209.307 71.996,209.298 72.141,209.539 72.141 C 209.728 72.141,210.024 71.286,209.884 71.145 C 209.840 71.102,209.704 71.255,209.580 71.486 M222.027 93.082 C 221.970 93.565,222.003 93.881,222.100 93.784 C 222.196 93.687,222.243 93.292,222.203 92.906 C 222.133 92.221,222.128 92.225,222.027 93.082 M204.288 93.251 C 204.216 93.437,204.166 93.745,204.176 93.936 C 204.186 94.127,204.276 94.007,204.377 93.669 C 204.573 93.013,204.504 92.689,204.288 93.251 M204.158 98.857 C 204.158 100.553,204.200 101.898,204.251 101.847 C 204.396 101.703,204.427 96.041,204.284 95.899 C 204.215 95.829,204.158 97.160,204.158 98.857 M221.993 102.495 C 222.043 102.838,222.121 103.119,222.165 103.119 C 222.209 103.119,222.245 102.838,222.245 102.495 C 222.245 102.152,222.168 101.871,222.073 101.871 C 221.979 101.871,221.943 102.152,221.993 102.495 M204.284 103.241 C 204.102 103.715,204.130 104.158,204.342 104.158 C 204.577 104.158,204.778 103.140,204.568 103.011 C 204.481 102.957,204.353 103.060,204.284 103.241 M222.135 105.223 C 222.183 105.924,222.122 106.396,221.969 106.495 C 221.787 106.613,221.794 106.697,221.996 106.828 C 222.222 106.973,222.412 107.820,222.504 109.086 C 222.514 109.224,222.588 109.297,222.668 109.247 C 222.748 109.198,222.794 109.599,222.770 110.140 C 222.743 110.771,222.828 111.197,223.010 111.331 C 223.200 111.470,220.448 111.538,214.609 111.538 C 205.795 111.538,205.096 111.480,205.531 110.775 C 205.580 110.696,205.545 110.585,205.453 110.528 C 205.361 110.471,205.267 110.652,205.244 110.930 C 205.221 111.207,205.271 111.435,205.356 111.436 C 205.440 111.436,205.533 112.063,205.563 112.827 C 205.592 113.592,205.716 114.280,205.839 114.356 C 205.962 114.432,206.163 115.209,206.286 116.083 C 206.408 116.957,206.585 117.672,206.677 117.672 C 206.770 117.672,206.908 118.139,206.984 118.711 C 207.060 119.283,207.193 119.751,207.280 119.751 C 207.367 119.751,207.503 120.097,207.582 120.520 C 207.662 120.943,207.883 121.418,208.073 121.575 C 208.264 121.732,208.303 121.801,208.160 121.729 C 208.007 121.651,207.900 121.730,207.900 121.921 C 207.900 122.099,207.984 122.245,208.087 122.245 C 208.190 122.245,208.387 122.713,208.524 123.285 C 208.661 123.857,208.846 124.324,208.934 124.324 C 209.023 124.324,209.155 124.619,209.227 124.979 C 209.355 125.621,210.168 127.445,210.417 127.651 C 210.486 127.708,210.657 128.106,210.797 128.534 C 210.937 128.963,211.130 129.314,211.226 129.314 C 211.323 129.314,211.463 129.596,211.539 129.940 C 211.615 130.284,211.787 130.682,211.922 130.823 C 212.057 130.965,212.287 131.315,212.435 131.601 C 213.096 132.885,213.340 133.264,213.508 133.264 C 213.607 133.264,213.750 133.544,213.825 133.886 C 213.900 134.229,214.072 134.580,214.206 134.666 C 214.340 134.753,214.590 135.104,214.761 135.447 C 214.932 135.790,215.189 136.146,215.332 136.237 C 215.475 136.328,215.593 136.503,215.593 136.624 C 215.593 136.745,215.990 137.325,216.476 137.913 C 216.962 138.501,217.453 139.107,217.568 139.260 C 217.682 139.413,218.080 139.860,218.451 140.254 C 218.823 140.648,219.127 141.026,219.127 141.095 C 219.127 141.276,224.192 146.356,224.376 146.359 C 224.462 146.360,224.702 146.525,224.909 146.726 C 225.508 147.304,227.406 148.896,227.914 149.247 C 228.170 149.423,228.496 149.682,228.639 149.822 C 228.783 149.962,229.087 150.136,229.315 150.208 C 229.543 150.281,229.730 150.416,229.730 150.509 C 229.730 150.601,230.010 150.793,230.353 150.936 C 230.696 151.078,230.977 151.276,230.977 151.377 C 230.977 151.477,231.067 151.559,231.176 151.559 C 231.353 151.559,232.614 152.322,233.160 152.759 C 233.274 152.851,233.695 153.057,234.096 153.218 C 234.496 153.379,234.892 153.622,234.977 153.759 C 235.061 153.896,235.387 154.072,235.702 154.151 C 236.017 154.230,236.322 154.358,236.381 154.434 C 236.590 154.708,238.162 155.460,238.825 155.604 C 239.197 155.684,239.501 155.829,239.501 155.925 C 239.501 156.021,239.805 156.167,240.177 156.248 C 240.548 156.330,241.178 156.571,241.577 156.784 C 241.975 156.998,242.513 157.173,242.772 157.173 C 243.031 157.173,243.243 157.253,243.243 157.352 C 243.243 157.451,243.805 157.651,244.491 157.796 C 245.177 157.942,245.738 158.136,245.738 158.227 C 245.738 158.318,246.440 158.511,247.297 158.655 C 248.155 158.799,248.857 158.984,248.857 159.067 C 248.857 159.150,249.699 159.336,250.728 159.482 C 251.757 159.628,252.599 159.812,252.599 159.891 C 252.599 159.970,253.324 160.101,254.210 160.183 C 255.096 160.265,255.915 160.408,256.029 160.500 C 256.601 160.961,264.042 161.123,284.648 161.123 L 306.445 161.123 306.445 153.338 L 306.445 145.553 283.360 145.490 C 267.425 145.446,260.230 145.358,260.127 145.206 C 260.046 145.085,258.950 144.864,257.692 144.714 C 256.435 144.564,255.359 144.370,255.301 144.282 C 255.244 144.195,254.519 143.999,253.690 143.846 C 252.861 143.694,252.183 143.504,252.183 143.424 C 252.183 143.345,251.809 143.217,251.351 143.139 C 250.894 143.062,250.520 142.921,250.520 142.826 C 250.520 142.730,250.216 142.588,249.844 142.509 C 249.472 142.430,248.674 142.142,248.071 141.869 C 247.467 141.596,246.882 141.372,246.771 141.372 C 246.660 141.372,246.570 141.293,246.570 141.197 C 246.570 141.101,246.195 140.910,245.738 140.773 C 245.281 140.636,244.906 140.441,244.906 140.341 C 244.906 140.240,244.634 140.098,244.300 140.025 C 243.967 139.951,243.646 139.766,243.587 139.612 C 243.528 139.458,243.192 139.269,242.841 139.192 C 242.491 139.115,242.204 138.964,242.204 138.856 C 242.204 138.748,241.970 138.570,241.684 138.462 C 241.398 138.353,241.164 138.168,241.164 138.051 C 241.164 137.934,241.047 137.838,240.904 137.838 C 240.661 137.837,239.824 137.224,239.068 136.493 C 238.887 136.318,238.669 136.175,238.584 136.175 C 238.499 136.175,238.066 135.808,237.622 135.360 C 237.178 134.912,236.624 134.484,236.391 134.410 C 236.158 134.336,235.967 134.201,235.967 134.109 C 235.967 133.884,234.087 132.017,233.860 132.017 C 233.761 132.017,233.680 131.898,233.680 131.754 C 233.680 131.492,233.144 130.796,231.861 129.393 C 231.489 128.987,231.185 128.588,231.185 128.507 C 231.185 128.347,230.653 127.606,230.137 127.045 C 229.960 126.854,229.692 126.397,229.540 126.031 C 229.388 125.664,229.191 125.364,229.103 125.364 C 229.015 125.364,228.884 125.126,228.811 124.836 C 228.730 124.516,228.586 124.364,228.444 124.452 C 228.301 124.540,228.268 124.503,228.360 124.355 C 228.442 124.222,228.363 123.967,228.184 123.788 C 228.005 123.609,227.859 123.329,227.859 123.166 C 227.859 123.003,227.780 122.869,227.684 122.869 C 227.588 122.869,227.386 122.495,227.235 122.037 C 227.084 121.580,226.891 121.206,226.805 121.206 C 226.720 121.206,226.530 120.738,226.383 120.166 C 226.237 119.595,226.045 119.127,225.958 119.127 C 225.870 119.127,225.738 118.806,225.665 118.414 C 225.591 118.021,225.409 117.654,225.261 117.597 C 225.113 117.540,224.926 117.019,224.846 116.439 C 224.766 115.859,224.625 115.385,224.531 115.385 C 224.437 115.385,224.295 114.987,224.215 114.501 C 224.135 114.015,223.978 113.505,223.867 113.367 C 223.756 113.229,223.720 113.026,223.788 112.917 C 223.856 112.807,223.820 112.686,223.709 112.648 C 223.597 112.609,223.446 112.063,223.371 111.435 C 223.297 110.806,223.180 110.198,223.112 110.083 C 223.044 109.969,223.016 109.608,223.051 109.280 C 223.087 108.935,223.028 108.737,222.912 108.809 C 222.795 108.882,222.661 108.393,222.592 107.637 C 222.526 106.924,222.431 105.890,222.380 105.339 C 222.251 103.953,222.040 103.853,222.135 105.223 M204.574 106.451 C 204.574 106.677,204.691 106.862,204.834 106.864 C 204.997 106.866,205.016 106.924,204.883 107.020 C 204.617 107.212,204.745 109.771,205.020 109.771 C 205.131 109.771,205.164 109.678,205.094 109.563 C 205.023 109.449,205.064 109.356,205.185 109.356 C 205.306 109.356,205.404 109.145,205.402 108.888 C 205.400 108.506,205.361 108.477,205.190 108.732 C 205.043 108.951,205.006 108.630,205.064 107.653 C 205.128 106.603,205.078 106.236,204.861 106.152 C 204.677 106.082,204.574 106.189,204.574 106.451 " stroke="none" fill="#848484" fill-rule="evenodd"></path><path id="path2" d="M79.418 44.058 C 79.418 48.165,79.466 51.650,79.524 51.802 C 79.612 52.031,83.405 52.068,101.302 52.019 C 122.519 51.960,130.950 52.166,131.910 52.767 C 132.026 52.839,132.261 52.919,132.432 52.944 C 133.691 53.128,135.483 53.510,135.655 53.631 C 135.769 53.712,136.419 53.897,137.100 54.044 C 137.780 54.190,138.482 54.382,138.659 54.470 C 138.836 54.557,139.543 54.840,140.229 55.097 C 142.921 56.108,146.487 57.996,149.349 59.925 C 152.720 62.199,157.167 66.740,159.480 70.270 C 160.042 71.128,160.571 71.928,160.656 72.048 C 161.261 72.904,163.092 76.446,163.714 77.963 C 164.018 78.706,164.402 79.609,164.566 79.969 C 164.730 80.329,164.865 80.736,164.865 80.873 C 164.865 81.010,164.999 81.417,165.163 81.777 C 165.696 82.950,167.020 88.560,167.255 90.644 C 167.339 91.388,167.455 92.183,167.513 92.412 C 168.023 94.437,168.083 106.012,167.586 106.509 C 167.462 106.634,167.359 107.115,167.357 107.578 C 167.356 108.041,167.114 109.356,166.820 110.499 C 166.526 111.642,166.253 112.802,166.214 113.076 C 166.174 113.350,166.054 113.631,165.945 113.700 C 165.837 113.769,165.678 114.150,165.592 114.546 C 165.429 115.298,165.367 115.458,164.796 116.597 C 164.605 116.978,164.449 117.463,164.449 117.676 C 164.449 117.889,164.360 118.118,164.251 118.185 C 163.939 118.378,162.057 122.309,162.084 122.713 C 162.097 122.913,161.981 123.077,161.826 123.077 C 161.671 123.077,161.406 123.408,161.237 123.812 C 161.068 124.216,160.790 124.687,160.619 124.857 C 160.448 125.028,160.368 125.322,160.440 125.510 C 160.539 125.767,160.485 125.819,160.223 125.718 C 159.887 125.589,159.784 125.769,159.860 126.351 C 159.878 126.494,159.749 126.611,159.573 126.611 C 159.396 126.611,159.252 126.752,159.252 126.923 C 159.252 127.095,159.142 127.235,159.009 127.235 C 158.876 127.235,158.828 127.297,158.904 127.372 C 158.979 127.448,158.853 127.641,158.623 127.802 C 158.393 127.963,158.259 128.182,158.325 128.289 C 158.391 128.395,158.293 128.482,158.108 128.482 C 157.923 128.482,157.824 128.567,157.888 128.671 C 157.953 128.775,157.718 129.102,157.367 129.397 C 157.017 129.692,156.790 130.030,156.863 130.149 C 156.936 130.267,156.876 130.338,156.730 130.307 C 156.583 130.275,156.460 130.366,156.454 130.509 C 156.449 130.652,156.369 130.764,156.275 130.759 C 156.008 130.742,155.286 131.752,155.349 132.055 C 155.380 132.205,155.290 132.306,155.149 132.278 C 154.865 132.221,153.089 134.060,153.168 134.328 C 153.195 134.421,153.062 134.437,152.872 134.364 C 152.614 134.265,152.559 134.317,152.656 134.569 C 152.745 134.800,152.696 134.872,152.500 134.796 C 152.338 134.734,152.061 134.920,151.863 135.223 C 151.669 135.518,151.425 135.759,151.319 135.759 C 151.213 135.759,150.929 135.943,150.687 136.167 C 150.446 136.392,150.183 136.535,150.102 136.486 C 150.022 136.436,150.000 136.626,150.054 136.909 C 150.134 137.327,150.069 137.422,149.700 137.422 C 149.410 137.422,149.301 137.509,149.397 137.663 C 149.499 137.829,149.401 137.866,149.081 137.782 C 148.751 137.696,148.646 137.739,148.720 137.931 C 148.777 138.081,148.600 138.304,148.320 138.431 C 148.044 138.557,147.817 138.747,147.817 138.853 C 147.817 138.958,147.536 139.142,147.193 139.262 C 146.850 139.382,146.570 139.575,146.570 139.692 C 146.570 139.808,146.414 139.844,146.224 139.771 C 145.991 139.682,145.927 139.718,146.028 139.882 C 146.118 140.027,146.049 140.125,145.854 140.125 C 145.676 140.125,145.530 140.207,145.530 140.307 C 145.530 140.569,144.350 141.023,144.090 140.862 C 143.957 140.779,143.921 140.856,143.999 141.058 C 144.069 141.240,144.044 141.365,143.944 141.336 C 143.845 141.308,143.552 141.401,143.295 141.543 C 143.038 141.686,142.824 141.729,142.821 141.639 C 142.817 141.550,142.683 141.649,142.523 141.861 C 142.362 142.073,141.991 142.260,141.698 142.277 C 141.404 142.294,141.164 142.389,141.164 142.488 C 141.164 142.587,140.977 142.619,140.748 142.559 C 140.490 142.492,140.333 142.553,140.333 142.721 C 140.333 142.869,140.197 143.043,140.031 143.106 C 139.818 143.188,139.766 143.119,139.854 142.869 C 139.955 142.581,139.926 142.564,139.698 142.775 C 139.544 142.918,139.249 143.035,139.044 143.035 C 138.838 143.035,138.669 143.139,138.669 143.265 C 138.669 143.392,138.810 143.442,138.981 143.376 C 139.153 143.310,139.293 143.335,139.293 143.432 C 139.293 143.741,137.985 143.897,137.803 143.610 C 137.683 143.420,137.635 143.449,137.633 143.711 C 137.631 143.939,137.470 144.075,137.202 144.075 C 136.931 144.075,136.828 143.987,136.922 143.835 C 137.014 143.686,136.979 143.651,136.830 143.743 C 136.698 143.825,136.590 144.038,136.590 144.217 C 136.590 144.469,136.447 144.514,135.956 144.416 C 135.554 144.335,135.370 144.366,135.452 144.499 C 135.618 144.768,135.080 144.663,134.884 144.388 C 134.790 144.257,134.643 144.276,134.479 144.440 C 134.337 144.582,134.049 144.699,133.840 144.699 C 133.630 144.699,133.401 144.849,133.331 145.032 C 133.231 145.293,133.026 145.337,132.387 145.235 C 131.853 145.150,131.616 145.178,131.702 145.317 C 131.774 145.434,131.734 145.530,131.613 145.530 C 131.492 145.530,131.393 145.439,131.393 145.327 C 131.393 145.066,130.316 145.464,130.104 145.803 C 129.987 145.991,129.845 145.984,129.506 145.775 C 129.262 145.623,129.125 145.600,129.200 145.723 C 129.369 145.996,128.907 146.011,128.488 145.746 C 128.286 145.618,128.129 145.637,128.028 145.801 C 127.910 145.991,122.230 146.063,103.854 146.105 L 79.834 146.161 79.834 148.444 L 79.834 150.728 119.751 150.728 C 142.710 150.728,159.667 150.650,159.667 150.544 C 159.667 150.354,160.367 150.061,160.915 150.022 C 161.086 150.010,161.227 149.906,161.227 149.792 C 161.227 149.450,162.161 148.623,162.583 148.591 C 162.799 148.575,162.941 148.526,162.898 148.484 C 162.757 148.342,163.496 147.609,163.780 147.609 C 163.933 147.609,163.999 147.704,163.927 147.820 C 163.855 147.937,163.695 147.969,163.571 147.892 C 163.431 147.806,163.406 147.850,163.505 148.011 C 163.673 148.283,164.109 148.009,164.163 147.599 C 164.177 147.490,164.201 147.292,164.215 147.159 C 164.229 147.025,164.306 146.981,164.386 147.061 C 164.466 147.141,164.660 146.993,164.816 146.732 C 164.973 146.471,165.053 146.417,164.994 146.611 C 164.922 146.847,164.979 146.929,165.164 146.857 C 165.322 146.797,165.397 146.576,165.337 146.348 C 165.280 146.127,165.337 145.946,165.464 145.946 C 165.592 145.946,165.696 146.058,165.696 146.195 C 165.696 146.385,165.759 146.383,165.955 146.187 C 166.160 145.981,166.156 145.893,165.932 145.755 C 165.737 145.635,165.722 145.539,165.882 145.440 C 166.009 145.362,166.112 145.397,166.112 145.518 C 166.112 145.639,166.212 145.738,166.334 145.738 C 166.466 145.738,166.499 145.558,166.416 145.296 C 166.321 144.999,166.351 144.901,166.506 144.997 C 166.632 145.075,166.736 145.055,166.736 144.952 C 166.736 144.849,166.979 144.655,167.276 144.519 C 167.573 144.384,167.774 144.158,167.722 144.018 C 167.670 143.878,167.812 143.576,168.038 143.347 C 168.448 142.932,168.448 142.932,168.293 143.441 C 168.146 143.921,168.157 143.930,168.489 143.599 C 168.683 143.405,168.797 143.175,168.743 143.087 C 168.593 142.845,169.148 142.180,169.441 142.248 C 169.583 142.281,169.741 142.167,169.792 141.996 C 169.876 141.719,169.862 141.719,169.666 141.996 C 169.529 142.189,169.444 142.213,169.442 142.060 C 169.440 141.923,169.602 141.689,169.802 141.540 C 170.003 141.390,170.297 141.016,170.456 140.707 C 170.615 140.398,171.083 140.005,171.495 139.834 C 171.908 139.663,172.128 139.518,171.985 139.512 C 171.843 139.506,171.726 139.402,171.726 139.281 C 171.726 139.160,171.818 139.118,171.931 139.188 C 172.049 139.260,172.084 139.177,172.013 138.994 C 171.941 138.805,172.027 138.620,172.224 138.545 C 172.407 138.475,172.564 138.263,172.572 138.075 C 172.585 137.777,172.604 137.779,172.730 138.097 C 172.861 138.429,172.898 138.422,173.147 138.023 C 173.297 137.783,173.338 137.637,173.239 137.698 C 173.140 137.759,173.046 137.628,173.029 137.408 C 173.010 137.157,173.130 137.007,173.350 137.009 C 173.652 137.012,173.658 137.040,173.389 137.214 C 173.217 137.325,173.173 137.417,173.291 137.419 C 173.514 137.422,174.220 136.685,174.220 136.449 C 174.220 136.373,174.375 136.140,174.564 135.931 C 174.783 135.690,174.818 135.551,174.660 135.551 C 174.477 135.551,174.482 135.475,174.680 135.260 C 174.827 135.100,174.985 135.004,175.029 135.047 C 175.128 135.141,176.299 133.322,176.299 133.074 C 176.299 132.978,176.446 132.777,176.626 132.628 C 176.806 132.479,176.905 132.179,176.848 131.959 C 176.790 131.739,176.795 131.611,176.858 131.674 C 177.083 131.899,177.608 131.143,177.629 130.563 C 177.641 130.239,177.744 129.989,177.859 130.007 C 177.973 130.026,178.060 129.836,178.051 129.584 C 178.043 129.331,178.128 129.184,178.242 129.254 C 178.366 129.331,178.394 129.238,178.312 129.025 C 178.235 128.824,178.260 128.721,178.370 128.789 C 178.560 128.907,179.077 128.170,179.096 127.755 C 179.102 127.640,179.466 126.820,179.907 125.933 C 180.347 125.045,180.655 124.182,180.591 124.015 C 180.526 123.846,180.658 123.583,180.891 123.421 C 181.119 123.261,181.287 123.047,181.264 122.947 C 181.240 122.847,181.418 122.324,181.660 121.786 C 181.901 121.247,182.163 120.452,182.241 120.019 C 182.320 119.585,182.503 118.995,182.649 118.706 C 182.988 118.036,183.978 114.052,184.276 112.162 C 184.312 111.933,184.407 111.419,184.488 111.019 C 184.569 110.619,184.715 109.636,184.812 108.836 C 184.908 108.035,185.050 107.147,185.126 106.861 C 185.566 105.217,185.442 92.661,184.962 90.229 C 184.905 89.943,184.797 89.148,184.722 88.462 C 184.551 86.910,183.652 82.370,183.240 80.977 C 183.071 80.405,182.741 79.283,182.508 78.482 C 182.275 77.682,182.005 76.840,181.909 76.611 C 181.813 76.383,181.623 75.836,181.489 75.396 C 181.354 74.956,181.114 74.348,180.956 74.044 C 180.797 73.741,180.667 73.413,180.667 73.316 C 180.663 72.888,178.518 68.455,177.097 65.941 C 176.430 64.760,175.884 63.750,175.884 63.697 C 175.884 63.644,175.790 63.487,175.676 63.349 C 175.562 63.211,174.537 61.835,173.399 60.291 C 170.886 56.883,167.537 53.271,164.818 51.037 C 163.706 50.124,162.794 49.306,162.791 49.220 C 162.788 49.135,162.690 49.064,162.572 49.064 C 162.454 49.064,161.770 48.608,161.051 48.050 C 160.332 47.492,159.470 46.881,159.134 46.693 C 158.799 46.504,158.275 46.188,157.971 45.992 C 157.666 45.795,156.965 45.362,156.411 45.028 C 155.858 44.695,155.348 44.336,155.278 44.231 C 155.208 44.126,155.091 44.048,155.017 44.060 C 154.944 44.071,153.634 43.471,152.107 42.726 C 150.580 41.981,149.248 41.369,149.146 41.365 C 149.044 41.361,148.586 41.177,148.129 40.956 C 147.672 40.735,147.186 40.551,147.051 40.548 C 146.915 40.544,146.541 40.433,146.219 40.301 C 145.897 40.169,145.541 40.038,145.426 40.011 C 145.312 39.983,144.657 39.773,143.971 39.542 C 142.654 39.100,141.614 38.807,141.268 38.779 C 141.154 38.770,140.967 38.706,140.852 38.636 C 140.738 38.567,139.943 38.400,139.085 38.266 C 138.228 38.132,137.339 37.937,137.110 37.833 C 136.881 37.729,135.946 37.550,135.031 37.434 C 134.116 37.318,133.134 37.177,132.848 37.120 C 130.785 36.712,124.564 36.602,103.274 36.597 L 79.418 36.590 79.418 44.058 M170.859 140.558 C 170.669 140.758,170.567 140.976,170.633 141.042 C 170.699 141.108,170.888 140.969,171.052 140.734 C 171.433 140.190,171.314 140.081,170.859 140.558 " stroke="none" fill="#dc2c1c" fill-rule="evenodd"></path><path id="path3" d="M137.126 37.863 C 137.243 38.053,138.669 38.203,138.669 38.026 C 138.669 37.946,138.303 37.847,137.855 37.804 C 137.408 37.761,137.079 37.788,137.126 37.863 M153.339 43.341 C 153.561 43.508,153.836 43.646,153.950 43.646 C 154.064 43.646,153.976 43.508,153.754 43.341 C 153.532 43.173,153.257 43.035,153.143 43.035 C 153.029 43.035,153.117 43.173,153.339 43.341 M157.394 45.650 C 157.669 45.981,158.004 46.043,158.004 45.762 C 158.004 45.661,157.812 45.528,157.576 45.467 C 157.226 45.375,157.193 45.408,157.394 45.650 M160.083 47.293 C 160.083 47.337,160.364 47.573,160.707 47.817 C 161.050 48.061,161.330 48.185,161.329 48.091 C 161.329 47.998,161.048 47.762,160.706 47.567 C 160.363 47.372,160.083 47.249,160.083 47.293 M161.897 48.664 C 162.151 48.929,162.411 49.093,162.475 49.029 C 162.539 48.965,162.331 48.749,162.013 48.548 L 161.435 48.183 161.897 48.664 M165.395 51.510 C 165.504 51.598,165.873 51.902,166.216 52.185 L 166.840 52.701 166.229 52.026 C 165.893 51.655,165.524 51.351,165.408 51.351 C 165.277 51.351,165.272 51.412,165.395 51.510 M90.888 52.131 C 97.026 52.162,107.130 52.162,113.342 52.131 C 119.554 52.100,114.532 52.075,102.183 52.075 C 89.834 52.075,84.751 52.100,90.888 52.131 M134.511 53.511 C 134.511 53.555,134.787 53.632,135.124 53.681 C 135.461 53.730,135.690 53.694,135.632 53.601 C 135.529 53.434,134.511 53.352,134.511 53.511 M169.559 55.535 C 170.122 56.178,170.624 56.665,170.676 56.619 C 170.728 56.572,170.267 56.046,169.653 55.450 L 168.535 54.366 169.559 55.535 M172.349 58.744 C 172.349 58.808,172.677 59.290,173.077 59.814 C 173.985 61.003,174.039 60.790,173.146 59.545 C 172.509 58.659,172.349 58.498,172.349 58.744 M149.480 60.166 C 149.480 60.219,149.784 60.476,150.156 60.737 C 150.635 61.073,150.746 61.104,150.537 60.843 C 150.239 60.473,149.480 59.986,149.480 60.166 M155.717 65.778 C 155.717 65.865,155.998 66.217,156.341 66.560 C 156.684 66.903,156.965 67.101,156.965 66.999 C 156.965 66.897,156.684 66.545,156.341 66.216 C 155.998 65.888,155.717 65.690,155.717 65.778 M157.380 67.681 C 157.380 67.743,157.627 68.047,157.929 68.356 L 158.478 68.919 158.019 68.243 C 157.585 67.605,157.380 67.424,157.380 67.681 M158.907 69.747 C 159.039 70.031,159.270 70.311,159.421 70.369 C 159.573 70.428,159.498 70.201,159.250 69.853 C 158.711 69.096,158.586 69.057,158.907 69.747 M161.233 73.389 C 161.411 74.010,161.497 74.123,161.664 73.957 C 161.732 73.888,161.630 73.615,161.436 73.350 L 161.084 72.869 161.233 73.389 M180.814 73.808 C 180.874 74.038,181.022 74.288,181.142 74.362 C 181.279 74.446,181.308 74.362,181.220 74.134 C 181.144 73.934,181.081 73.685,181.081 73.580 C 181.081 73.475,180.996 73.389,180.893 73.389 C 180.789 73.389,180.754 73.577,180.814 73.808 M181.719 76.027 C 181.711 76.278,181.798 76.541,181.913 76.611 C 182.159 76.763,182.159 76.560,181.913 75.988 C 181.740 75.587,181.733 75.588,181.719 76.027 M163.531 77.963 C 163.685 78.542,163.783 78.698,163.912 78.569 C 163.960 78.521,163.863 78.248,163.696 77.962 L 163.392 77.443 163.531 77.963 M164.345 80.042 C 164.428 80.327,164.589 80.655,164.704 80.769 C 164.842 80.908,164.861 80.804,164.761 80.457 C 164.678 80.172,164.517 79.844,164.402 79.730 C 164.264 79.591,164.245 79.695,164.345 80.042 M165.236 82.532 C 165.287 82.880,165.415 83.219,165.521 83.284 C 165.633 83.353,165.655 83.157,165.574 82.814 C 165.378 81.983,165.124 81.772,165.236 82.532 M183.990 84.330 C 184.308 85.803,184.391 85.977,184.278 84.927 C 184.216 84.356,184.087 83.806,183.991 83.707 C 183.895 83.607,183.895 83.888,183.990 84.330 M184.776 88.929 C 184.896 90.136,184.997 90.224,185.015 89.137 C 185.024 88.594,184.956 88.150,184.865 88.150 C 184.774 88.150,184.734 88.501,184.776 88.929 M167.448 92.792 C 167.514 93.002,167.568 93.914,167.568 94.819 C 167.568 95.725,167.638 96.466,167.725 96.466 C 167.949 96.466,167.773 93.100,167.530 92.723 C 167.368 92.473,167.352 92.487,167.448 92.792 M167.565 104.522 C 167.563 105.179,167.504 105.951,167.432 106.237 C 167.344 106.593,167.371 106.691,167.519 106.549 C 167.783 106.294,167.990 103.326,167.744 103.326 C 167.647 103.326,167.566 103.864,167.565 104.522 M184.940 107.536 C 184.768 108.354,184.704 109.766,184.847 109.610 C 184.985 109.459,185.227 107.069,185.104 107.069 C 185.068 107.069,184.995 107.279,184.940 107.536 M166.653 110.416 C 166.577 110.892,166.555 111.323,166.604 111.372 C 166.654 111.422,166.760 111.076,166.840 110.603 C 166.920 110.130,166.942 109.700,166.888 109.646 C 166.835 109.593,166.729 109.939,166.653 110.416 M184.112 112.942 C 183.890 114.032,183.845 114.573,183.991 114.413 C 184.174 114.211,184.460 112.474,184.310 112.474 C 184.254 112.474,184.165 112.685,184.112 112.942 M165.857 113.183 C 165.800 113.479,165.825 113.721,165.911 113.721 C 166.160 113.721,166.297 113.189,166.121 112.904 C 166.013 112.729,165.926 112.821,165.857 113.183 M165.281 114.640 C 165.281 114.802,165.218 115.098,165.141 115.298 C 165.054 115.526,165.083 115.611,165.221 115.526 C 165.496 115.355,165.701 114.345,165.460 114.345 C 165.361 114.345,165.281 114.478,165.281 114.640 M183.428 115.921 C 183.308 116.445,183.285 116.795,183.377 116.701 C 183.562 116.509,183.883 114.969,183.738 114.969 C 183.687 114.969,183.548 115.397,183.428 115.921 M164.148 117.723 C 164.060 118.038,163.915 118.295,163.825 118.295 C 163.736 118.295,163.598 118.552,163.520 118.867 C 163.441 119.181,163.255 119.579,163.106 119.751 C 162.799 120.104,162.487 120.998,162.671 120.998 C 162.737 120.998,163.035 120.460,163.332 119.802 C 163.630 119.145,164.011 118.450,164.179 118.259 C 164.348 118.067,164.446 117.740,164.397 117.531 C 164.327 117.233,164.273 117.275,164.148 117.723 M182.548 118.890 C 182.397 119.256,182.329 119.613,182.399 119.682 C 182.553 119.837,182.994 118.731,182.895 118.436 C 182.856 118.319,182.700 118.523,182.548 118.890 M181.740 121.611 C 181.618 121.960,181.596 122.245,181.691 122.245 C 181.856 122.245,182.151 121.170,182.022 121.039 C 181.988 121.005,181.861 121.262,181.740 121.611 M162.209 121.462 C 162.087 121.608,161.923 121.985,161.844 122.298 C 161.766 122.612,161.629 122.869,161.541 122.869 C 161.453 122.869,161.258 123.173,161.108 123.545 C 160.958 123.916,160.713 124.295,160.563 124.387 C 160.413 124.478,160.291 124.681,160.291 124.837 C 160.291 124.993,160.181 125.158,160.046 125.203 C 159.912 125.248,159.871 125.396,159.955 125.532 C 160.174 125.887,160.566 125.838,160.426 125.474 C 160.362 125.306,160.448 125.028,160.619 124.857 C 160.790 124.687,161.068 124.216,161.237 123.812 C 161.406 123.408,161.675 123.077,161.835 123.077 C 161.997 123.077,162.098 122.916,162.063 122.713 C 162.028 122.513,162.138 122.131,162.306 121.863 C 162.638 121.334,162.565 121.032,162.209 121.462 M180.748 123.527 C 180.666 123.660,180.579 124.011,180.555 124.307 C 180.531 124.602,180.172 125.483,179.757 126.265 C 178.900 127.878,178.897 127.886,179.295 127.733 C 179.457 127.671,179.711 127.206,179.861 126.700 C 180.010 126.194,180.205 125.780,180.295 125.780 C 180.384 125.780,180.461 125.663,180.464 125.520 C 180.468 125.377,180.652 124.886,180.873 124.428 C 181.379 123.381,181.280 122.666,180.748 123.527 M159.598 125.918 C 159.391 126.125,159.431 126.611,159.654 126.611 C 159.762 126.611,159.835 126.424,159.818 126.195 C 159.783 125.726,159.786 125.730,159.598 125.918 M158.885 126.853 C 158.744 126.994,158.628 127.232,158.628 127.380 C 158.628 127.529,158.538 127.651,158.427 127.651 C 158.317 127.651,158.127 127.838,158.004 128.067 C 157.825 128.402,157.846 128.482,158.113 128.482 C 158.295 128.482,158.391 128.395,158.325 128.289 C 158.259 128.182,158.415 127.948,158.671 127.769 C 158.927 127.590,159.045 127.441,158.934 127.440 C 158.823 127.438,158.860 127.355,159.017 127.256 C 159.174 127.156,159.266 126.967,159.222 126.835 C 159.164 126.659,159.074 126.664,158.885 126.853 M178.791 128.488 C 178.667 128.720,178.478 128.856,178.370 128.789 C 178.260 128.721,178.235 128.824,178.312 129.025 C 178.394 129.238,178.366 129.331,178.242 129.254 C 178.128 129.184,178.043 129.331,178.051 129.584 C 178.060 129.838,177.954 130.020,177.814 129.992 C 177.668 129.964,177.612 130.073,177.680 130.252 C 177.870 130.747,178.126 130.611,178.274 129.938 C 178.350 129.595,178.488 129.314,178.582 129.314 C 178.677 129.314,178.851 129.033,178.971 128.690 C 179.220 127.975,179.124 127.867,178.791 128.488 M157.236 129.203 C 156.915 129.486,156.753 129.720,156.876 129.723 C 156.999 129.727,157.320 129.496,157.588 129.210 C 158.216 128.542,157.993 128.538,157.236 129.203 M155.328 131.322 C 154.836 131.878,154.725 132.125,154.916 132.244 C 155.233 132.439,155.563 132.272,155.395 132.000 C 155.267 131.793,155.908 130.860,156.202 130.825 C 156.527 130.786,156.619 130.561,156.310 130.561 C 156.140 130.561,155.699 130.904,155.328 131.322 M177.131 131.613 C 177.131 131.734,177.038 131.776,176.925 131.706 C 176.808 131.633,176.773 131.717,176.844 131.902 C 177.015 132.348,177.269 132.305,177.399 131.809 C 177.459 131.580,177.423 131.393,177.319 131.393 C 177.216 131.393,177.131 131.492,177.131 131.613 M153.742 133.078 C 153.399 133.412,152.616 134.151,152.002 134.722 C 151.388 135.292,151.026 135.759,151.198 135.759 C 151.371 135.759,151.669 135.518,151.863 135.223 C 152.061 134.920,152.338 134.734,152.500 134.796 C 152.696 134.872,152.745 134.800,152.656 134.569 C 152.555 134.305,152.612 134.264,152.920 134.382 C 153.137 134.465,153.244 134.464,153.159 134.379 C 153.075 134.294,153.401 133.822,153.885 133.329 C 154.858 132.337,154.733 132.116,153.742 133.078 M176.357 133.004 C 176.148 133.555,175.122 135.135,175.029 135.047 C 174.985 135.004,174.827 135.100,174.680 135.260 C 174.482 135.475,174.477 135.551,174.660 135.551 C 174.818 135.551,174.783 135.690,174.564 135.931 C 174.375 136.140,174.220 136.413,174.220 136.538 C 174.220 136.662,174.103 136.811,173.960 136.869 C 173.756 136.951,173.757 136.977,173.966 136.990 C 174.111 136.999,174.322 136.796,174.433 136.538 C 174.611 136.127,175.765 134.390,176.273 133.768 C 176.521 133.465,176.774 132.640,176.619 132.640 C 176.550 132.640,176.432 132.804,176.357 133.004 M150.180 136.277 C 150.114 136.448,149.961 136.526,149.839 136.451 C 149.706 136.369,149.664 136.436,149.734 136.618 C 149.808 136.811,149.713 136.932,149.471 136.950 C 149.263 136.965,148.899 137.172,148.663 137.408 C 148.426 137.644,148.139 137.838,148.025 137.838 C 147.911 137.838,147.817 138.019,147.817 138.241 C 147.817 138.463,147.708 138.713,147.574 138.795 C 147.412 138.895,147.374 138.833,147.460 138.609 C 147.571 138.319,147.517 138.304,147.079 138.504 C 146.799 138.632,146.570 138.867,146.570 139.027 C 146.570 139.187,146.484 139.265,146.379 139.200 C 146.273 139.135,146.043 139.226,145.866 139.403 C 145.690 139.579,145.471 139.744,145.382 139.768 C 145.292 139.793,145.234 139.860,145.253 139.917 C 145.272 139.974,145.049 140.035,144.758 140.052 C 144.265 140.082,143.805 140.479,143.964 140.739 C 144.003 140.801,143.743 140.863,143.388 140.877 C 143.033 140.890,142.707 141.007,142.663 141.137 C 142.620 141.266,142.452 141.372,142.290 141.372 C 142.128 141.372,141.996 141.446,141.996 141.536 C 141.996 141.626,141.794 141.715,141.547 141.733 C 141.300 141.752,141.043 141.842,140.975 141.933 C 140.859 142.091,139.638 142.575,138.046 143.093 C 137.646 143.224,137.255 143.421,137.179 143.532 C 137.102 143.643,136.868 143.757,136.659 143.786 C 136.450 143.815,136.091 143.885,135.863 143.941 C 135.634 143.997,135.233 144.050,134.971 144.059 C 134.584 144.072,134.543 144.126,134.754 144.352 C 135.033 144.650,135.602 144.741,135.428 144.459 C 135.370 144.366,135.608 144.346,135.956 144.416 C 136.436 144.512,136.590 144.467,136.590 144.234 C 136.590 144.016,136.744 143.954,137.110 144.024 C 137.514 144.101,137.631 144.037,137.633 143.735 C 137.635 143.461,137.685 143.424,137.803 143.610 C 137.985 143.897,139.293 143.741,139.293 143.432 C 139.293 143.335,139.153 143.310,138.981 143.376 C 138.810 143.442,138.669 143.392,138.669 143.265 C 138.669 143.139,138.838 143.035,139.044 143.035 C 139.249 143.035,139.544 142.918,139.698 142.775 C 139.926 142.564,139.955 142.581,139.854 142.869 C 139.766 143.119,139.818 143.188,140.031 143.106 C 140.197 143.043,140.333 142.869,140.333 142.721 C 140.333 142.553,140.490 142.492,140.748 142.559 C 140.977 142.619,141.164 142.587,141.164 142.488 C 141.164 142.389,141.404 142.294,141.698 142.277 C 141.991 142.260,142.362 142.073,142.523 141.861 C 142.683 141.649,142.817 141.550,142.821 141.639 C 142.824 141.729,143.038 141.686,143.295 141.543 C 143.552 141.401,143.833 141.304,143.919 141.328 C 144.005 141.352,144.075 141.297,144.075 141.206 C 144.075 141.115,144.402 140.921,144.802 140.777 C 145.203 140.632,145.530 140.426,145.530 140.319 C 145.530 140.212,145.676 140.125,145.854 140.125 C 146.049 140.125,146.118 140.027,146.028 139.882 C 145.927 139.718,145.991 139.682,146.224 139.771 C 146.414 139.844,146.570 139.808,146.570 139.692 C 146.570 139.575,146.850 139.382,147.193 139.262 C 147.536 139.142,147.817 138.958,147.817 138.853 C 147.817 138.747,148.044 138.557,148.320 138.431 C 148.600 138.304,148.777 138.081,148.720 137.931 C 148.646 137.739,148.751 137.696,149.081 137.782 C 149.401 137.866,149.499 137.829,149.397 137.663 C 149.302 137.510,149.405 137.422,149.676 137.422 C 149.961 137.422,150.104 137.287,150.104 137.018 C 150.104 136.796,150.312 136.468,150.566 136.290 C 150.954 136.019,150.969 135.967,150.663 135.967 C 150.463 135.967,150.245 136.107,150.180 136.277 M173.042 137.734 C 173.042 138.601,173.194 138.655,173.539 137.911 C 173.812 137.322,173.731 137.006,173.307 137.006 C 173.143 137.006,173.042 137.283,173.042 137.734 M172.572 138.075 C 172.564 138.263,172.407 138.475,172.224 138.545 C 172.027 138.620,171.941 138.805,172.013 138.994 C 172.084 139.177,172.049 139.260,171.931 139.188 C 171.818 139.118,171.726 139.167,171.726 139.296 C 171.726 139.662,172.373 139.445,172.667 138.981 C 172.832 138.721,172.866 138.410,172.758 138.150 C 172.625 137.827,172.583 137.811,172.572 138.075 M171.178 139.952 C 170.933 140.070,170.606 140.415,170.450 140.718 C 170.294 141.020,170.003 141.390,169.802 141.540 C 169.602 141.689,169.440 141.923,169.442 142.060 C 169.444 142.209,169.525 142.184,169.647 141.996 C 169.781 141.788,169.849 141.771,169.851 141.944 C 169.853 142.087,169.958 142.204,170.085 142.204 C 170.211 142.204,170.259 142.059,170.191 141.881 C 170.123 141.704,170.151 141.610,170.254 141.674 C 170.356 141.737,170.683 141.485,170.980 141.113 C 171.277 140.741,171.676 140.273,171.867 140.073 C 172.272 139.648,171.929 139.588,171.178 139.952 M171.052 140.734 C 170.888 140.969,170.699 141.108,170.633 141.042 C 170.512 140.920,171.143 140.146,171.279 140.250 C 171.319 140.281,171.217 140.498,171.052 140.734 M168.903 142.582 C 168.818 142.774,168.769 143.016,168.793 143.120 C 168.817 143.224,168.718 143.383,168.572 143.473 C 168.426 143.563,168.375 143.704,168.458 143.788 C 168.599 143.928,169.854 142.697,169.854 142.418 C 169.854 142.123,169.043 142.263,168.903 142.582 M167.964 143.409 C 167.788 143.615,167.681 143.894,167.726 144.030 C 167.771 144.166,167.567 144.387,167.272 144.521 C 166.977 144.655,166.736 144.849,166.736 144.952 C 166.736 145.055,166.632 145.075,166.506 144.997 C 166.351 144.901,166.321 144.999,166.416 145.296 C 166.499 145.558,166.466 145.738,166.334 145.738 C 166.212 145.738,166.112 145.639,166.112 145.518 C 166.112 145.397,166.009 145.362,165.882 145.440 C 165.718 145.541,165.726 145.628,165.909 145.741 C 166.050 145.828,166.101 146.003,166.023 146.131 C 165.683 146.680,166.256 146.282,167.201 145.312 C 167.847 144.649,168.253 144.035,168.302 143.648 C 168.393 142.929,168.382 142.921,167.964 143.409 M131.811 144.763 C 130.378 144.959,129.613 145.288,129.842 145.611 C 129.893 145.683,129.823 145.647,129.686 145.532 C 129.401 145.290,127.859 145.245,127.859 145.478 C 127.859 145.564,116.959 145.609,103.638 145.579 L 79.418 145.523 79.418 153.333 L 79.418 161.142 105.873 161.065 C 130.814 160.991,135.572 160.903,136.071 160.504 C 136.185 160.412,136.957 160.271,137.786 160.189 C 138.615 160.108,139.293 159.978,139.293 159.900 C 139.293 159.823,140.064 159.638,141.006 159.490 C 141.948 159.341,142.813 159.148,142.929 159.059 C 143.045 158.970,143.724 158.778,144.439 158.631 C 145.153 158.483,145.738 158.282,145.738 158.184 C 145.738 158.085,145.925 158.004,146.154 158.004 C 146.383 158.004,146.570 157.934,146.571 157.848 C 146.571 157.762,146.913 157.675,147.330 157.653 C 147.747 157.631,148.145 157.526,148.213 157.419 C 148.281 157.312,148.641 157.159,149.012 157.078 C 149.384 156.998,149.688 156.855,149.688 156.761 C 149.688 156.667,150.156 156.478,150.728 156.341 C 151.299 156.204,151.767 156.022,151.767 155.938 C 151.767 155.853,152.141 155.660,152.599 155.509 C 153.056 155.358,153.430 155.164,153.430 155.077 C 153.430 154.990,153.711 154.857,154.054 154.782 C 154.397 154.706,154.678 154.573,154.678 154.485 C 154.678 154.397,155.029 154.168,155.457 153.977 C 156.574 153.479,157.438 152.986,157.757 152.667 C 157.909 152.515,158.170 152.391,158.337 152.391 C 158.504 152.391,158.695 152.251,158.761 152.079 C 158.826 151.907,159.006 151.767,159.160 151.767 C 159.313 151.767,159.514 151.650,159.605 151.507 C 159.696 151.364,160.049 151.107,160.389 150.935 C 160.728 150.764,161.161 150.483,161.350 150.312 C 161.539 150.140,161.991 149.775,162.354 149.501 C 162.717 149.226,162.970 148.886,162.916 148.745 C 162.854 148.585,162.951 148.523,163.171 148.580 C 163.382 148.636,163.865 148.355,164.373 147.881 C 164.840 147.446,165.382 146.996,165.577 146.881 C 165.806 146.747,165.883 146.544,165.792 146.310 C 165.601 145.813,165.206 145.847,165.337 146.348 C 165.397 146.576,165.322 146.797,165.164 146.857 C 164.979 146.929,164.922 146.847,164.994 146.611 C 165.053 146.417,164.973 146.471,164.816 146.732 C 164.660 146.993,164.466 147.141,164.386 147.061 C 164.306 146.981,164.241 147.028,164.241 147.164 C 164.241 147.300,164.007 147.500,163.721 147.609 C 163.436 147.718,163.202 147.887,163.202 147.985 C 163.202 148.083,162.947 148.295,162.636 148.458 C 161.958 148.811,161.227 149.504,161.227 149.792 C 161.227 149.906,161.086 150.010,160.915 150.022 C 160.367 150.061,159.667 150.354,159.667 150.544 C 159.667 150.650,142.710 150.728,119.751 150.728 L 79.834 150.728 79.834 148.444 L 79.834 146.161 103.854 146.105 C 122.230 146.063,127.910 145.991,128.028 145.801 C 128.129 145.637,128.286 145.618,128.488 145.746 C 128.907 146.011,129.369 145.996,129.200 145.723 C 129.125 145.600,129.262 145.623,129.506 145.775 C 129.845 145.984,129.987 145.991,130.104 145.803 C 130.316 145.464,131.393 145.066,131.393 145.327 C 131.393 145.439,131.492 145.530,131.613 145.530 C 131.734 145.530,131.772 145.431,131.697 145.309 C 131.604 145.159,131.804 145.134,132.319 145.230 C 132.882 145.336,133.142 145.290,133.327 145.053 C 133.464 144.877,133.763 144.690,133.992 144.636 C 134.735 144.462,133.485 144.535,131.811 144.763 " stroke="none" fill="#dc241c" fill-rule="evenodd"></path><path id="path4" d="M258.628 36.790 C 258.342 36.873,257.611 36.923,257.004 36.901 C 256.333 36.877,256.006 36.931,256.172 37.039 C 256.353 37.156,256.234 37.208,255.821 37.192 C 254.857 37.154,252.183 37.466,252.183 37.615 C 252.183 37.689,251.856 37.738,251.455 37.725 C 251.055 37.711,250.728 37.763,250.728 37.839 C 250.728 37.914,250.611 37.985,250.468 37.996 C 250.325 38.006,249.927 38.081,249.584 38.163 C 249.241 38.244,248.764 38.321,248.525 38.334 C 248.285 38.347,247.942 38.479,247.763 38.628 C 247.530 38.821,247.398 38.832,247.295 38.666 C 247.195 38.505,247.044 38.532,246.796 38.757 C 246.511 39.014,246.383 39.028,246.162 38.823 C 245.942 38.618,245.915 38.619,246.032 38.825 C 246.135 39.009,245.991 39.085,245.542 39.085 C 245.193 39.085,244.906 39.184,244.906 39.305 C 244.906 39.427,244.830 39.478,244.736 39.420 C 244.642 39.362,244.335 39.434,244.054 39.579 C 243.774 39.725,243.424 39.804,243.277 39.755 C 243.129 39.706,242.889 39.829,242.743 40.030 C 242.562 40.276,242.301 40.360,241.931 40.289 C 241.630 40.232,241.432 40.262,241.491 40.357 C 241.549 40.451,241.336 40.591,241.017 40.667 C 240.698 40.743,240.321 40.897,240.179 41.008 C 240.038 41.120,239.782 41.157,239.610 41.091 C 239.439 41.025,239.320 41.038,239.348 41.120 C 239.375 41.201,239.304 41.310,239.189 41.361 C 238.816 41.526,238.503 41.889,238.598 42.045 C 238.649 42.130,238.530 42.137,238.334 42.062 C 238.092 41.969,238.026 42.003,238.128 42.168 C 238.211 42.302,238.179 42.412,238.058 42.412 C 237.937 42.412,237.836 42.295,237.835 42.152 C 237.832 41.957,237.787 41.962,237.655 42.170 C 237.559 42.322,237.420 42.439,237.347 42.429 C 236.928 42.373,236.798 42.445,236.798 42.736 C 236.798 42.914,236.713 43.007,236.608 42.942 C 236.504 42.878,236.363 42.942,236.296 43.086 C 236.206 43.280,236.145 43.284,236.059 43.104 C 235.934 42.841,234.723 43.401,234.721 43.723 C 234.720 43.816,234.626 43.834,234.511 43.763 C 234.397 43.692,234.304 43.739,234.304 43.867 C 234.304 43.995,234.216 44.046,234.110 43.980 C 234.004 43.914,233.849 43.970,233.766 44.104 C 233.672 44.256,233.706 44.291,233.856 44.199 C 233.988 44.117,234.096 44.127,234.096 44.220 C 234.096 44.314,233.912 44.505,233.688 44.645 C 233.365 44.847,233.292 44.847,233.342 44.644 C 233.376 44.502,233.364 44.457,233.316 44.544 C 233.268 44.630,233.149 44.652,233.053 44.592 C 232.956 44.533,232.809 44.593,232.727 44.727 C 232.633 44.879,232.666 44.915,232.816 44.822 C 233.158 44.611,233.114 45.015,232.763 45.307 C 232.584 45.455,232.421 45.473,232.347 45.352 C 232.217 45.141,231.396 45.274,231.425 45.500 C 231.481 45.937,231.340 46.133,230.925 46.191 C 230.668 46.228,230.456 46.398,230.455 46.570 C 230.453 46.771,230.253 46.879,229.888 46.874 C 229.578 46.869,229.279 46.985,229.223 47.131 C 229.140 47.346,236.444 47.398,267.465 47.400 L 305.809 47.403 305.874 44.752 C 305.923 42.724,305.961 43.225,306.032 46.881 L 306.125 51.663 306.233 44.283 C 306.303 39.478,306.268 36.848,306.133 36.746 C 305.867 36.546,259.322 36.589,258.628 36.790 M204.215 95.010 C 204.215 95.525,204.255 95.735,204.305 95.478 C 204.354 95.221,204.354 94.800,204.305 94.543 C 204.255 94.285,204.215 94.496,204.215 95.010 M204.210 102.599 C 204.213 103.056,204.255 103.219,204.305 102.960 C 204.355 102.702,204.353 102.327,204.301 102.129 C 204.249 101.930,204.208 102.141,204.210 102.599 " stroke="none" fill="#9c9c9c" fill-rule="evenodd"></path></g></svg>