<?xml version="1.0" standalone="no"?>
<!DOCTYPE svg PUBLIC "-//W3C//DTD SVG 20010904//EN"
 "http://www.w3.org/TR/2001/REC-SVG-20010904/DTD/svg10.dtd">
<svg version="1.0" xmlns="http://www.w3.org/2000/svg"
 width="213.000000pt" height="123.000000pt" viewBox="0 0 213.000000 123.000000"
 preserveAspectRatio="xMidYMid meet">
<metadata>
Created by potrace 1.10, written by Peter Selinger 2001-2011
</metadata>
<g transform="translate(0.000000,123.000000) scale(0.100000,-0.100000)"
stroke="none">
<path fill="#FF3232"  d="M52 968 l3 -73 362 4 c324 3 365 2 388 -13 l25 -16 0 -244 c0 -223
-2 -244 -18 -259 -17 -15 -58 -17 -391 -17 l-372 0 3 -72 3 -72 373 2 c223 1
381 6 392 12 10 6 26 10 35 10 25 0 95 71 95 95 0 12 5 26 11 32 16 16 16 526
0 531 -6 2 -11 16 -11 32 0 34 -44 90 -71 90 -11 0 -22 7 -25 15 -5 13 -60 15
-406 15 l-399 0 3 -72z"/>
<path fill="#a9a9a9"   d="M1230 1025 c-7 -8 -22 -15 -34 -15 -26 0 -66 -41 -66 -68 0 -11 -7
-25 -15 -32 -13 -10 -15 -54 -15 -276 0 -144 4 -274 9 -288 14 -34 94 -116
115 -116 9 0 26 -4 36 -10 11 -6 165 -11 379 -12 l361 -3 0 73 0 72 -358 0
c-338 0 -360 1 -376 19 -15 16 -17 48 -17 266 -1 150 3 251 9 257 6 6 143 9
376 7 l366 -4 0 73 0 72 -379 0 c-324 0 -380 -2 -391 -15z"/>
</g>
</svg>
